<svg width="195" height="47" viewBox="0 0 195 47" fill="none" xmlns="http://www.w3.org/2000/svg">
<path d="M0.92 0.799998C1.04 0.799998 1.36 0.839998 1.88 0.919997C2.4 0.999998 2.84 1.08 3.2 1.16C3.4 1.08 3.78 1.28 4.34 1.76C4.42 1.8 4.5 1.9 4.58 2.06C4.66 2.22 4.7 2.32 4.7 2.36C4.82 2.52 5.04 2.76 5.36 3.08C5.4 3.08 5.42 3.06 5.42 3.02C5.46 3.1 5.9 3.92 6.74 5.48C6.74 5.52 6.78 5.66 6.86 5.9C6.94 6.14 7.02 6.32 7.1 6.44C7.14 6.52 7.2 6.68 7.28 6.92C7.4 7.12 7.48 7.28 7.52 7.4C7.52 7.44 7.54 7.52 7.58 7.64C7.62 7.72 7.66 7.78 7.7 7.82C7.74 7.9 7.78 8 7.82 8.12C7.9 8.2 7.96 8.3 8 8.42C8.04 8.54 8.08 8.62 8.12 8.66C8.2 8.86 8.32 9.16 8.48 9.56C8.68 9.92 8.82 10.2 8.9 10.4C8.98 10.56 9.08 10.8 9.2 11.12C9.32 11.44 9.42 11.68 9.5 11.84C9.58 12 9.66 12.12 9.74 12.2C9.78 12.32 9.94 12.7 10.22 13.34C10.5 13.94 10.72 14.44 10.88 14.84C11.16 15.28 11.46 15.98 11.78 16.94C12.1 17.9 12.34 18.58 12.5 18.98C12.54 19.02 12.6 19.04 12.68 19.04C12.76 18.6 12.92 17.94 13.16 17.06C13.2 16.78 13.3 16.36 13.46 15.8C13.54 15.48 13.68 15 13.88 14.36C14.08 13.72 14.22 13.24 14.3 12.92C14.58 12.12 14.74 11.6 14.78 11.36C15.06 10.44 15.22 9.88 15.26 9.68C15.3 9.56 15.44 9.08 15.68 8.24C15.92 7.4 16.08 6.76 16.16 6.32C16.32 5.68 16.4 5.18 16.4 4.82C16.4 4.46 16.56 3.96 16.88 3.32C17 3.08 17.2 2.52 17.48 1.64C17.8 0.919998 18 0.519998 18.08 0.439999C18.2 0.479999 18.34 0.539998 18.5 0.619997C18.54 0.579998 18.58 0.519998 18.62 0.439999C18.7 0.359998 18.76 0.299998 18.8 0.259998H18.86C18.98 0.299998 19.14 0.379998 19.34 0.499999C19.58 0.579998 19.74 0.639997 19.82 0.679996C19.86 0.719998 19.94 0.779999 20.06 0.859998C20.18 0.899997 20.28 0.939998 20.36 0.98C20.72 1.14 21 1.46 21.2 1.94C21.24 2.02 21.32 2.14 21.44 2.3C21.56 2.46 21.64 2.58 21.68 2.66C21.92 3.38 22.02 3.96 21.98 4.4C21.98 4.44 21.98 4.5 21.98 4.58C22.02 4.66 22.06 4.76 22.1 4.88C22.14 4.96 22.16 5.02 22.16 5.06L22.34 7.22C22.34 7.3 22.34 7.44 22.34 7.64C22.38 7.8 22.4 7.92 22.4 8C22.44 8.6 22.46 9.48 22.46 10.64C22.54 11.68 22.6 12.48 22.64 13.04V14.9C22.64 15.06 22.68 15.34 22.76 15.74V16.1C22.88 16.42 22.94 16.9 22.94 17.54V18.68V21.08C22.94 21.64 22.96 22.08 23 22.4V23.42C23 23.46 23 23.52 23 23.6C23.04 23.68 23.06 23.74 23.06 23.78V24.2V26.12H23.18V26.9V27.92V28.52C23.22 28.72 23.24 29.02 23.24 29.42C23.24 29.54 23.24 29.76 23.24 30.08C23.28 30.36 23.3 30.58 23.3 30.74V32.24V33.86C23.3 34.02 23.3 34.26 23.3 34.58C23.34 34.9 23.36 35.12 23.36 35.24C23.36 35.36 23.36 35.5 23.36 35.66C23.4 35.82 23.42 35.94 23.42 36.02C23.46 36.34 23.5 36.78 23.54 37.34C23.62 37.9 23.66 38.32 23.66 38.6C23.74 39.56 23.78 40.28 23.78 40.76V42.5C23.78 42.74 23.74 43.1 23.66 43.58C23.62 43.82 23.52 44.22 23.36 44.78C23.24 45.02 23.04 45.14 22.76 45.14C22.64 45.1 22.48 45.08 22.28 45.08C22.12 45.08 22 45.06 21.92 45.02C21.6 45.02 21.36 44.8 21.2 44.36C21.08 44.12 20.9 43.8 20.66 43.4C20.22 42.8 20 42.3 20 41.9C20 41.3 19.96 40.44 19.88 39.32C19.84 39.08 19.78 38.74 19.7 38.3C19.66 37.86 19.64 37.52 19.64 37.28C19.64 37.12 19.64 36.86 19.64 36.5C19.68 36.1 19.7 35.8 19.7 35.6C19.7 35.44 19.68 35.2 19.64 34.88C19.6 34.52 19.58 34.24 19.58 34.04C19.58 33.8 19.6 33.46 19.64 33.02C19.68 32.54 19.7 32.18 19.7 31.94C19.7 31.78 19.68 31.52 19.64 31.16C19.6 30.76 19.58 30.46 19.58 30.26V29.12V26.9C19.54 26.62 19.52 26.2 19.52 25.64C19.52 25.04 19.52 24.6 19.52 24.32C19.52 23.4 19.46 22.46 19.34 21.5C19.34 21.38 19.32 21.2 19.28 20.96C19.24 20.68 19.22 20.46 19.22 20.3V19.16C19.22 19.04 19.2 18.86 19.16 18.62C19.16 18.34 19.16 18.12 19.16 17.96C19.16 17.84 19.16 17.66 19.16 17.42C19.2 17.14 19.22 16.94 19.22 16.82C19.22 16.62 19.2 16.36 19.16 16.04C19.16 15.68 19.16 15.42 19.16 15.26C19.16 15.1 19.16 14.88 19.16 14.6C19.2 14.32 19.22 14.12 19.22 14V10.34C19.22 9.78 19.26 8.98 19.34 7.94C19.34 7.78 19.3 7.66 19.22 7.58C19.22 7.62 19.2 7.64 19.16 7.64C19.16 7.64 19.16 7.66 19.16 7.7C19.08 7.9 18.98 8.2 18.86 8.6C18.78 8.96 18.72 9.22 18.68 9.38C18.56 9.98 18.48 10.34 18.44 10.46L18.08 11.9C18.08 11.94 18.06 12.02 18.02 12.14C18.02 12.26 18.02 12.36 18.02 12.44C18.02 12.52 17.96 12.74 17.84 13.1C17.76 13.42 17.7 13.66 17.66 13.82C17.62 13.98 17.56 14.22 17.48 14.54C17.44 14.82 17.4 15.04 17.36 15.2V15.38C17.32 15.54 17.26 15.78 17.18 16.1C17.14 16.42 17.1 16.66 17.06 16.82C16.94 17.22 16.86 17.48 16.82 17.6C16.66 18.48 16.52 19.12 16.4 19.52L16.04 20.42C15.96 20.74 15.88 21.14 15.8 21.62C15.72 22.18 15.64 22.64 15.56 23L15.38 23.54L15.02 24.62C14.86 25.18 14.72 25.6 14.6 25.88C14.44 26.28 14.26 26.56 14.06 26.72C14.02 26.76 13.94 26.86 13.82 27.02C13.7 27.18 13.58 27.3 13.46 27.38C13.38 27.42 13.26 27.44 13.1 27.44C12.82 27.44 12.58 27.34 12.38 27.14C12.1 26.9 11.86 26.62 11.66 26.3C11.18 25.42 10.82 24.78 10.58 24.38C10.14 23.34 9.88 22.78 9.8 22.7C9.64 22.46 9.48 22.2 9.32 21.92C9.2 21.6 9.06 21.26 8.9 20.9C8.74 20.5 8.62 20.2 8.54 20C8.46 19.84 8.3 19.54 8.06 19.1C7.86 18.62 7.7 18.24 7.58 17.96C7.42 17.52 7.18 16.82 6.86 15.86C6.78 15.66 6.64 15.36 6.44 14.96C6.28 14.52 6.16 14.18 6.08 13.94C5.96 13.58 5.7 12.78 5.3 11.54C5.26 11.42 5.18 11.24 5.06 11C4.98 10.72 4.92 10.52 4.88 10.4C4.84 10.28 4.76 10.1 4.64 9.86C4.56 9.62 4.5 9.44 4.46 9.32V9.08C4.42 8.96 4.34 8.78 4.22 8.54C4.14 8.26 4.06 8.06 3.98 7.94H3.86V8.42C3.9 8.58 3.94 8.78 3.98 9.02C4.06 9.26 4.1 9.44 4.1 9.56C4.14 9.88 4.16 10.36 4.16 11C4.16 11.64 4.18 12.12 4.22 12.44C4.22 12.56 4.22 12.76 4.22 13.04C4.26 13.28 4.28 13.46 4.28 13.58C4.36 14.3 4.4 14.82 4.4 15.14C4.4 15.26 4.38 15.44 4.34 15.68C4.34 15.92 4.34 16.08 4.34 16.16C4.34 16.32 4.34 16.52 4.34 16.76C4.38 17 4.4 17.2 4.4 17.36C4.4 17.4 4.38 17.44 4.34 17.48H4.4C4.32 17.8 4.28 18.02 4.28 18.14C4.28 18.18 4.32 18.36 4.4 18.68L4.34 18.74C4.38 18.94 4.42 19.24 4.46 19.64C4.54 20 4.6 20.28 4.64 20.48L4.58 20.54V22.34C4.54 22.82 4.52 23.54 4.52 24.5H4.64C4.6 24.54 4.58 24.6 4.58 24.68H4.64C4.64 25.12 4.66 25.78 4.7 26.66C4.78 27.54 4.84 28.2 4.88 28.64C4.96 28.84 5 29.3 5 30.02C4.96 30.22 4.94 30.52 4.94 30.92C4.98 31.16 5.02 31.54 5.06 32.06C5.1 32.54 5.14 32.9 5.18 33.14C5.22 33.34 5.24 33.64 5.24 34.04C5.24 34.44 5.24 34.74 5.24 34.94C5.24 35.1 5.24 35.34 5.24 35.66C5.28 35.94 5.3 36.16 5.3 36.32C5.38 36.88 5.38 37.46 5.3 38.06V39.62C5.3 39.7 5.28 39.84 5.24 40.04C5.2 40.24 5.2 40.4 5.24 40.52C5.28 40.8 5.3 41.2 5.3 41.72C5.3 42.24 5.3 42.64 5.3 42.92C5.34 43.16 5.24 43.34 5 43.46C5 43.5 4.98 43.52 4.94 43.52C4.9 43.52 4.86 43.54 4.82 43.58C5.18 43.78 5.32 44.02 5.24 44.3C4.96 44.46 4.58 44.7 4.1 45.02C4.06 45.02 3.96 45.02 3.8 45.02C3.64 45.06 3.54 45.08 3.5 45.08C3.46 45.08 3.36 45.1 3.2 45.14C3.04 45.18 2.94 45.22 2.9 45.26C2.86 45.22 2.84 45.18 2.84 45.14C2.84 45.1 2.82 45.06 2.78 45.02C2.66 44.82 2.56 44.72 2.48 44.72C2.16 44.56 1.96 44.26 1.88 43.82C1.88 43.62 1.86 43.32 1.82 42.92C1.82 42.52 1.82 42.22 1.82 42.02V41.54V40.7L1.64 38.9C1.64 37.18 1.62 36.14 1.58 35.78C1.54 34.86 1.54 33.96 1.58 33.08C1.58 32.56 1.54 32.18 1.46 31.94C1.34 31.34 1.28 30.44 1.28 29.24C1.28 27.72 1.26 26.56 1.22 25.76C1.22 25.48 1.2 25.06 1.16 24.5C1.12 23.94 1.1 23.52 1.1 23.24C1.06 22.6 1.04 21.64 1.04 20.36C1.12 19.32 1.16 18.56 1.16 18.08C1.16 17.84 1.14 17.5 1.1 17.06C1.06 16.62 1.04 16.28 1.04 16.04C1.04 15.68 1.02 15.14 0.98 14.42C0.94 13.7 0.92 13.16 0.92 12.8C0.92 12.72 0.9 12.56 0.86 12.32C0.86 12.08 0.86 11.9 0.86 11.78C0.86 11.62 0.86 11.38 0.86 11.06C0.9 10.74 0.92 10.52 0.92 10.4C0.92 9.96 0.88 9.3 0.8 8.42C0.8 8.3 0.82 8.1 0.86 7.82C0.94 7.5 0.96 7.26 0.92 7.1C0.88 6.82 0.88 6.44 0.92 5.96C0.96 5.48 0.98 5.16 0.98 5C1.02 4.8 1.02 4.56 0.98 4.28C0.94 3.96 0.92 3.74 0.92 3.62C0.92 3.42 0.9 3.12 0.86 2.72C0.82 2.32 0.8 2.02 0.8 1.82C0.8 1.62 0.84 1.28 0.92 0.799998ZM4.22 6.2C4.26 6.2 4.28 6.2 4.28 6.2L4.4 6.14C4.4 6.1 4.38 6.04 4.34 5.96C4.3 5.88 4.28 5.82 4.28 5.78H4.22V6.5H4.28V6.26L4.22 6.2ZM46.8416 1.28C47.0416 1.72 47.0816 2.14 46.9616 2.54C46.8816 2.78 46.7616 3.16 46.6016 3.68C46.4416 4.16 46.3216 4.52 46.2416 4.76C46.2016 4.84 46.1616 5 46.1216 5.24C46.0816 5.44 46.0416 5.6 46.0016 5.72C46.0016 5.76 45.9816 5.82 45.9416 5.9C45.9016 5.98 45.8816 6.04 45.8816 6.08C45.8416 6.28 45.7816 6.56 45.7016 6.92C45.6616 7.28 45.6216 7.54 45.5816 7.7C45.5416 7.82 45.4816 8 45.4016 8.24C45.3216 8.44 45.2616 8.58 45.2216 8.66C45.1416 8.94 45.0016 9.34 44.8016 9.86C44.6416 10.34 44.5216 10.72 44.4416 11C44.3616 11.28 44.2216 11.84 44.0216 12.68C43.9416 12.76 43.9216 12.86 43.9616 12.98C43.8016 13.54 43.6816 13.98 43.6016 14.3C43.5616 14.54 43.4416 14.88 43.2416 15.32C43.0816 15.72 42.9816 16.02 42.9416 16.22C42.9016 16.46 42.8216 16.82 42.7016 17.3C42.6216 17.78 42.5416 18.14 42.4616 18.38C42.4216 18.62 42.3216 18.98 42.1616 19.46C42.0416 19.9 41.9416 20.24 41.8616 20.48C41.8216 20.52 41.8016 20.58 41.8016 20.66C41.8016 20.74 41.8016 20.8 41.8016 20.84C41.5616 21.48 41.3816 21.94 41.2616 22.22L41.0816 22.94C41.0416 23.18 40.9416 23.52 40.7816 23.96C40.6216 24.36 40.5216 24.66 40.4816 24.86C40.2816 25.54 40.1416 25.98 40.0616 26.18C40.0616 26.22 40.0416 26.3 40.0016 26.42C40.0016 26.54 40.0016 26.64 40.0016 26.72C39.9216 27.04 39.8016 27.48 39.6416 28.04C39.4416 28.92 39.3216 29.38 39.2816 29.42C39.1616 29.66 39.0416 30 38.9216 30.44C38.8016 30.84 38.7216 31.1 38.6816 31.22C38.6416 31.3 38.6016 31.44 38.5616 31.64C38.5616 31.84 38.5616 31.96 38.5616 32C38.4016 32.44 38.3016 32.72 38.2616 32.84C38.2216 32.84 38.1616 32.86 38.0816 32.9C38.0416 32.94 38.0016 32.98 37.9616 33.02C37.8816 33.66 37.7216 34.44 37.4816 35.36C37.3216 36.08 37.1616 36.56 37.0016 36.8C36.8816 37 36.7816 37.32 36.7016 37.76C36.6616 38.16 36.6216 38.42 36.5816 38.54V38.66C36.4216 38.78 36.3216 39.02 36.2816 39.38C36.2416 39.7 36.2016 39.9 36.1616 39.98C36.0816 40.18 35.8816 40.9 35.5616 42.14L35.0216 44.12C34.9816 44.24 34.9016 44.44 34.7816 44.72C34.6616 45 34.5816 45.22 34.5416 45.38C34.4216 45.58 34.1416 45.78 33.7016 45.98C33.3416 46.14 32.8816 46.28 32.3216 46.4C32.0416 46.36 31.9216 46.14 31.9616 45.74C31.9616 45.38 31.9816 44.84 32.0216 44.12C32.0616 43.44 32.1016 42.94 32.1416 42.62C32.1416 42.46 32.1616 42.28 32.2016 42.08C32.2416 41.88 32.2816 41.66 32.3216 41.42C32.4016 41.14 32.4616 40.94 32.5016 40.82C32.5416 40.58 32.6016 40.22 32.6816 39.74C32.8016 39.22 32.8816 38.82 32.9216 38.54C33.0816 37.94 33.1816 37.54 33.2216 37.34C33.2616 37.22 33.3016 37.04 33.3416 36.8C33.4216 36.52 33.4816 36.32 33.5216 36.2C33.5616 36 33.6216 35.68 33.7016 35.24C33.8216 34.8 33.9016 34.48 33.9416 34.28C34.1416 33.44 34.4416 32.14 34.8416 30.38C34.9616 29.98 35.1016 29.38 35.2616 28.58V28.28C34.6216 27.16 34.1416 26.3 33.8216 25.7C33.7816 25.66 33.6616 25.32 33.4616 24.68C33.1416 23.72 32.9016 22.98 32.7416 22.46C32.7016 22.42 32.6816 22.36 32.6816 22.28C32.6816 22.2 32.6816 22.14 32.6816 22.1C32.7216 22.14 32.7816 22.16 32.8616 22.16V22.04C32.8216 22 32.7616 21.98 32.6816 21.98C32.1616 20.42 31.5216 18.58 30.7616 16.46C30.7216 16.38 30.6616 16.28 30.5816 16.16C30.5416 16.04 30.5016 15.94 30.4616 15.86C30.3416 15.5 30.1616 14.98 29.9216 14.3C29.7216 13.62 29.5816 13.16 29.5016 12.92C29.3016 12.24 29.0416 11.26 28.7216 9.98C28.6816 9.86 28.5816 9.6 28.4216 9.2C28.3016 8.8 28.2216 8.5 28.1816 8.3C27.7016 6.46 27.3616 5.08 27.1616 4.16C27.0416 3.68 26.9416 2.94 26.8616 1.94C26.7816 1.3 27.0816 0.98 27.7616 0.98C27.8816 0.98 28.0416 0.999999 28.2416 1.04C28.4816 1.08 28.6416 1.1 28.7216 1.1L28.6616 1.22C28.7416 1.3 28.8216 1.38 28.9016 1.46C29.0216 1.54 29.1016 1.6 29.1416 1.64C29.5416 2.24 29.7616 2.58 29.8016 2.66C30.0416 3.02 30.2216 3.38 30.3416 3.74C30.6216 4.42 30.7816 4.8 30.8216 4.88C30.9016 5.12 31.0016 5.48 31.1216 5.96C31.2816 6.4 31.4016 6.74 31.4816 6.98C31.5616 7.26 31.7216 7.68 31.9616 8.24V8.36H32.0816L32.6216 9.98C32.5416 10.06 32.4816 10.14 32.4416 10.22C32.4816 10.22 32.5216 10.24 32.5616 10.28H32.6816C32.6816 10.32 32.7216 10.4 32.8016 10.52C32.8816 10.6 32.9216 10.68 32.9216 10.76V11.24C32.9216 11.32 32.9616 11.44 33.0416 11.6C33.1616 11.72 33.2216 11.8 33.2216 11.84C33.2616 11.96 33.3416 12.22 33.4616 12.62C33.6216 12.98 33.7416 13.28 33.8216 13.52V13.58C33.8216 13.78 34.1016 14.48 34.6616 15.68C34.7016 15.8 34.7416 15.98 34.7816 16.22C34.8216 16.46 34.8616 16.64 34.9016 16.76C35.2216 17.56 35.4616 18.14 35.6216 18.5C35.7416 18.78 35.8816 19.18 36.0416 19.7C36.2416 20.22 36.3816 20.6 36.4616 20.84C36.6216 21.4 36.7616 21.84 36.8816 22.16C36.9616 22.12 37.1016 22.1 37.3016 22.1C37.5016 21.5 37.9216 20.1 38.5616 17.9C39.2416 15.7 39.7616 14.02 40.1216 12.86C40.4416 12.7 40.7816 12.56 41.1416 12.44V12.32C41.0616 12.32 40.9616 12.28 40.8416 12.2C40.7216 12.12 40.6416 12.08 40.6016 12.08L40.5416 12.14C40.5016 12.18 40.4816 12.22 40.4816 12.26C40.4016 11.94 40.5016 11.6 40.7816 11.24L40.7216 11.18V11.12C40.8016 10.8 40.8616 10.58 40.9016 10.46H41.0816C41.0816 10.5 41.0816 10.56 41.0816 10.64L41.1416 10.7H41.2016C41.2016 10.62 41.2416 10.54 41.3216 10.46L41.5016 10.28L41.4416 10.22H40.9616C41.0416 10.14 41.0816 10.12 41.0816 10.16C41.1616 9.8 41.2816 9.34 41.4416 8.78C41.5216 8.38 41.6016 8.12 41.6816 8L41.9216 7.76C41.8416 7.24 41.9216 6.9 42.1616 6.74C42.2016 6.42 42.2616 6.02 42.3416 5.54H42.4016C42.5616 4.9 42.7016 4.42 42.8216 4.1C43.1416 2.82 43.4816 1.9 43.8416 1.34C43.8816 1.26 43.9216 1.18 43.9616 1.1C44.0416 1.02 44.1016 0.939999 44.1416 0.859998C44.3016 0.659998 44.4616 0.639998 44.6216 0.799998C45.1416 0.559999 45.5416 0.559999 45.8216 0.799998C45.8616 0.839998 45.9616 0.859998 46.1216 0.859998C46.4416 0.779999 46.6816 0.919999 46.8416 1.28ZM40.9616 11.12C41.0816 11.28 41.2416 11.38 41.4416 11.42C41.4016 11.34 41.3816 11.24 41.3816 11.12C41.2216 11.04 41.1216 11 41.0816 11L40.9616 11.12ZM41.8616 9.02L42.1016 8.78L41.7416 8.42L41.6816 8.48C41.6816 8.52 41.6816 8.58 41.6816 8.66C41.7216 8.7 41.7416 8.74 41.7416 8.78H41.4416C41.4816 8.82 41.6216 8.9 41.8616 9.02ZM55.9044 18.26H55.4844C53.4044 17.46 51.8244 16.08 50.7444 14.12C50.3044 13.36 50.1244 12.46 50.2044 11.42C50.2844 10.46 50.3644 9.76 50.4444 9.32C50.5244 8.96 50.7044 8.56 50.9844 8.12C51.5444 6.92 52.0644 6.08 52.5444 5.6C54.0644 4.08 55.5644 3.18 57.0444 2.9C58.0844 2.7 58.7644 2.62 59.0844 2.66L62.6844 3.2C62.7244 3.24 62.8044 3.28 62.9244 3.32C63.0444 3.32 63.1244 3.32 63.1644 3.32L64.0644 3.68C64.3444 3.88 64.5044 3.98 64.5444 3.98C64.6244 4.06 64.9444 4.26 65.5044 4.58C65.5044 4.9 65.5244 5.1 65.5644 5.18C65.4844 5.3 65.3044 5.58 65.0244 6.02C64.8244 6.3 64.5044 6.48 64.0644 6.56H62.8044C61.6444 6.72 60.8244 6.82 60.3444 6.86C59.9444 6.9 59.3444 7.14 58.5444 7.58C57.8644 7.82 57.4044 7.92 57.1644 7.88C56.6844 8.12 56.1644 8.64 55.6044 9.44C55.0444 10.2 54.6844 10.66 54.5244 10.82C54.5244 10.9 54.4844 11.08 54.4044 11.36C54.3644 11.6 54.3244 11.78 54.2844 11.9C54.2444 12.18 54.4044 12.7 54.7644 13.46C54.8044 13.58 54.8844 13.78 55.0044 14.06C55.1644 14.34 55.2844 14.56 55.3644 14.72C56.4044 15.88 57.8044 16.88 59.5644 17.72C60.1644 18.04 61.1044 18.44 62.3844 18.92C62.5444 19.08 62.7044 19.22 62.8644 19.34C63.7444 19.7 64.8844 20.38 66.2844 21.38C66.3244 21.42 66.3844 21.44 66.4644 21.44C66.5844 21.44 66.6644 21.44 66.7044 21.44C66.8244 21.56 67.0444 21.72 67.3644 21.92C67.6844 22.12 67.9244 22.32 68.0844 22.52C68.2044 22.68 68.8644 23.36 70.0644 24.56C70.1444 24.64 70.2444 24.8 70.3644 25.04C70.4844 25.28 70.5844 25.46 70.6644 25.58C70.7044 25.66 70.7644 25.76 70.8444 25.88C70.9244 26 70.9844 26.12 71.0244 26.24C71.1044 26.32 71.1644 26.4 71.2044 26.48C71.3244 26.8 71.4644 27.28 71.6244 27.92C71.7844 28.96 71.8444 29.76 71.8044 30.32C71.8044 30.36 71.6244 30.98 71.2644 32.18C71.2644 32.26 71.2244 32.38 71.1444 32.54C71.0644 32.66 71.0044 32.76 70.9644 32.84C70.9644 33.12 70.9044 33.4 70.7844 33.68C70.6644 33.92 70.4844 34.22 70.2444 34.58C70.0444 34.94 69.9044 35.18 69.8244 35.3C69.6644 35.62 69.5644 35.88 69.5244 36.08C69.0444 37.28 68.7244 38.02 68.5644 38.3C68.4844 38.5 68.3044 38.76 68.0244 39.08C67.7444 39.4 67.5444 39.64 67.4244 39.8C67.3444 40.08 67.0044 40.4 66.4044 40.76C65.8444 41.08 65.3844 41.2 65.0244 41.12C65.0244 41.16 65.0044 41.22 64.9644 41.3C64.9244 41.34 64.8844 41.38 64.8444 41.42C63.3644 41.78 62.5644 41.96 62.4444 41.96C61.8844 42.08 61.0244 42.18 59.8644 42.26C58.9044 42.3 57.9444 42.12 56.9844 41.72C56.8244 41.68 56.5644 41.64 56.2044 41.6C55.8444 41.52 55.5644 41.44 55.3644 41.36C55.0044 41.2 54.4644 40.96 53.7444 40.64C53.0244 40.28 52.5244 40.04 52.2444 39.92L52.0644 39.74C51.5844 39.34 51.2044 39.08 50.9244 38.96C50.6444 38.88 50.1644 38.62 49.4844 38.18C49.0444 37.86 48.8644 37.42 48.9444 36.86C48.9844 36.38 49.1044 35.86 49.3044 35.3C49.3844 34.94 49.6244 34.76 50.0244 34.76C50.1444 34.76 50.3444 34.76 50.6244 34.76C50.9044 34.72 51.1244 34.72 51.2844 34.76C51.4444 34.8 51.5844 34.9 51.7044 35.06C52.4244 35.26 53.3844 35.52 54.5844 35.84C55.4244 36.12 56.2844 36.24 57.1644 36.2C59.4044 35.96 61.0644 35.78 62.1444 35.66C62.8244 35.58 63.3644 35.32 63.7644 34.88C65.1644 33.52 66.0044 31.66 66.2844 29.3C66.3244 28.82 66.2644 27.82 66.1044 26.3C66.0644 26.06 65.8844 25.7 65.5644 25.22C65.2444 24.66 64.9844 24.24 64.7844 23.96C64.0244 22.92 63.2444 22.28 62.4444 22.04C62.2844 21.96 62.0444 21.82 61.7244 21.62C61.4044 21.42 61.1844 21.28 61.0644 21.2C59.6244 20.4 58.5244 19.8 57.7644 19.4C57.5644 19.28 57.2844 19.14 56.9244 18.98C56.5644 18.82 56.3044 18.68 56.1444 18.56C56.0644 18.52 55.9844 18.42 55.9044 18.26ZM68.5044 28.4C68.4644 28.4 68.3644 28.36 68.2044 28.28C68.0844 28.16 67.9844 28.12 67.9044 28.16C67.8644 28.16 67.7444 28.2 67.5444 28.28C67.7044 28.52 67.8844 28.7 68.0844 28.82L68.5044 28.4ZM69.1044 29C69.1444 29 69.1844 29.02 69.2244 29.06C69.2244 28.98 69.2444 28.88 69.2844 28.76C69.3244 28.6 69.3444 28.46 69.3444 28.34C69.3844 28.22 69.4044 28.1 69.4044 27.98C69.3244 28.02 69.2044 28.04 69.0444 28.04C69.0444 28.48 69.0644 28.8 69.1044 29ZM69.5244 27.2L69.8844 26.6C69.8444 26.56 69.8244 26.52 69.8244 26.48C69.6644 26.56 69.4244 26.62 69.1044 26.66C69.1444 26.7 69.2844 26.88 69.5244 27.2ZM98.2095 5.36C98.3695 5.72 98.4095 5.98 98.3295 6.14C98.1295 6.42 97.9095 6.46 97.6695 6.26C97.2295 6.66 96.6895 6.82 96.0495 6.74C95.9695 6.74 95.6895 6.78 95.2095 6.86C94.7695 6.94 94.4895 6.94 94.3695 6.86C94.3695 6.9 94.3695 6.92 94.3695 6.92L94.3095 7.04C93.6695 7.08 92.6695 7.14 91.3095 7.22C89.9895 7.26 89.0095 7.3 88.3695 7.34C87.8495 7.26 87.1495 7.18 86.2695 7.1C85.9895 7.1 85.8895 7.22 85.9695 7.46C86.0495 8.1 86.1695 8.72 86.3295 9.32C86.2895 9.36 86.2495 9.42 86.2095 9.5L86.0895 9.62L86.2095 9.8C86.2895 10.68 86.3495 11.32 86.3895 11.72C86.4295 11.84 86.4495 11.98 86.4495 12.14C86.4095 12.26 86.3895 12.44 86.3895 12.68C86.3895 12.84 86.4095 13.08 86.4495 13.4C86.4895 13.72 86.5095 14 86.5095 14.24C86.5495 14.48 86.5695 14.72 86.5695 14.96C86.6095 15.36 86.5895 16.08 86.5095 17.12C86.5495 17.28 86.5695 17.52 86.5695 17.84C86.6095 18.16 86.6295 18.4 86.6295 18.56H86.5695C86.5695 18.6 86.5695 18.64 86.5695 18.68L86.6295 18.8L86.5695 18.92C86.6495 19.36 86.7295 19.98 86.8095 20.78C86.8095 20.82 86.7895 20.86 86.7495 20.9C86.7095 20.94 86.6895 20.98 86.6895 21.02C86.7295 21.06 86.7895 21.14 86.8695 21.26C86.8295 21.42 86.8095 21.68 86.8095 22.04C86.8095 22.08 86.8095 22.16 86.8095 22.28C86.8495 22.36 86.8695 22.44 86.8695 22.52C86.9095 22.84 86.9295 23.3 86.9295 23.9C86.9295 24.02 86.9095 24.2 86.8695 24.44C86.8695 24.68 86.8695 24.88 86.8695 25.04V25.22V25.7C86.8695 25.82 86.8895 25.92 86.9295 26C87.0095 26.28 86.9895 26.52 86.8695 26.72V27.56V27.62C86.9095 27.9 86.9295 28.34 86.9295 28.94C86.9695 29.22 86.9895 29.64 86.9895 30.2V31.34C86.9895 31.62 86.9695 32 86.9295 32.48C86.9295 32.96 86.9295 33.34 86.9295 33.62C86.9295 34.34 86.9095 34.86 86.8695 35.18C86.8695 35.82 86.8295 36.2 86.7495 36.32C86.6695 36.48 86.6095 36.64 86.5695 36.8C86.5695 36.96 86.5695 37.14 86.5695 37.34C86.5695 37.54 86.5695 37.7 86.5695 37.82C86.5295 38.02 86.5095 38.34 86.5095 38.78C86.5495 39.14 86.5695 39.66 86.5695 40.34C86.5695 40.46 86.5695 40.62 86.5695 40.82C86.6095 40.98 86.6295 41.1 86.6295 41.18C86.6295 41.22 86.6095 41.32 86.5695 41.48C86.5695 41.64 86.5695 41.74 86.5695 41.78C86.4895 41.9 86.4895 42.02 86.5695 42.14C86.5695 42.18 86.5495 42.26 86.5095 42.38C86.4695 42.5 86.4495 42.6 86.4495 42.68C86.4095 42.72 86.3495 42.82 86.2695 42.98C86.1895 43.1 86.1095 43.22 86.0295 43.34C85.9495 43.42 85.8295 43.46 85.6695 43.46C85.2295 43.54 84.8895 43.48 84.6495 43.28C84.5295 43.16 84.3295 43 84.0495 42.8C83.7695 42.56 83.5695 42.38 83.4495 42.26C83.2495 42.06 83.1095 41.74 83.0295 41.3C82.9095 40.66 82.8095 39.68 82.7295 38.36V38.12L82.6695 38.06C82.6695 37.34 82.6895 36.8 82.7295 36.44C82.7295 35.84 82.7695 34.98 82.8495 33.86V30.98V27.32C82.8495 26.96 82.8295 26.38 82.7895 25.58C82.7895 24.78 82.7895 24.18 82.7895 23.78C82.7895 23.5 82.8095 22.94 82.8495 22.1C82.8895 21.22 82.8895 20.56 82.8495 20.12C82.8495 19.84 82.8295 19.42 82.7895 18.86C82.7495 18.3 82.7295 17.86 82.7295 17.54C82.7295 17.1 82.7295 16.46 82.7295 15.62C82.7295 14.78 82.7095 14.16 82.6695 13.76C82.6695 13.04 82.6295 11.92 82.5495 10.4C82.5495 9.8 82.5095 8.9 82.4295 7.7C82.4295 7.62 82.4695 7.38 82.5495 6.98C82.2695 6.98 81.8895 7.02 81.4095 7.1C81.1695 7.1 80.7695 7.14 80.2095 7.22C80.0495 7.26 79.8095 7.28 79.4895 7.28C79.2095 7.28 78.9895 7.3 78.8295 7.34C78.6295 7.34 78.3295 7.34 77.9295 7.34C77.5695 7.3 77.2895 7.28 77.0895 7.28H75.9495H75.2895C74.7695 7.28 74.2695 7.16 73.7895 6.92C73.5095 6.8 73.0495 6.38 72.4095 5.66C72.1295 5.34 72.1295 5 72.4095 4.64C73.8095 4.44 74.7095 4.3 75.1095 4.22C75.3895 4.18 75.7895 4.1 76.3095 3.98C76.8295 3.86 77.2095 3.78 77.4495 3.74C77.6495 3.74 77.9695 3.74 78.4095 3.74C78.8495 3.7 79.1695 3.66 79.3695 3.62C79.4495 3.62 79.5895 3.62 79.7895 3.62C79.9895 3.58 80.1295 3.56 80.2095 3.56C80.5295 3.56 81.0095 3.56 81.6495 3.56C82.2895 3.52 82.7695 3.5 83.0895 3.5C84.2095 3.42 85.0895 3.4 85.7295 3.44C86.2495 3.48 86.9695 3.48 87.8895 3.44C88.8495 3.36 89.5295 3.32 89.9295 3.32C91.6495 3.32 92.9295 3.34 93.7695 3.38H95.2695C95.4295 3.46 95.5295 3.52 95.5695 3.56C95.8095 3.72 96.0495 3.78 96.2895 3.74C96.7695 3.66 97.1095 3.6 97.3095 3.56C97.5895 3.72 97.7695 4.08 97.8495 4.64L98.2095 5.36ZM92.4495 6.68C92.5295 6.68 92.6295 6.66 92.7495 6.62C92.9095 6.58 93.0295 6.56 93.1095 6.56C92.9895 6.48 92.8495 6.36 92.6895 6.2L92.4495 6.68ZM105.708 38.12C105.828 38.24 105.908 38.3 105.948 38.3C106.428 38.46 106.808 38.6 107.088 38.72C107.328 38.8 107.568 38.86 107.808 38.9C108.048 38.94 108.308 38.94 108.588 38.9C108.868 38.82 109.068 38.76 109.188 38.72C109.308 38.68 109.548 38.6 109.908 38.48C110.268 38.32 110.488 38.22 110.568 38.18C111.048 38.02 111.728 37.78 112.608 37.46C112.768 37.42 113.028 37.4 113.388 37.4C113.348 37.52 113.328 37.64 113.328 37.76C113.328 37.8 113.368 37.86 113.448 37.94C113.368 38.18 113.308 38.36 113.268 38.48C113.388 38.6 113.528 38.76 113.688 38.96C113.848 39.12 113.968 39.24 114.048 39.32C114.288 39.64 114.328 39.94 114.168 40.22C114.128 40.3 114.108 40.42 114.108 40.58C114.028 41.22 113.708 41.68 113.148 41.96C112.068 42.4 111.168 42.64 110.448 42.68C109.848 42.76 109.448 42.88 109.248 43.04C109.088 43.12 108.788 43.16 108.348 43.16C108.228 43.16 108.068 43.16 107.868 43.16C107.708 43.12 107.548 43.1 107.388 43.1C107.228 43.06 107.068 43.02 106.908 42.98C105.388 42.66 104.368 42.3 103.848 41.9L103.368 41.66C103.248 41.58 103.068 41.48 102.828 41.36C102.788 41.28 102.708 41.18 102.588 41.06C102.468 40.94 102.388 40.84 102.348 40.76C102.308 40.76 102.248 40.72 102.168 40.64C102.128 40.56 102.088 40.5 102.048 40.46C101.608 39.98 101.148 39.32 100.668 38.48C100.548 38.28 100.328 37.56 100.008 36.32C99.7677 35.68 99.6477 34.72 99.6477 33.44C99.6477 33.12 99.6677 32.64 99.7077 32C99.7477 31.32 99.7877 30.82 99.8277 30.5C99.8277 30.38 99.8077 30.22 99.7677 30.02C99.7677 29.82 99.7677 29.68 99.7677 29.6C99.7677 29.24 99.7677 28.74 99.7677 28.1C99.8077 27.42 99.8277 26.92 99.8277 26.6C99.8277 26.04 99.8277 25.2 99.8277 24.08C99.8677 22.92 99.9077 22.06 99.9477 21.5C99.9877 20.66 100.048 19.44 100.128 17.84L100.488 13.16C100.568 11.8 100.648 10.78 100.728 10.1C100.968 8.1 101.168 6.52 101.328 5.36C101.328 5.2 101.348 4.96 101.388 4.64C101.468 4.32 101.528 4.06 101.568 3.86C101.688 3.22 102.128 2.86 102.888 2.78C103.008 2.74 103.188 2.72 103.428 2.72C103.708 2.72 103.908 2.7 104.028 2.66C104.148 2.66 104.308 2.64 104.508 2.6C104.748 2.56 104.948 2.54 105.108 2.54C105.308 2.5 105.488 2.48 105.648 2.48C106.168 2.44 106.948 2.42 107.988 2.42C108.028 2.42 108.128 2.42 108.288 2.42C108.448 2.38 108.548 2.36 108.588 2.36H110.088C110.328 2.36 110.688 2.4 111.168 2.48C111.648 2.56 112.008 2.62 112.248 2.66L112.968 2.84C113.168 2.92 113.268 3 113.268 3.08C113.348 3.28 113.628 3.42 114.108 3.5C114.188 3.5 114.268 3.52 114.348 3.56C114.468 3.6 114.568 3.64 114.648 3.68C114.768 3.68 114.888 3.68 115.008 3.68C115.008 3.72 114.988 3.8 114.948 3.92C114.948 4 114.928 4.06 114.888 4.1C114.848 4.1 114.828 4.08 114.828 4.04L114.288 4.58L114.348 4.64C114.108 4.72 113.928 4.76 113.808 4.76C113.688 4.76 113.608 4.74 113.568 4.7V4.82C113.248 4.9 113.028 4.94 112.908 4.94C112.748 4.94 112.068 5.04 110.868 5.24C110.588 5.32 110.248 5.4 109.848 5.48C109.808 5.48 109.748 5.48 109.668 5.48L109.548 5.42C109.388 5.5 109.008 5.54 108.408 5.54C107.808 5.54 107.468 5.54 107.388 5.54C106.908 5.62 106.268 5.74 105.468 5.9C105.148 5.9 105.028 6.06 105.108 6.38C105.148 6.62 105.068 7.38 104.868 8.66C104.828 8.78 104.808 8.96 104.808 9.2C104.808 9.44 104.788 9.62 104.748 9.74C104.708 9.86 104.688 10.04 104.688 10.28C104.688 10.48 104.668 10.64 104.628 10.76C104.628 10.84 104.648 10.94 104.688 11.06C104.728 11.14 104.748 11.2 104.748 11.24C104.788 11.52 104.808 11.92 104.808 12.44C104.888 13.24 104.928 13.86 104.928 14.3C104.928 14.42 104.908 14.58 104.868 14.78C104.828 14.98 104.808 15.12 104.808 15.2C104.808 15.36 104.808 15.58 104.808 15.86C104.848 16.14 104.868 16.34 104.868 16.46V16.82V19.4C104.868 19.48 104.848 19.6 104.808 19.76C104.808 19.92 104.808 20.02 104.808 20.06C104.768 20.3 104.648 20.36 104.448 20.24L104.088 20.06C104.128 20.38 104.408 20.62 104.928 20.78C105.008 20.82 105.128 20.84 105.288 20.84C105.488 20.8 105.908 20.74 106.548 20.66C107.188 20.54 107.688 20.46 108.048 20.42C108.488 20.38 109.068 20.4 109.788 20.48C110.748 20.56 111.488 20.64 112.008 20.72C112.208 20.76 112.488 20.82 112.848 20.9C113.248 20.98 113.528 21.04 113.688 21.08C113.808 21.36 113.728 21.62 113.448 21.86C113.328 21.98 113.188 22.2 113.028 22.52L112.668 22.88L112.728 23V23.12V23.18C112.688 23.22 112.528 23.38 112.248 23.66C111.968 23.9 111.708 24.06 111.468 24.14C111.268 24.18 110.968 24.2 110.568 24.2C110.208 24.2 109.928 24.24 109.728 24.32C108.968 24.52 107.688 24.54 105.888 24.38H104.868C104.788 24.42 104.648 24.54 104.448 24.74C104.488 24.82 104.508 24.9 104.508 24.98H104.448C104.448 25.14 104.448 25.38 104.448 25.7C104.488 25.98 104.508 26.2 104.508 26.36L104.568 26.42C104.568 26.46 104.568 26.5 104.568 26.54H104.508C104.588 28.86 104.648 30.64 104.688 31.88C104.848 32 104.888 32.36 104.808 32.96L104.868 33.02C104.908 33.06 104.928 33.1 104.928 33.14V34.82H105.048C105.048 34.9 105.088 35.02 105.168 35.18C105.248 35.98 105.328 36.58 105.408 36.98C105.448 37.26 105.548 37.58 105.708 37.94V38.12ZM103.788 37.16C103.708 37.16 103.608 37.2 103.488 37.28C103.368 37.36 103.288 37.4 103.248 37.4L103.548 37.7L103.608 37.64C103.768 37.72 103.908 37.78 104.028 37.82C104.028 37.74 104.048 37.68 104.088 37.64L103.908 37.58C103.868 37.54 103.828 37.48 103.788 37.4L103.728 37.34C103.728 37.26 103.748 37.2 103.788 37.16ZM104.928 38.18C104.968 38.14 105.048 38.12 105.168 38.12C105.288 38.12 105.388 38.1 105.468 38.06V37.88C105.428 37.84 105.368 37.8 105.288 37.76C105.208 37.68 105.148 37.62 105.108 37.58C105.028 37.82 104.968 38.02 104.928 38.18ZM103.068 20.36L103.128 20.3C102.968 20.06 102.848 19.86 102.768 19.7C102.728 19.78 102.708 19.86 102.708 19.94C102.788 20.06 102.908 20.2 103.068 20.36ZM136.168 41.78C136.288 41.98 136.308 42.38 136.228 42.98C136.188 43.14 136.168 43.4 136.168 43.76H136.048C135.968 43.8 135.908 43.82 135.868 43.82C135.708 43.78 135.468 43.74 135.148 43.7C134.828 43.62 134.588 43.56 134.428 43.52C133.228 43.16 132.148 42.36 131.188 41.12C130.868 40.72 130.428 40.14 129.868 39.38C129.348 38.58 129.028 38.1 128.908 37.94C128.308 37.14 127.428 35.76 126.268 33.8C126.028 33.36 125.628 32.74 125.068 31.94C124.508 31.1 124.188 30.6 124.107 30.44C123.948 30.16 123.708 29.76 123.388 29.24C123.108 28.72 122.888 28.34 122.728 28.1C122.728 28.06 122.668 28.02 122.548 27.98C122.468 27.9 122.408 27.82 122.368 27.74C122.248 27.98 122.188 28.18 122.188 28.34C122.148 29.1 122.088 30.28 122.008 31.88C121.928 32.68 121.908 33.3 121.948 33.74C121.948 34.1 121.968 34.68 122.008 35.48C122.048 36.24 122.068 36.82 122.068 37.22C121.988 38.98 121.908 40.26 121.828 41.06C121.828 41.18 121.788 41.32 121.708 41.48C121.668 41.6 121.608 41.8 121.528 42.08C121.488 42.32 121.448 42.5 121.408 42.62C121.368 42.58 121.308 42.52 121.228 42.44C121.188 42.32 121.168 42.24 121.168 42.2C120.928 42.24 120.768 42.4 120.688 42.68C120.608 42.96 120.528 43.14 120.448 43.22C119.848 43.22 119.488 43.2 119.368 43.16C119.088 43.12 118.868 42.94 118.708 42.62C118.428 42.14 118.288 41.38 118.288 40.34C118.288 39.7 118.248 38.78 118.167 37.58C118.167 36.62 118.128 35.14 118.048 33.14C118.048 33.02 118.068 32.72 118.108 32.24C118.148 31.76 118.148 31.38 118.108 31.1C118.108 30.86 118.088 30.5 118.048 30.02C118.008 29.5 117.988 29.12 117.988 28.88C117.988 28.24 118.028 27.24 118.108 25.88C118.108 25.6 118.088 25.18 118.048 24.62C118.008 24.06 117.988 23.62 117.988 23.3L118.167 20.6C118.167 20.4 118.167 20.12 118.167 19.76C118.208 19.36 118.228 19.06 118.228 18.86C118.228 18.18 118.248 17.16 118.288 15.8C118.328 14.4 118.348 13.36 118.348 12.68C118.348 11.04 118.368 9.8 118.408 8.96C118.408 8.68 118.448 8.26 118.528 7.7C118.608 7.1 118.668 6.64 118.708 6.32C118.708 6.04 118.728 5.62 118.768 5.06C118.808 4.46 118.848 4.02 118.888 3.74C118.888 3.58 118.928 3.34 119.008 3.02C120.328 3.3 121.268 3.74 121.828 4.34C121.868 4.3 121.928 4.28 122.008 4.28C122.128 4.28 122.208 4.26 122.248 4.22C123.408 3.62 124.608 3.44 125.848 3.68C126.408 3.8 127.088 3.96 127.888 4.16C128.928 4.52 129.748 5.04 130.348 5.72C130.388 5.84 130.448 6.02 130.528 6.26C130.648 6.5 130.728 6.66 130.768 6.74C130.808 6.94 130.908 7.1 131.068 7.22C131.588 7.54 131.808 7.98 131.728 8.54C131.728 8.66 131.748 8.84 131.788 9.08C131.828 9.32 131.848 9.5 131.848 9.62C131.848 11.1 131.788 12.02 131.668 12.38C131.628 12.5 131.607 12.66 131.607 12.86C131.607 13.02 131.607 13.16 131.607 13.28C131.568 13.4 131.468 13.66 131.308 14.06C131.188 14.42 131.088 14.72 131.008 14.96C130.848 15.68 130.708 16.22 130.588 16.58C130.468 16.94 130.308 17.32 130.108 17.72L129.748 18.44C129.668 18.6 129.408 19 128.968 19.64C128.888 19.76 128.768 19.98 128.608 20.3C128.488 20.62 128.388 20.84 128.308 20.96C128.308 21 128.288 21.06 128.248 21.14C128.208 21.18 128.168 21.22 128.128 21.26L127.828 21.56L127.768 21.62C127.768 21.66 127.748 21.7 127.708 21.74C127.708 21.78 127.688 21.8 127.648 21.8C127.088 22.16 126.588 22.5 126.148 22.82C126.028 22.9 125.688 23.22 125.128 23.78C125.088 23.82 124.988 23.92 124.828 24.08C124.668 24.2 124.548 24.3 124.468 24.38C124.548 24.42 124.628 24.48 124.708 24.56L125.308 25.1C125.668 25.46 125.928 25.74 126.088 25.94C126.288 26.18 126.528 26.52 126.808 26.96C127.088 27.4 127.268 27.68 127.348 27.8C128.388 29.36 128.968 30.24 129.088 30.44C129.128 30.52 129.168 30.62 129.208 30.74C129.248 30.82 129.288 30.92 129.328 31.04C129.368 31.16 129.408 31.26 129.448 31.34C129.568 31.5 129.728 31.72 129.928 32C130.168 32.28 130.328 32.5 130.408 32.66C130.728 33.06 130.868 33.36 130.828 33.56C130.788 33.72 130.908 33.98 131.188 34.34C131.948 35.66 132.468 36.52 132.748 36.92C132.948 37.2 133.248 37.6 133.648 38.12C134.048 38.6 134.308 38.92 134.428 39.08C134.508 39.24 134.648 39.5 134.848 39.86C135.048 40.18 135.208 40.42 135.328 40.58C135.368 40.66 135.648 41.06 136.168 41.78ZM122.368 21.14C123.208 20.06 124.068 18.9 124.948 17.66C125.188 17.3 125.548 16.74 126.028 15.98C126.548 15.22 126.948 14.66 127.228 14.3C127.748 13.54 128.068 12.7 128.188 11.78C128.228 11.58 128.268 11.26 128.308 10.82C128.348 10.34 128.368 10.08 128.368 10.04C128.448 9.32 128.408 8.8 128.248 8.48C128.088 7.96 127.908 7.6 127.708 7.4C126.948 6.64 126.048 6.42 125.007 6.74C124.808 6.82 124.428 6.9 123.868 6.98C123.308 7.14 122.888 7.28 122.608 7.4C122.368 7.48 122.208 7.8 122.128 8.36C122.128 8.52 122.088 8.84 122.008 9.32C121.928 9.76 121.888 10.1 121.888 10.34C121.888 10.62 121.888 11.06 121.888 11.66C121.928 12.22 121.928 12.66 121.888 12.98C121.888 13.18 121.868 13.56 121.828 14.12C121.788 14.68 121.788 15.12 121.828 15.44C121.828 15.6 121.808 16.16 121.768 17.12C121.728 18.04 121.728 18.58 121.768 18.74C121.808 19.02 121.828 19.42 121.828 19.94C121.868 20.46 121.888 20.86 121.888 21.14C121.888 21.18 121.948 21.3 122.068 21.5C122.108 21.46 122.148 21.4 122.188 21.32C122.268 21.24 122.328 21.18 122.368 21.14ZM143.283 43.16C143.243 43.16 143.163 43.18 143.043 43.22C142.963 43.26 142.903 43.28 142.863 43.28C142.863 43.24 142.883 43.2 142.923 43.16C141.963 42.92 141.263 42.74 140.823 42.62C139.823 42.34 139.303 41.8 139.263 41C139.263 40.72 139.243 40.32 139.203 39.8C139.163 39.24 139.123 38.82 139.083 38.54C139.083 38.42 139.103 38.22 139.143 37.94C139.183 37.62 139.203 37.38 139.203 37.22C139.203 37.1 139.163 36.88 139.083 36.56V33.44C139.083 32.96 139.063 32.24 139.023 31.28C139.023 30.32 139.023 29.6 139.023 29.12C139.023 28.88 139.023 28.52 139.023 28.04C139.063 27.56 139.083 27.2 139.083 26.96V25.1C139.163 23.98 139.203 23.16 139.203 22.64C139.243 22.08 139.263 21.22 139.263 20.06C139.263 19.58 139.223 18.82 139.143 17.78V14.96L139.383 14.84V14.48C139.343 14.48 139.283 14.5 139.203 14.54C139.083 9.86 139.063 7.18 139.143 6.5C139.063 4.74 139.023 3.42 139.023 2.54C139.703 2.38 140.263 2.42 140.703 2.66C140.863 2.74 141.083 2.86 141.363 3.02C141.683 3.18 141.923 3.3 142.083 3.38C142.523 3.58 142.703 3.92 142.623 4.4V5.48C142.623 5.84 142.643 6.1 142.683 6.26C142.683 6.38 142.703 6.54 142.743 6.74C142.783 6.94 142.803 7.08 142.803 7.16C142.883 7.96 142.923 8.58 142.923 9.02C142.923 9.22 142.903 9.52 142.863 9.92C142.823 10.32 142.803 10.6 142.803 10.76C142.803 11.2 142.843 11.78 142.923 12.5C143.083 13.5 143.183 14.3 143.223 14.9C143.223 15.06 143.203 15.28 143.163 15.56C143.163 15.84 143.163 16.04 143.163 16.16C143.163 16.24 143.163 16.42 143.163 16.7C143.203 16.94 143.243 17.12 143.283 17.24C143.363 17.44 143.403 17.66 143.403 17.9C143.443 18.1 143.463 18.34 143.463 18.62C143.463 18.86 143.463 19.06 143.463 19.22C143.503 19.38 143.543 19.62 143.583 19.94C143.663 20.26 143.703 20.48 143.703 20.6C143.663 20.64 143.623 20.66 143.583 20.66C143.703 21.26 143.763 21.58 143.763 21.62C143.803 22.18 143.863 22.98 143.943 24.02V25.52V27.62V29.06C143.943 29.46 143.903 30.1 143.823 30.98V33.8C143.823 33.84 143.843 33.88 143.883 33.92C143.843 34.04 143.823 34.2 143.823 34.4V36.44C143.823 36.76 143.823 37.22 143.823 37.82C143.863 38.42 143.883 38.86 143.883 39.14C143.883 39.78 143.803 40.2 143.643 40.4C143.563 40.52 143.523 40.78 143.523 41.18C143.483 41.34 143.463 41.56 143.463 41.84C143.463 42 143.443 42.24 143.403 42.56C143.363 42.84 143.323 43.04 143.283 43.16ZM141.483 41C141.323 40.84 141.203 40.74 141.123 40.7C141.083 40.74 141.043 40.82 141.003 40.94C140.963 41.02 140.943 41.08 140.943 41.12H141.183V41.54C141.223 41.54 141.283 41.52 141.363 41.48H141.483L141.663 41.84L141.783 41.9C141.863 41.94 141.903 41.98 141.903 42.02L141.963 41.96C142.003 41.92 142.043 41.88 142.083 41.84C142.003 41.6 141.943 41.4 141.903 41.24C141.943 41.16 141.963 41.1 141.963 41.06C141.923 41.02 141.903 41 141.903 41C141.903 40.92 141.883 40.88 141.843 40.88L141.423 41.3C141.423 41.26 141.403 41.24 141.363 41.24C141.363 41.24 141.363 41.22 141.363 41.18C141.403 41.14 141.423 41.12 141.423 41.12C141.423 41.04 141.443 41 141.483 41ZM140.163 22.4C140.083 22.4 139.983 22.42 139.863 22.46C139.743 22.5 139.643 22.54 139.563 22.58C139.603 22.62 139.663 22.68 139.743 22.76C139.823 22.8 139.883 22.84 139.923 22.88C139.963 22.92 140.003 22.94 140.043 22.94H140.283C140.363 23.02 140.443 23.08 140.523 23.12C140.443 22.64 140.363 22.28 140.283 22.04C140.203 22.2 140.163 22.32 140.163 22.4ZM141.423 10.88C141.423 10.72 141.403 10.62 141.363 10.58C141.323 10.54 141.243 10.52 141.123 10.52C141.043 10.52 140.963 10.5 140.883 10.46C140.883 10.5 140.863 10.56 140.823 10.64C140.823 10.72 140.823 10.78 140.823 10.82C140.903 10.86 140.963 10.9 141.003 10.94V11.12L141.183 11C141.263 10.96 141.343 10.92 141.423 10.88ZM140.223 15.92H140.103C140.143 16 140.163 16.14 140.163 16.34C140.203 16.5 140.223 16.62 140.223 16.7C140.263 16.66 140.363 16.6 140.523 16.52L140.223 15.92ZM140.703 33.38C140.703 33.34 140.723 33.32 140.763 33.32C140.763 33.28 140.763 33.24 140.763 33.2C140.803 33.12 140.823 33.06 140.823 33.02L140.583 32.78C140.543 32.78 140.503 32.8 140.463 32.84C140.463 32.92 140.503 33.02 140.583 33.14C140.663 33.26 140.703 33.34 140.703 33.38ZM139.983 32.48C140.023 32.48 140.063 32.48 140.103 32.48L140.223 32.42C140.143 32.18 140.083 32.02 140.043 31.94C139.963 32.1 139.883 32.22 139.803 32.3C139.843 32.3 139.903 32.36 139.983 32.48ZM141.003 12.74H140.823C140.823 12.78 140.803 12.86 140.763 12.98C140.763 13.1 140.763 13.18 140.763 13.22C140.923 13.22 141.003 13.18 141.003 13.1V12.74ZM139.623 24.32C139.623 24.36 139.583 24.38 139.503 24.38C139.503 24.54 139.523 24.64 139.563 24.68C139.563 24.72 139.643 24.74 139.803 24.74C139.803 24.7 139.823 24.68 139.863 24.68C139.783 24.52 139.703 24.4 139.623 24.32ZM167.739 14.66C167.739 15.22 167.719 15.64 167.679 15.92C167.599 17.04 167.559 17.86 167.559 18.38C167.559 18.58 167.579 18.86 167.619 19.22C167.659 19.54 167.679 19.78 167.679 19.94C167.679 20.18 167.659 20.52 167.619 20.96C167.579 21.36 167.559 21.66 167.559 21.86C167.559 22.22 167.539 22.76 167.499 23.48C167.459 24.2 167.439 24.74 167.439 25.1C167.399 25.58 167.339 26.34 167.259 27.38C167.219 27.82 167.199 28.46 167.199 29.3C167.119 31.22 167.059 32.64 167.019 33.56C166.939 34.92 166.819 35.92 166.659 36.56C166.659 36.64 166.619 36.88 166.539 37.28C166.499 37.68 166.459 37.96 166.419 38.12C166.379 38.28 166.279 38.5 166.119 38.78C165.999 39.02 165.819 39.24 165.579 39.44C165.499 39.48 165.399 39.68 165.279 40.04C165.239 40.24 165.159 40.56 165.039 41C164.959 41.44 164.879 41.76 164.799 41.96C164.159 42.76 163.659 43.36 163.299 43.76L163.059 44C162.059 44.56 161.139 44.84 160.299 44.84C160.059 44.88 159.719 44.9 159.279 44.9C158.319 45.02 157.139 44.76 155.739 44.12C154.499 43.48 153.259 42.52 152.019 41.24C151.099 40.32 150.379 39.1 149.859 37.58C149.619 36.98 149.419 36.34 149.259 35.66C149.099 34.98 148.939 34.18 148.779 33.26C148.659 32.3 148.559 31.64 148.479 31.28C148.359 30.8 148.279 30.3 148.239 29.78C148.199 29.22 148.179 28.62 148.179 27.98C148.179 27.34 148.159 26.84 148.119 26.48C147.919 24.12 147.859 22.54 147.939 21.74V18.74C147.939 18.46 147.919 18.06 147.879 17.54C147.879 17.02 147.879 16.62 147.879 16.34C147.839 15.94 147.799 15.4 147.759 14.72C147.719 14 147.679 13.36 147.639 12.8C147.599 12.2 147.559 11.64 147.519 11.12C147.599 11.16 147.659 11.2 147.699 11.24C147.739 11.24 147.779 11.26 147.819 11.3C147.659 11.02 147.579 10.24 147.579 8.96C147.619 8.96 147.639 8.98 147.639 9.02L147.759 9.08V8.78C147.639 8.66 147.579 8.28 147.579 7.64C147.499 7 147.499 6.38 147.579 5.78C147.579 5.3 147.639 4.88 147.759 4.52C147.879 4.36 148.139 4.02 148.539 3.5C149.099 3.34 149.659 3.36 150.219 3.56C150.819 3.76 151.199 4.08 151.359 4.52L151.299 4.82C151.379 7.06 151.419 8.54 151.419 9.26C151.739 10.78 151.859 11.78 151.779 12.26C151.739 12.38 151.779 12.8 151.899 13.52C151.939 13.64 151.959 13.84 151.959 14.12C151.959 14.16 151.979 14.48 152.019 15.08C152.099 15.68 152.139 16.12 152.139 16.4C152.139 16.64 152.119 17.12 152.079 17.84C152.039 18.52 152.039 19.04 152.079 19.4C152.079 19.48 152.059 19.88 152.019 20.6C152.019 21.28 152.079 21.66 152.199 21.74C152.239 21.82 152.199 22.12 152.079 22.64C152.079 22.88 152.099 23.24 152.139 23.72C152.219 24.2 152.279 24.58 152.319 24.86C152.319 25.14 152.359 25.54 152.439 26.06C152.519 26.58 152.559 26.98 152.559 27.26C152.599 27.62 152.639 28.16 152.679 28.88C152.719 29.6 152.759 30.14 152.799 30.5C152.799 30.66 152.819 30.84 152.859 31.04C152.899 31.24 152.939 31.48 152.979 31.76C153.019 32 153.059 32.22 153.099 32.42C153.179 32.86 153.339 33.64 153.579 34.76C153.579 34.8 153.599 34.9 153.639 35.06C153.679 35.22 153.699 35.34 153.699 35.42C153.699 35.78 153.879 36.4 154.239 37.28C154.279 37.36 154.319 37.48 154.359 37.64C154.399 37.8 154.439 37.92 154.479 38C154.599 38.24 154.759 38.46 154.959 38.66C155.159 38.82 155.339 38.96 155.499 39.08C155.659 39.2 155.879 39.34 156.159 39.5C156.479 39.66 156.699 39.78 156.819 39.86C157.019 39.94 157.159 39.96 157.239 39.92C158.039 39.72 158.679 39.38 159.159 38.9C159.719 38.3 160.219 37.58 160.659 36.74C160.899 36.34 161.139 35.8 161.379 35.12L161.739 33.32V33.08C161.699 32.76 161.719 32.32 161.799 31.76C161.919 31.2 161.979 30.86 161.979 30.74V30.26C161.979 30.1 161.979 29.88 161.979 29.6C162.019 29.28 162.039 29.04 162.039 28.88C162.039 28.6 162.079 28.18 162.159 27.62C162.239 27.06 162.279 26.64 162.279 26.36C162.439 25.08 162.539 24.12 162.579 23.48C162.659 22.32 162.739 20.62 162.819 18.38C162.859 18.02 162.899 17.5 162.939 16.82C163.019 16.1 163.059 15.58 163.059 15.26V13.64C163.099 13.2 163.139 12.54 163.179 11.66C163.219 10.74 163.239 10.04 163.239 9.56V6.74C163.239 6.42 163.259 5.94 163.299 5.3C163.339 4.66 163.359 4.18 163.359 3.86C163.359 3.7 163.399 3.54 163.479 3.38C164.119 3.18 164.659 3.3 165.099 3.74C165.539 4.26 165.979 4.44 166.419 4.28C167.139 5.28 167.499 6.22 167.499 7.1C167.539 7.58 167.559 8.3 167.559 9.26C167.559 10.22 167.559 10.96 167.559 11.48C167.559 11.8 167.559 12.14 167.559 12.5C167.599 12.82 167.639 13.2 167.679 13.64C167.719 14.08 167.739 14.42 167.739 14.66ZM163.299 25.58C163.619 25.7 163.779 25.64 163.779 25.4C163.739 25.36 163.719 25.32 163.719 25.28C163.479 25.44 163.339 25.54 163.299 25.58ZM171.486 0.799998C171.606 0.799998 171.926 0.839998 172.446 0.919997C172.966 0.999998 173.406 1.08 173.766 1.16C173.966 1.08 174.346 1.28 174.906 1.76C174.986 1.8 175.066 1.9 175.146 2.06C175.226 2.22 175.266 2.32 175.266 2.36C175.386 2.52 175.606 2.76 175.926 3.08C175.966 3.08 175.986 3.06 175.986 3.02C176.026 3.1 176.466 3.92 177.306 5.48C177.306 5.52 177.346 5.66 177.426 5.9C177.506 6.14 177.586 6.32 177.666 6.44C177.706 6.52 177.766 6.68 177.846 6.92C177.966 7.12 178.046 7.28 178.086 7.4C178.086 7.44 178.106 7.52 178.146 7.64C178.186 7.72 178.226 7.78 178.266 7.82C178.306 7.9 178.346 8 178.386 8.12C178.466 8.2 178.526 8.3 178.566 8.42C178.606 8.54 178.646 8.62 178.686 8.66C178.766 8.86 178.886 9.16 179.046 9.56C179.246 9.92 179.386 10.2 179.466 10.4C179.546 10.56 179.646 10.8 179.766 11.12C179.886 11.44 179.986 11.68 180.066 11.84C180.146 12 180.226 12.12 180.306 12.2C180.346 12.32 180.506 12.7 180.786 13.34C181.066 13.94 181.286 14.44 181.446 14.84C181.726 15.28 182.026 15.98 182.346 16.94C182.666 17.9 182.906 18.58 183.066 18.98C183.106 19.02 183.166 19.04 183.246 19.04C183.326 18.6 183.486 17.94 183.726 17.06C183.766 16.78 183.866 16.36 184.026 15.8C184.106 15.48 184.246 15 184.446 14.36C184.646 13.72 184.786 13.24 184.866 12.92C185.146 12.12 185.306 11.6 185.346 11.36C185.626 10.44 185.786 9.88 185.826 9.68C185.866 9.56 186.006 9.08 186.246 8.24C186.486 7.4 186.646 6.76 186.726 6.32C186.886 5.68 186.966 5.18 186.966 4.82C186.966 4.46 187.126 3.96 187.446 3.32C187.566 3.08 187.766 2.52 188.046 1.64C188.366 0.919998 188.566 0.519998 188.646 0.439999C188.766 0.479999 188.906 0.539998 189.066 0.619997C189.106 0.579998 189.146 0.519998 189.186 0.439999C189.266 0.359998 189.326 0.299998 189.366 0.259998H189.426C189.546 0.299998 189.706 0.379998 189.906 0.499999C190.146 0.579998 190.306 0.639997 190.386 0.679996C190.426 0.719998 190.506 0.779999 190.626 0.859998C190.746 0.899997 190.846 0.939998 190.926 0.98C191.286 1.14 191.566 1.46 191.766 1.94C191.806 2.02 191.886 2.14 192.006 2.3C192.126 2.46 192.206 2.58 192.246 2.66C192.486 3.38 192.586 3.96 192.546 4.4C192.546 4.44 192.546 4.5 192.546 4.58C192.586 4.66 192.626 4.76 192.666 4.88C192.706 4.96 192.726 5.02 192.726 5.06L192.906 7.22C192.906 7.3 192.906 7.44 192.906 7.64C192.946 7.8 192.966 7.92 192.966 8C193.006 8.6 193.026 9.48 193.026 10.64C193.106 11.68 193.166 12.48 193.206 13.04V14.9C193.206 15.06 193.246 15.34 193.326 15.74V16.1C193.446 16.42 193.506 16.9 193.506 17.54V18.68V21.08C193.506 21.64 193.526 22.08 193.566 22.4V23.42C193.566 23.46 193.566 23.52 193.566 23.6C193.606 23.68 193.626 23.74 193.626 23.78V24.2V26.12H193.746V26.9V27.92V28.52C193.786 28.72 193.806 29.02 193.806 29.42C193.806 29.54 193.806 29.76 193.806 30.08C193.846 30.36 193.866 30.58 193.866 30.74V32.24V33.86C193.866 34.02 193.866 34.26 193.866 34.58C193.906 34.9 193.926 35.12 193.926 35.24C193.926 35.36 193.926 35.5 193.926 35.66C193.966 35.82 193.986 35.94 193.986 36.02C194.026 36.34 194.066 36.78 194.106 37.34C194.186 37.9 194.226 38.32 194.226 38.6C194.306 39.56 194.346 40.28 194.346 40.76V42.5C194.346 42.74 194.306 43.1 194.226 43.58C194.186 43.82 194.086 44.22 193.926 44.78C193.806 45.02 193.606 45.14 193.326 45.14C193.206 45.1 193.046 45.08 192.846 45.08C192.686 45.08 192.566 45.06 192.486 45.02C192.166 45.02 191.926 44.8 191.766 44.36C191.646 44.12 191.466 43.8 191.226 43.4C190.786 42.8 190.566 42.3 190.566 41.9C190.566 41.3 190.526 40.44 190.446 39.32C190.406 39.08 190.346 38.74 190.266 38.3C190.226 37.86 190.206 37.52 190.206 37.28C190.206 37.12 190.206 36.86 190.206 36.5C190.246 36.1 190.266 35.8 190.266 35.6C190.266 35.44 190.246 35.2 190.206 34.88C190.166 34.52 190.146 34.24 190.146 34.04C190.146 33.8 190.166 33.46 190.206 33.02C190.246 32.54 190.266 32.18 190.266 31.94C190.266 31.78 190.246 31.52 190.206 31.16C190.166 30.76 190.146 30.46 190.146 30.26V29.12V26.9C190.106 26.62 190.086 26.2 190.086 25.64C190.086 25.04 190.086 24.6 190.086 24.32C190.086 23.4 190.026 22.46 189.906 21.5C189.906 21.38 189.886 21.2 189.846 20.96C189.806 20.68 189.786 20.46 189.786 20.3V19.16C189.786 19.04 189.766 18.86 189.726 18.62C189.726 18.34 189.726 18.12 189.726 17.96C189.726 17.84 189.726 17.66 189.726 17.42C189.766 17.14 189.786 16.94 189.786 16.82C189.786 16.62 189.766 16.36 189.726 16.04C189.726 15.68 189.726 15.42 189.726 15.26C189.726 15.1 189.726 14.88 189.726 14.6C189.766 14.32 189.786 14.12 189.786 14V10.34C189.786 9.78 189.826 8.98 189.906 7.94C189.906 7.78 189.866 7.66 189.786 7.58C189.786 7.62 189.766 7.64 189.726 7.64C189.726 7.64 189.726 7.66 189.726 7.7C189.646 7.9 189.546 8.2 189.426 8.6C189.346 8.96 189.286 9.22 189.246 9.38C189.126 9.98 189.046 10.34 189.006 10.46L188.646 11.9C188.646 11.94 188.626 12.02 188.586 12.14C188.586 12.26 188.586 12.36 188.586 12.44C188.586 12.52 188.526 12.74 188.406 13.1C188.326 13.42 188.266 13.66 188.226 13.82C188.186 13.98 188.126 14.22 188.046 14.54C188.006 14.82 187.966 15.04 187.926 15.2V15.38C187.886 15.54 187.826 15.78 187.746 16.1C187.706 16.42 187.666 16.66 187.626 16.82C187.506 17.22 187.426 17.48 187.386 17.6C187.226 18.48 187.086 19.12 186.966 19.52L186.606 20.42C186.526 20.74 186.446 21.14 186.366 21.62C186.286 22.18 186.206 22.64 186.126 23L185.946 23.54L185.586 24.62C185.426 25.18 185.286 25.6 185.166 25.88C185.006 26.28 184.826 26.56 184.626 26.72C184.586 26.76 184.506 26.86 184.386 27.02C184.266 27.18 184.146 27.3 184.026 27.38C183.946 27.42 183.826 27.44 183.666 27.44C183.386 27.44 183.146 27.34 182.946 27.14C182.666 26.9 182.426 26.62 182.226 26.3C181.746 25.42 181.386 24.78 181.146 24.38C180.706 23.34 180.446 22.78 180.366 22.7C180.206 22.46 180.046 22.2 179.886 21.92C179.766 21.6 179.626 21.26 179.466 20.9C179.306 20.5 179.186 20.2 179.106 20C179.026 19.84 178.866 19.54 178.626 19.1C178.426 18.62 178.266 18.24 178.146 17.96C177.986 17.52 177.746 16.82 177.426 15.86C177.346 15.66 177.206 15.36 177.006 14.96C176.846 14.52 176.726 14.18 176.646 13.94C176.526 13.58 176.266 12.78 175.866 11.54C175.826 11.42 175.746 11.24 175.626 11C175.546 10.72 175.486 10.52 175.446 10.4C175.406 10.28 175.326 10.1 175.206 9.86C175.126 9.62 175.066 9.44 175.026 9.32V9.08C174.986 8.96 174.906 8.78 174.786 8.54C174.706 8.26 174.626 8.06 174.546 7.94H174.426V8.42C174.466 8.58 174.506 8.78 174.546 9.02C174.626 9.26 174.666 9.44 174.666 9.56C174.706 9.88 174.726 10.36 174.726 11C174.726 11.64 174.746 12.12 174.786 12.44C174.786 12.56 174.786 12.76 174.786 13.04C174.826 13.28 174.846 13.46 174.846 13.58C174.926 14.3 174.966 14.82 174.966 15.14C174.966 15.26 174.946 15.44 174.906 15.68C174.906 15.92 174.906 16.08 174.906 16.16C174.906 16.32 174.906 16.52 174.906 16.76C174.946 17 174.966 17.2 174.966 17.36C174.966 17.4 174.946 17.44 174.906 17.48H174.966C174.886 17.8 174.846 18.02 174.846 18.14C174.846 18.18 174.886 18.36 174.966 18.68L174.906 18.74C174.946 18.94 174.986 19.24 175.026 19.64C175.106 20 175.166 20.28 175.206 20.48L175.146 20.54V22.34C175.106 22.82 175.086 23.54 175.086 24.5H175.206C175.166 24.54 175.146 24.6 175.146 24.68H175.206C175.206 25.12 175.226 25.78 175.266 26.66C175.346 27.54 175.406 28.2 175.446 28.64C175.526 28.84 175.566 29.3 175.566 30.02C175.526 30.22 175.506 30.52 175.506 30.92C175.546 31.16 175.586 31.54 175.626 32.06C175.666 32.54 175.706 32.9 175.746 33.14C175.786 33.34 175.806 33.64 175.806 34.04C175.806 34.44 175.806 34.74 175.806 34.94C175.806 35.1 175.806 35.34 175.806 35.66C175.846 35.94 175.866 36.16 175.866 36.32C175.946 36.88 175.946 37.46 175.866 38.06V39.62C175.866 39.7 175.846 39.84 175.806 40.04C175.766 40.24 175.766 40.4 175.806 40.52C175.846 40.8 175.866 41.2 175.866 41.72C175.866 42.24 175.866 42.64 175.866 42.92C175.906 43.16 175.806 43.34 175.566 43.46C175.566 43.5 175.546 43.52 175.506 43.52C175.466 43.52 175.426 43.54 175.386 43.58C175.746 43.78 175.886 44.02 175.806 44.3C175.526 44.46 175.146 44.7 174.666 45.02C174.626 45.02 174.526 45.02 174.366 45.02C174.206 45.06 174.106 45.08 174.066 45.08C174.026 45.08 173.926 45.1 173.766 45.14C173.606 45.18 173.506 45.22 173.466 45.26C173.426 45.22 173.406 45.18 173.406 45.14C173.406 45.1 173.386 45.06 173.346 45.02C173.226 44.82 173.126 44.72 173.046 44.72C172.726 44.56 172.526 44.26 172.446 43.82C172.446 43.62 172.426 43.32 172.386 42.92C172.386 42.52 172.386 42.22 172.386 42.02V41.54V40.7L172.206 38.9C172.206 37.18 172.186 36.14 172.146 35.78C172.106 34.86 172.106 33.96 172.146 33.08C172.146 32.56 172.106 32.18 172.026 31.94C171.906 31.34 171.846 30.44 171.846 29.24C171.846 27.72 171.826 26.56 171.786 25.76C171.786 25.48 171.766 25.06 171.726 24.5C171.686 23.94 171.666 23.52 171.666 23.24C171.626 22.6 171.606 21.64 171.606 20.36C171.686 19.32 171.726 18.56 171.726 18.08C171.726 17.84 171.706 17.5 171.666 17.06C171.626 16.62 171.606 16.28 171.606 16.04C171.606 15.68 171.586 15.14 171.546 14.42C171.506 13.7 171.486 13.16 171.486 12.8C171.486 12.72 171.466 12.56 171.426 12.32C171.426 12.08 171.426 11.9 171.426 11.78C171.426 11.62 171.426 11.38 171.426 11.06C171.466 10.74 171.486 10.52 171.486 10.4C171.486 9.96 171.446 9.3 171.366 8.42C171.366 8.3 171.386 8.1 171.426 7.82C171.506 7.5 171.526 7.26 171.486 7.1C171.446 6.82 171.446 6.44 171.486 5.96C171.526 5.48 171.546 5.16 171.546 5C171.586 4.8 171.586 4.56 171.546 4.28C171.506 3.96 171.486 3.74 171.486 3.62C171.486 3.42 171.466 3.12 171.426 2.72C171.386 2.32 171.366 2.02 171.366 1.82C171.366 1.62 171.406 1.28 171.486 0.799998ZM174.786 6.2C174.826 6.2 174.846 6.2 174.846 6.2L174.966 6.14C174.966 6.1 174.946 6.04 174.906 5.96C174.866 5.88 174.846 5.82 174.846 5.78H174.786V6.5H174.846V6.26L174.786 6.2Z" fill="white"/>
</svg>
