<svg width="105" height="26" viewBox="0 0 105 26" fill="none" xmlns="http://www.w3.org/2000/svg">
<path d="M1.024 0.959999C1.088 0.959999 1.25867 0.981332 1.536 1.024C1.81333 1.06667 2.048 1.10933 2.24 1.152C2.34667 1.10933 2.54933 1.216 2.848 1.472C2.89067 1.49333 2.93333 1.54667 2.976 1.632C3.01867 1.71733 3.04 1.77067 3.04 1.792C3.104 1.87733 3.22133 2.00533 3.392 2.176C3.41333 2.176 3.424 2.16533 3.424 2.144C3.44533 2.18667 3.68 2.624 4.128 3.456C4.128 3.47733 4.14933 3.552 4.192 3.68C4.23467 3.808 4.27733 3.904 4.32 3.968C4.34133 4.01067 4.37333 4.096 4.416 4.224C4.48 4.33067 4.52267 4.416 4.544 4.48C4.544 4.50133 4.55467 4.544 4.576 4.608C4.59733 4.65067 4.61867 4.68267 4.64 4.704C4.66133 4.74667 4.68267 4.8 4.704 4.864C4.74667 4.90667 4.77867 4.96 4.8 5.024C4.82133 5.088 4.84267 5.13067 4.864 5.152C4.90667 5.25867 4.97067 5.41867 5.056 5.632C5.16267 5.824 5.23733 5.97333 5.28 6.08C5.32267 6.16533 5.376 6.29333 5.44 6.464C5.504 6.63467 5.55733 6.76267 5.6 6.848C5.64267 6.93333 5.68533 6.99733 5.728 7.04C5.74933 7.104 5.83467 7.30667 5.984 7.648C6.13333 7.968 6.25067 8.23467 6.336 8.448C6.48533 8.68267 6.64533 9.056 6.816 9.568C6.98667 10.08 7.11467 10.4427 7.2 10.656C7.22133 10.6773 7.25333 10.688 7.296 10.688C7.33867 10.4533 7.424 10.1013 7.552 9.632C7.57333 9.48267 7.62667 9.25867 7.712 8.96C7.75467 8.78933 7.82933 8.53333 7.936 8.192C8.04267 7.85067 8.11733 7.59467 8.16 7.424C8.30933 6.99733 8.39467 6.72 8.416 6.592C8.56533 6.10133 8.65067 5.80267 8.672 5.696C8.69333 5.632 8.768 5.376 8.896 4.928C9.024 4.48 9.10933 4.13867 9.152 3.904C9.23733 3.56267 9.28 3.296 9.28 3.104C9.28 2.912 9.36533 2.64533 9.536 2.304C9.6 2.176 9.70667 1.87733 9.856 1.408C10.0267 1.024 10.1333 0.810666 10.176 0.768C10.24 0.789333 10.3147 0.821332 10.4 0.863998C10.4213 0.842665 10.4427 0.810666 10.464 0.768C10.5067 0.725332 10.5387 0.693332 10.56 0.671999H10.592C10.656 0.693332 10.7413 0.735999 10.848 0.799999C10.976 0.842665 11.0613 0.874665 11.104 0.895998C11.1253 0.917332 11.168 0.949333 11.232 0.991999C11.296 1.01333 11.3493 1.03467 11.392 1.056C11.584 1.14133 11.7333 1.312 11.84 1.568C11.8613 1.61067 11.904 1.67466 11.968 1.76C12.032 1.84533 12.0747 1.90933 12.096 1.952C12.224 2.336 12.2773 2.64533 12.256 2.88C12.256 2.90133 12.256 2.93333 12.256 2.976C12.2773 3.01867 12.2987 3.072 12.32 3.136C12.3413 3.17867 12.352 3.21067 12.352 3.232L12.448 4.384C12.448 4.42667 12.448 4.50133 12.448 4.608C12.4693 4.69333 12.48 4.75733 12.48 4.8C12.5013 5.12 12.512 5.58933 12.512 6.208C12.5547 6.76267 12.5867 7.18933 12.608 7.488V8.48C12.608 8.56533 12.6293 8.71467 12.672 8.928V9.12C12.736 9.29067 12.768 9.54667 12.768 9.888V10.496V11.776C12.768 12.0747 12.7787 12.3093 12.8 12.48V13.024C12.8 13.0453 12.8 13.0773 12.8 13.12C12.8213 13.1627 12.832 13.1947 12.832 13.216V13.44V14.464H12.896V14.88V15.424V15.744C12.9173 15.8507 12.928 16.0107 12.928 16.224C12.928 16.288 12.928 16.4053 12.928 16.576C12.9493 16.7253 12.96 16.8427 12.96 16.928V17.728V18.592C12.96 18.6773 12.96 18.8053 12.96 18.976C12.9813 19.1467 12.992 19.264 12.992 19.328C12.992 19.392 12.992 19.4667 12.992 19.552C13.0133 19.6373 13.024 19.7013 13.024 19.744C13.0453 19.9147 13.0667 20.1493 13.088 20.448C13.1307 20.7467 13.152 20.9707 13.152 21.12C13.1947 21.632 13.216 22.016 13.216 22.272V23.2C13.216 23.328 13.1947 23.52 13.152 23.776C13.1307 23.904 13.0773 24.1173 12.992 24.416C12.928 24.544 12.8213 24.608 12.672 24.608C12.608 24.5867 12.5227 24.576 12.416 24.576C12.3307 24.576 12.2667 24.5653 12.224 24.544C12.0533 24.544 11.9253 24.4267 11.84 24.192C11.776 24.064 11.68 23.8933 11.552 23.68C11.3173 23.36 11.2 23.0933 11.2 22.88C11.2 22.56 11.1787 22.1013 11.136 21.504C11.1147 21.376 11.0827 21.1947 11.04 20.96C11.0187 20.7253 11.008 20.544 11.008 20.416C11.008 20.3307 11.008 20.192 11.008 20C11.0293 19.7867 11.04 19.6267 11.04 19.52C11.04 19.4347 11.0293 19.3067 11.008 19.136C10.9867 18.944 10.976 18.7947 10.976 18.688C10.976 18.56 10.9867 18.3787 11.008 18.144C11.0293 17.888 11.04 17.696 11.04 17.568C11.04 17.4827 11.0293 17.344 11.008 17.152C10.9867 16.9387 10.976 16.7787 10.976 16.672V16.064V14.88C10.9547 14.7307 10.944 14.5067 10.944 14.208C10.944 13.888 10.944 13.6533 10.944 13.504C10.944 13.0133 10.912 12.512 10.848 12C10.848 11.936 10.8373 11.84 10.816 11.712C10.7947 11.5627 10.784 11.4453 10.784 11.36V10.752C10.784 10.688 10.7733 10.592 10.752 10.464C10.752 10.3147 10.752 10.1973 10.752 10.112C10.752 10.048 10.752 9.952 10.752 9.824C10.7733 9.67467 10.784 9.568 10.784 9.504C10.784 9.39733 10.7733 9.25867 10.752 9.088C10.752 8.896 10.752 8.75733 10.752 8.672C10.752 8.58667 10.752 8.46933 10.752 8.32C10.7733 8.17067 10.784 8.064 10.784 8V6.048C10.784 5.74933 10.8053 5.32267 10.848 4.768C10.848 4.68267 10.8267 4.61867 10.784 4.576C10.784 4.59733 10.7733 4.608 10.752 4.608C10.752 4.608 10.752 4.61867 10.752 4.64C10.7093 4.74667 10.656 4.90667 10.592 5.12C10.5493 5.312 10.5173 5.45067 10.496 5.536C10.432 5.856 10.3893 6.048 10.368 6.112L10.176 6.88C10.176 6.90133 10.1653 6.944 10.144 7.008C10.144 7.072 10.144 7.12533 10.144 7.168C10.144 7.21067 10.112 7.328 10.048 7.52C10.0053 7.69067 9.97333 7.81867 9.952 7.904C9.93067 7.98933 9.89867 8.11733 9.856 8.288C9.83467 8.43733 9.81333 8.55467 9.792 8.64V8.736C9.77067 8.82133 9.73867 8.94933 9.696 9.12C9.67467 9.29067 9.65333 9.41867 9.632 9.504C9.568 9.71733 9.52533 9.856 9.504 9.92C9.41867 10.3893 9.344 10.7307 9.28 10.944L9.088 11.424C9.04533 11.5947 9.00267 11.808 8.96 12.064C8.91733 12.3627 8.87467 12.608 8.832 12.8L8.736 13.088L8.544 13.664C8.45867 13.9627 8.384 14.1867 8.32 14.336C8.23467 14.5493 8.13867 14.6987 8.032 14.784C8.01067 14.8053 7.968 14.8587 7.904 14.944C7.84 15.0293 7.776 15.0933 7.712 15.136C7.66933 15.1573 7.60533 15.168 7.52 15.168C7.37067 15.168 7.24267 15.1147 7.136 15.008C6.98667 14.88 6.85867 14.7307 6.752 14.56C6.496 14.0907 6.304 13.7493 6.176 13.536C5.94133 12.9813 5.80267 12.6827 5.76 12.64C5.67467 12.512 5.58933 12.3733 5.504 12.224C5.44 12.0533 5.36533 11.872 5.28 11.68C5.19467 11.4667 5.13067 11.3067 5.088 11.2C5.04533 11.1147 4.96 10.9547 4.832 10.72C4.72533 10.464 4.64 10.2613 4.576 10.112C4.49067 9.87733 4.36267 9.504 4.192 8.992C4.14933 8.88533 4.07467 8.72533 3.968 8.512C3.88267 8.27733 3.81867 8.096 3.776 7.968C3.712 7.776 3.57333 7.34933 3.36 6.688C3.33867 6.624 3.296 6.528 3.232 6.4C3.18933 6.25067 3.15733 6.144 3.136 6.08C3.11467 6.016 3.072 5.92 3.008 5.792C2.96533 5.664 2.93333 5.568 2.912 5.504V5.376C2.89067 5.312 2.848 5.216 2.784 5.088C2.74133 4.93867 2.69867 4.832 2.656 4.768H2.592V5.024C2.61333 5.10933 2.63467 5.216 2.656 5.344C2.69867 5.472 2.72 5.568 2.72 5.632C2.74133 5.80267 2.752 6.05867 2.752 6.4C2.752 6.74133 2.76267 6.99733 2.784 7.168C2.784 7.232 2.784 7.33867 2.784 7.488C2.80533 7.616 2.816 7.712 2.816 7.776C2.85867 8.16 2.88 8.43733 2.88 8.608C2.88 8.672 2.86933 8.768 2.848 8.896C2.848 9.024 2.848 9.10933 2.848 9.152C2.848 9.23733 2.848 9.344 2.848 9.472C2.86933 9.6 2.88 9.70667 2.88 9.792C2.88 9.81333 2.86933 9.83467 2.848 9.856H2.88C2.83733 10.0267 2.816 10.144 2.816 10.208C2.816 10.2293 2.83733 10.3253 2.88 10.496L2.848 10.528C2.86933 10.6347 2.89067 10.7947 2.912 11.008C2.95467 11.2 2.98667 11.3493 3.008 11.456L2.976 11.488V12.448C2.95467 12.704 2.944 13.088 2.944 13.6H3.008C2.98667 13.6213 2.976 13.6533 2.976 13.696H3.008C3.008 13.9307 3.01867 14.2827 3.04 14.752C3.08267 15.2213 3.11467 15.5733 3.136 15.808C3.17867 15.9147 3.2 16.16 3.2 16.544C3.17867 16.6507 3.168 16.8107 3.168 17.024C3.18933 17.152 3.21067 17.3547 3.232 17.632C3.25333 17.888 3.27467 18.08 3.296 18.208C3.31733 18.3147 3.328 18.4747 3.328 18.688C3.328 18.9013 3.328 19.0613 3.328 19.168C3.328 19.2533 3.328 19.3813 3.328 19.552C3.34933 19.7013 3.36 19.8187 3.36 19.904C3.40267 20.2027 3.40267 20.512 3.36 20.832V21.664C3.36 21.7067 3.34933 21.7813 3.328 21.888C3.30667 21.9947 3.30667 22.08 3.328 22.144C3.34933 22.2933 3.36 22.5067 3.36 22.784C3.36 23.0613 3.36 23.2747 3.36 23.424C3.38133 23.552 3.328 23.648 3.2 23.712C3.2 23.7333 3.18933 23.744 3.168 23.744C3.14667 23.744 3.12533 23.7547 3.104 23.776C3.296 23.8827 3.37067 24.0107 3.328 24.16C3.17867 24.2453 2.976 24.3733 2.72 24.544C2.69867 24.544 2.64533 24.544 2.56 24.544C2.47467 24.5653 2.42133 24.576 2.4 24.576C2.37867 24.576 2.32533 24.5867 2.24 24.608C2.15467 24.6293 2.10133 24.6507 2.08 24.672C2.05867 24.6507 2.048 24.6293 2.048 24.608C2.048 24.5867 2.03733 24.5653 2.016 24.544C1.952 24.4373 1.89867 24.384 1.856 24.384C1.68533 24.2987 1.57867 24.1387 1.536 23.904C1.536 23.7973 1.52533 23.6373 1.504 23.424C1.504 23.2107 1.504 23.0507 1.504 22.944V22.688V22.24L1.408 21.28C1.408 20.3627 1.39733 19.808 1.376 19.616C1.35467 19.1253 1.35467 18.6453 1.376 18.176C1.376 17.8987 1.35467 17.696 1.312 17.568C1.248 17.248 1.216 16.768 1.216 16.128C1.216 15.3173 1.20533 14.6987 1.184 14.272C1.184 14.1227 1.17333 13.8987 1.152 13.6C1.13067 13.3013 1.12 13.0773 1.12 12.928C1.09867 12.5867 1.088 12.0747 1.088 11.392C1.13067 10.8373 1.152 10.432 1.152 10.176C1.152 10.048 1.14133 9.86667 1.12 9.632C1.09867 9.39733 1.088 9.216 1.088 9.088C1.088 8.896 1.07733 8.608 1.056 8.224C1.03467 7.84 1.024 7.552 1.024 7.36C1.024 7.31733 1.01333 7.232 0.992 7.104C0.992 6.976 0.992 6.88 0.992 6.816C0.992 6.73067 0.992 6.60267 0.992 6.432C1.01333 6.26133 1.024 6.144 1.024 6.08C1.024 5.84533 1.00267 5.49333 0.96 5.024C0.96 4.96 0.970667 4.85333 0.992 4.704C1.03467 4.53333 1.04533 4.40533 1.024 4.32C1.00267 4.17067 1.00267 3.968 1.024 3.712C1.04533 3.456 1.056 3.28533 1.056 3.2C1.07733 3.09333 1.07733 2.96533 1.056 2.816C1.03467 2.64533 1.024 2.528 1.024 2.464C1.024 2.35733 1.01333 2.19733 0.992 1.984C0.970667 1.77067 0.96 1.61067 0.96 1.504C0.96 1.39733 0.981333 1.216 1.024 0.959999ZM2.784 3.84C2.80533 3.84 2.816 3.84 2.816 3.84L2.88 3.808C2.88 3.78667 2.86933 3.75467 2.848 3.712C2.82667 3.66933 2.816 3.63733 2.816 3.616H2.784V4H2.816V3.872L2.784 3.84ZM25.5155 1.216C25.6222 1.45067 25.6435 1.67467 25.5795 1.888C25.5368 2.016 25.4728 2.21866 25.3875 2.496C25.3022 2.752 25.2382 2.944 25.1955 3.072C25.1742 3.11467 25.1528 3.2 25.1315 3.328C25.1102 3.43467 25.0888 3.52 25.0675 3.584C25.0675 3.60533 25.0568 3.63733 25.0355 3.68C25.0142 3.72267 25.0035 3.75467 25.0035 3.776C24.9822 3.88267 24.9502 4.032 24.9075 4.224C24.8862 4.416 24.8648 4.55467 24.8435 4.64C24.8222 4.704 24.7902 4.8 24.7475 4.928C24.7048 5.03467 24.6728 5.10933 24.6515 5.152C24.6088 5.30133 24.5342 5.51467 24.4275 5.792C24.3422 6.048 24.2782 6.25067 24.2355 6.4C24.1928 6.54933 24.1182 6.848 24.0115 7.296C23.9688 7.33867 23.9582 7.392 23.9795 7.456C23.8942 7.75467 23.8302 7.98933 23.7875 8.16C23.7662 8.288 23.7022 8.46933 23.5955 8.704C23.5102 8.91733 23.4568 9.07733 23.4355 9.184C23.4142 9.312 23.3715 9.504 23.3075 9.76C23.2648 10.016 23.2222 10.208 23.1795 10.336C23.1582 10.464 23.1048 10.656 23.0195 10.912C22.9555 11.1467 22.9022 11.328 22.8595 11.456C22.8382 11.4773 22.8275 11.5093 22.8275 11.552C22.8275 11.5947 22.8275 11.6267 22.8275 11.648C22.6995 11.9893 22.6035 12.2347 22.5395 12.384L22.4435 12.768C22.4222 12.896 22.3688 13.0773 22.2835 13.312C22.1982 13.5253 22.1448 13.6853 22.1235 13.792C22.0168 14.1547 21.9422 14.3893 21.8995 14.496C21.8995 14.5173 21.8888 14.56 21.8675 14.624C21.8675 14.688 21.8675 14.7413 21.8675 14.784C21.8248 14.9547 21.7608 15.1893 21.6755 15.488C21.5688 15.9573 21.5048 16.2027 21.4835 16.224C21.4195 16.352 21.3555 16.5333 21.2915 16.768C21.2275 16.9813 21.1848 17.12 21.1635 17.184C21.1422 17.2267 21.1208 17.3013 21.0995 17.408C21.0995 17.5147 21.0995 17.5787 21.0995 17.6C21.0142 17.8347 20.9608 17.984 20.9395 18.048C20.9182 18.048 20.8862 18.0587 20.8435 18.08C20.8222 18.1013 20.8008 18.1227 20.7795 18.144C20.7368 18.4853 20.6515 18.9013 20.5235 19.392C20.4382 19.776 20.3528 20.032 20.2675 20.16C20.2035 20.2667 20.1502 20.4373 20.1075 20.672C20.0862 20.8853 20.0648 21.024 20.0435 21.088V21.152C19.9582 21.216 19.9048 21.344 19.8835 21.536C19.8622 21.7067 19.8408 21.8133 19.8195 21.856C19.7768 21.9627 19.6702 22.3467 19.4995 23.008L19.2115 24.064C19.1902 24.128 19.1475 24.2347 19.0835 24.384C19.0195 24.5333 18.9768 24.6507 18.9555 24.736C18.8915 24.8427 18.7422 24.9493 18.5075 25.056C18.3155 25.1413 18.0702 25.216 17.7715 25.28C17.6222 25.2587 17.5582 25.1413 17.5795 24.928C17.5795 24.736 17.5902 24.448 17.6115 24.064C17.6328 23.7013 17.6542 23.4347 17.6755 23.264C17.6755 23.1787 17.6862 23.0827 17.7075 22.976C17.7288 22.8693 17.7502 22.752 17.7715 22.624C17.8142 22.4747 17.8462 22.368 17.8675 22.304C17.8888 22.176 17.9208 21.984 17.9635 21.728C18.0275 21.4507 18.0702 21.2373 18.0915 21.088C18.1768 20.768 18.2302 20.5547 18.2515 20.448C18.2728 20.384 18.2942 20.288 18.3155 20.16C18.3582 20.0107 18.3902 19.904 18.4115 19.84C18.4328 19.7333 18.4648 19.5627 18.5075 19.328C18.5715 19.0933 18.6142 18.9227 18.6355 18.816C18.7422 18.368 18.9022 17.6747 19.1155 16.736C19.1795 16.5227 19.2542 16.2027 19.3395 15.776V15.616C18.9982 15.0187 18.7422 14.56 18.5715 14.24C18.5502 14.2187 18.4862 14.0373 18.3795 13.696C18.2088 13.184 18.0808 12.7893 17.9955 12.512C17.9742 12.4907 17.9635 12.4587 17.9635 12.416C17.9635 12.3733 17.9635 12.3413 17.9635 12.32C17.9848 12.3413 18.0168 12.352 18.0595 12.352V12.288C18.0382 12.2667 18.0062 12.256 17.9635 12.256C17.6862 11.424 17.3448 10.4427 16.9395 9.312C16.9182 9.26933 16.8862 9.216 16.8435 9.152C16.8222 9.088 16.8008 9.03467 16.7795 8.992C16.7155 8.8 16.6195 8.52267 16.4915 8.16C16.3848 7.79733 16.3102 7.552 16.2675 7.424C16.1608 7.06133 16.0222 6.53867 15.8515 5.856C15.8302 5.792 15.7768 5.65333 15.6915 5.44C15.6275 5.22667 15.5848 5.06667 15.5635 4.96C15.3075 3.97867 15.1262 3.24267 15.0195 2.752C14.9555 2.496 14.9022 2.10133 14.8595 1.568C14.8168 1.22667 14.9768 1.056 15.3395 1.056C15.4035 1.056 15.4888 1.06667 15.5955 1.088C15.7235 1.10933 15.8088 1.12 15.8515 1.12L15.8195 1.184C15.8622 1.22667 15.9048 1.26933 15.9475 1.312C16.0115 1.35467 16.0542 1.38667 16.0755 1.408C16.2888 1.728 16.4062 1.90933 16.4275 1.952C16.5555 2.144 16.6515 2.336 16.7155 2.528C16.8648 2.89067 16.9502 3.09333 16.9715 3.136C17.0142 3.264 17.0675 3.456 17.1315 3.712C17.2168 3.94667 17.2808 4.128 17.3235 4.256C17.3662 4.40533 17.4515 4.62933 17.5795 4.928V4.992H17.6435L17.9315 5.856C17.8888 5.89867 17.8568 5.94133 17.8355 5.984C17.8568 5.984 17.8782 5.99467 17.8995 6.016H17.9635C17.9635 6.03733 17.9848 6.08 18.0275 6.144C18.0702 6.18667 18.0915 6.22933 18.0915 6.272V6.528C18.0915 6.57067 18.1128 6.63467 18.1555 6.72C18.2195 6.784 18.2515 6.82667 18.2515 6.848C18.2728 6.912 18.3155 7.05067 18.3795 7.264C18.4648 7.456 18.5288 7.616 18.5715 7.744V7.776C18.5715 7.88267 18.7208 8.256 19.0195 8.896C19.0408 8.96 19.0622 9.056 19.0835 9.184C19.1048 9.312 19.1262 9.408 19.1475 9.472C19.3182 9.89867 19.4462 10.208 19.5315 10.4C19.5955 10.5493 19.6702 10.7627 19.7555 11.04C19.8622 11.3173 19.9368 11.52 19.9795 11.648C20.0648 11.9467 20.1395 12.1813 20.2035 12.352C20.2462 12.3307 20.3208 12.32 20.4275 12.32C20.5342 12 20.7582 11.2533 21.0995 10.08C21.4622 8.90667 21.7395 8.01067 21.9315 7.392C22.1022 7.30667 22.2835 7.232 22.4755 7.168V7.104C22.4328 7.104 22.3795 7.08267 22.3155 7.04C22.2515 6.99733 22.2088 6.976 22.1875 6.976L22.1555 7.008C22.1342 7.02933 22.1235 7.05067 22.1235 7.072C22.0808 6.90133 22.1342 6.72 22.2835 6.528L22.2515 6.496V6.464C22.2942 6.29333 22.3262 6.176 22.3475 6.112H22.4435C22.4435 6.13333 22.4435 6.16533 22.4435 6.208L22.4755 6.24H22.5075C22.5075 6.19733 22.5288 6.15467 22.5715 6.112L22.6675 6.016L22.6355 5.984H22.3795C22.4222 5.94133 22.4435 5.93067 22.4435 5.952C22.4862 5.76 22.5502 5.51467 22.6355 5.216C22.6782 5.00267 22.7208 4.864 22.7635 4.8L22.8915 4.672C22.8488 4.39467 22.8915 4.21333 23.0195 4.128C23.0408 3.95733 23.0728 3.744 23.1155 3.488H23.1475C23.2328 3.14667 23.3075 2.89067 23.3715 2.72C23.5422 2.03733 23.7235 1.54667 23.9155 1.248C23.9368 1.20533 23.9582 1.16267 23.9795 1.12C24.0222 1.07733 24.0542 1.03467 24.0755 0.991999C24.1608 0.885332 24.2462 0.874666 24.3315 0.959999C24.6088 0.831999 24.8222 0.831999 24.9715 0.959999C24.9928 0.981332 25.0462 0.991999 25.1315 0.991999C25.3022 0.949333 25.4302 1.024 25.5155 1.216ZM22.3795 6.464C22.4435 6.54933 22.5288 6.60267 22.6355 6.624C22.6142 6.58133 22.6035 6.528 22.6035 6.464C22.5182 6.42133 22.4648 6.4 22.4435 6.4L22.3795 6.464ZM22.8595 5.344L22.9875 5.216L22.7955 5.024L22.7635 5.056C22.7635 5.07733 22.7635 5.10933 22.7635 5.152C22.7848 5.17333 22.7955 5.19467 22.7955 5.216H22.6355C22.6568 5.23733 22.7315 5.28 22.8595 5.344ZM30.349 10.272H30.125C29.0157 9.84533 28.173 9.10933 27.597 8.064C27.3623 7.65867 27.2663 7.17867 27.309 6.624C27.3517 6.112 27.3943 5.73867 27.437 5.504C27.4797 5.312 27.5757 5.09867 27.725 4.864C28.0237 4.224 28.301 3.776 28.557 3.52C29.3677 2.70933 30.1677 2.22933 30.957 2.08C31.5117 1.97333 31.8743 1.93067 32.045 1.952L33.965 2.24C33.9863 2.26133 34.029 2.28267 34.093 2.304C34.157 2.304 34.1997 2.304 34.221 2.304L34.701 2.496C34.8503 2.60266 34.9357 2.656 34.957 2.656C34.9997 2.69867 35.1703 2.80533 35.469 2.976C35.469 3.14667 35.4797 3.25333 35.501 3.296C35.4583 3.36 35.3623 3.50933 35.213 3.744C35.1063 3.89333 34.9357 3.98933 34.701 4.032H34.029C33.4103 4.11733 32.973 4.17067 32.717 4.192C32.5037 4.21333 32.1837 4.34133 31.757 4.576C31.3943 4.704 31.149 4.75733 31.021 4.736C30.765 4.864 30.4877 5.14133 30.189 5.568C29.8903 5.97333 29.6983 6.21867 29.613 6.304C29.613 6.34667 29.5917 6.44267 29.549 6.592C29.5277 6.72 29.5063 6.816 29.485 6.88C29.4637 7.02933 29.549 7.30667 29.741 7.712C29.7623 7.776 29.805 7.88267 29.869 8.032C29.9543 8.18133 30.0183 8.29867 30.061 8.384C30.6157 9.00267 31.3623 9.536 32.301 9.984C32.621 10.1547 33.1223 10.368 33.805 10.624C33.8903 10.7093 33.9757 10.784 34.061 10.848C34.5303 11.04 35.1383 11.4027 35.885 11.936C35.9063 11.9573 35.9383 11.968 35.981 11.968C36.045 11.968 36.0877 11.968 36.109 11.968C36.173 12.032 36.2903 12.1173 36.461 12.224C36.6317 12.3307 36.7597 12.4373 36.845 12.544C36.909 12.6293 37.261 12.992 37.901 13.632C37.9437 13.6747 37.997 13.76 38.061 13.888C38.125 14.016 38.1783 14.112 38.221 14.176C38.2423 14.2187 38.2743 14.272 38.317 14.336C38.3597 14.4 38.3917 14.464 38.413 14.528C38.4557 14.5707 38.4877 14.6133 38.509 14.656C38.573 14.8267 38.6477 15.0827 38.733 15.424C38.8183 15.9787 38.8503 16.4053 38.829 16.704C38.829 16.7253 38.733 17.056 38.541 17.696C38.541 17.7387 38.5197 17.8027 38.477 17.888C38.4343 17.952 38.4023 18.0053 38.381 18.048C38.381 18.1973 38.349 18.3467 38.285 18.496C38.221 18.624 38.125 18.784 37.997 18.976C37.8903 19.168 37.8157 19.296 37.773 19.36C37.6877 19.5307 37.6343 19.6693 37.613 19.776C37.357 20.416 37.1863 20.8107 37.101 20.96C37.0583 21.0667 36.9623 21.2053 36.813 21.376C36.6637 21.5467 36.557 21.6747 36.493 21.76C36.4503 21.9093 36.269 22.08 35.949 22.272C35.6503 22.4427 35.405 22.5067 35.213 22.464C35.213 22.4853 35.2023 22.5173 35.181 22.56C35.1597 22.5813 35.1383 22.6027 35.117 22.624C34.3277 22.816 33.901 22.912 33.837 22.912C33.5383 22.976 33.0797 23.0293 32.461 23.072C31.949 23.0933 31.437 22.9973 30.925 22.784C30.8397 22.7627 30.701 22.7413 30.509 22.72C30.317 22.6773 30.1677 22.6347 30.061 22.592C29.869 22.5067 29.581 22.3787 29.197 22.208C28.813 22.016 28.5463 21.888 28.397 21.824L28.301 21.728C28.045 21.5147 27.8423 21.376 27.693 21.312C27.5437 21.2693 27.2877 21.1307 26.925 20.896C26.6903 20.7253 26.5943 20.4907 26.637 20.192C26.6583 19.936 26.7223 19.6587 26.829 19.36C26.8717 19.168 26.9997 19.072 27.213 19.072C27.277 19.072 27.3837 19.072 27.533 19.072C27.6823 19.0507 27.7997 19.0507 27.885 19.072C27.9703 19.0933 28.045 19.1467 28.109 19.232C28.493 19.3387 29.005 19.4773 29.645 19.648C30.093 19.7973 30.5517 19.8613 31.021 19.84C32.2157 19.712 33.101 19.616 33.677 19.552C34.0397 19.5093 34.3277 19.3707 34.541 19.136C35.2877 18.4107 35.7357 17.4187 35.885 16.16C35.9063 15.904 35.8743 15.3707 35.789 14.56C35.7677 14.432 35.6717 14.24 35.501 13.984C35.3303 13.6853 35.1917 13.4613 35.085 13.312C34.6797 12.7573 34.2637 12.416 33.837 12.288C33.7517 12.2453 33.6237 12.1707 33.453 12.064C33.2823 11.9573 33.165 11.8827 33.101 11.84C32.333 11.4133 31.7463 11.0933 31.341 10.88C31.2343 10.816 31.085 10.7413 30.893 10.656C30.701 10.5707 30.5623 10.496 30.477 10.432C30.4343 10.4107 30.3917 10.3573 30.349 10.272ZM37.069 15.68C37.0477 15.68 36.9943 15.6587 36.909 15.616C36.845 15.552 36.7917 15.5307 36.749 15.552C36.7277 15.552 36.6637 15.5733 36.557 15.616C36.6423 15.744 36.7383 15.84 36.845 15.904L37.069 15.68ZM37.389 16C37.4103 16 37.4317 16.0107 37.453 16.032C37.453 15.9893 37.4637 15.936 37.485 15.872C37.5063 15.7867 37.517 15.712 37.517 15.648C37.5383 15.584 37.549 15.52 37.549 15.456C37.5063 15.4773 37.4423 15.488 37.357 15.488C37.357 15.7227 37.3677 15.8933 37.389 16ZM37.613 15.04L37.805 14.72C37.7837 14.6987 37.773 14.6773 37.773 14.656C37.6877 14.6987 37.5597 14.7307 37.389 14.752C37.4103 14.7733 37.485 14.8693 37.613 15.04ZM52.9118 3.392C52.9971 3.584 53.0184 3.72267 52.9758 3.808C52.8691 3.95733 52.7518 3.97867 52.6238 3.872C52.3891 4.08533 52.1011 4.17067 51.7598 4.128C51.7171 4.128 51.5678 4.14933 51.3118 4.192C51.0771 4.23467 50.9278 4.23467 50.8638 4.192C50.8638 4.21333 50.8638 4.224 50.8638 4.224L50.8318 4.288C50.4904 4.30933 49.9571 4.34133 49.2318 4.384C48.5278 4.40533 48.0051 4.42667 47.6638 4.448C47.3864 4.40533 47.0131 4.36267 46.5438 4.32C46.3944 4.32 46.3411 4.384 46.3838 4.512C46.4264 4.85333 46.4904 5.184 46.5758 5.504C46.5544 5.52533 46.5331 5.55733 46.5118 5.6L46.4478 5.664L46.5118 5.76C46.5544 6.22933 46.5864 6.57067 46.6078 6.784C46.6291 6.848 46.6398 6.92267 46.6398 7.008C46.6184 7.072 46.6078 7.168 46.6078 7.296C46.6078 7.38133 46.6184 7.50933 46.6398 7.68C46.6611 7.85067 46.6718 8 46.6718 8.128C46.6931 8.256 46.7038 8.384 46.7038 8.512C46.7251 8.72533 46.7144 9.10933 46.6718 9.664C46.6931 9.74933 46.7038 9.87733 46.7038 10.048C46.7251 10.2187 46.7358 10.3467 46.7358 10.432H46.7038C46.7038 10.4533 46.7038 10.4747 46.7038 10.496L46.7358 10.56L46.7038 10.624C46.7464 10.8587 46.7891 11.1893 46.8318 11.616C46.8318 11.6373 46.8211 11.6587 46.7998 11.68C46.7784 11.7013 46.7678 11.7227 46.7678 11.744C46.7891 11.7653 46.8211 11.808 46.8638 11.872C46.8424 11.9573 46.8318 12.096 46.8318 12.288C46.8318 12.3093 46.8318 12.352 46.8318 12.416C46.8531 12.4587 46.8638 12.5013 46.8638 12.544C46.8851 12.7147 46.8958 12.96 46.8958 13.28C46.8958 13.344 46.8851 13.44 46.8638 13.568C46.8638 13.696 46.8638 13.8027 46.8638 13.888V13.984V14.24C46.8638 14.304 46.8744 14.3573 46.8958 14.4C46.9384 14.5493 46.9278 14.6773 46.8638 14.784V15.232V15.264C46.8851 15.4133 46.8958 15.648 46.8958 15.968C46.9171 16.1173 46.9278 16.3413 46.9278 16.64V17.248C46.9278 17.3973 46.9171 17.6 46.8958 17.856C46.8958 18.112 46.8958 18.3147 46.8958 18.464C46.8958 18.848 46.8851 19.1253 46.8638 19.296C46.8638 19.6373 46.8424 19.84 46.7998 19.904C46.7571 19.9893 46.7251 20.0747 46.7038 20.16C46.7038 20.2453 46.7038 20.3413 46.7038 20.448C46.7038 20.5547 46.7038 20.64 46.7038 20.704C46.6824 20.8107 46.6718 20.9813 46.6718 21.216C46.6931 21.408 46.7038 21.6853 46.7038 22.048C46.7038 22.112 46.7038 22.1973 46.7038 22.304C46.7251 22.3893 46.7358 22.4533 46.7358 22.496C46.7358 22.5173 46.7251 22.5707 46.7038 22.656C46.7038 22.7413 46.7038 22.7947 46.7038 22.816C46.6611 22.88 46.6611 22.944 46.7038 23.008C46.7038 23.0293 46.6931 23.072 46.6718 23.136C46.6504 23.2 46.6398 23.2533 46.6398 23.296C46.6184 23.3173 46.5864 23.3707 46.5438 23.456C46.5011 23.52 46.4584 23.584 46.4158 23.648C46.3731 23.6907 46.3091 23.712 46.2238 23.712C45.9891 23.7547 45.8078 23.7227 45.6798 23.616C45.6158 23.552 45.5091 23.4667 45.3598 23.36C45.2104 23.232 45.1038 23.136 45.0398 23.072C44.9331 22.9653 44.8584 22.7947 44.8158 22.56C44.7518 22.2187 44.6984 21.696 44.6558 20.992V20.864L44.6238 20.832C44.6238 20.448 44.6344 20.16 44.6558 19.968C44.6558 19.648 44.6771 19.1893 44.7198 18.592V17.056V15.104C44.7198 14.912 44.7091 14.6027 44.6878 14.176C44.6878 13.7493 44.6878 13.4293 44.6878 13.216C44.6878 13.0667 44.6984 12.768 44.7198 12.32C44.7411 11.8507 44.7411 11.4987 44.7198 11.264C44.7198 11.1147 44.7091 10.8907 44.6878 10.592C44.6664 10.2933 44.6558 10.0587 44.6558 9.888C44.6558 9.65333 44.6558 9.312 44.6558 8.864C44.6558 8.416 44.6451 8.08533 44.6238 7.872C44.6238 7.488 44.6024 6.89067 44.5598 6.08C44.5598 5.76 44.5384 5.28 44.4958 4.64C44.4958 4.59733 44.5171 4.46933 44.5598 4.256C44.4104 4.256 44.2078 4.27733 43.9518 4.32C43.8238 4.32 43.6104 4.34133 43.3118 4.384C43.2264 4.40533 43.0984 4.416 42.9278 4.416C42.7784 4.416 42.6611 4.42667 42.5758 4.448C42.4691 4.448 42.3091 4.448 42.0958 4.448C41.9038 4.42667 41.7544 4.416 41.6478 4.416H41.0398H40.6878C40.4104 4.416 40.1438 4.352 39.8878 4.224C39.7384 4.16 39.4931 3.936 39.1517 3.552C39.0024 3.38133 39.0024 3.2 39.1517 3.008C39.8984 2.90133 40.3784 2.82667 40.5918 2.784C40.7411 2.76267 40.9544 2.72 41.2318 2.656C41.5091 2.592 41.7118 2.54933 41.8398 2.528C41.9464 2.528 42.1171 2.528 42.3518 2.528C42.5864 2.50667 42.7571 2.48533 42.8638 2.464C42.9064 2.464 42.9811 2.464 43.0878 2.464C43.1944 2.44267 43.2691 2.432 43.3118 2.432C43.4824 2.432 43.7384 2.432 44.0798 2.432C44.4211 2.41067 44.6771 2.4 44.8478 2.4C45.4451 2.35733 45.9144 2.34667 46.2558 2.368C46.5331 2.38933 46.9171 2.38933 47.4078 2.368C47.9198 2.32533 48.2824 2.304 48.4958 2.304C49.4131 2.304 50.0958 2.31467 50.5438 2.336H51.3438C51.4291 2.37867 51.4824 2.41067 51.5038 2.432C51.6318 2.51733 51.7598 2.54933 51.8878 2.528C52.1438 2.48533 52.3251 2.45333 52.4318 2.432C52.5811 2.51733 52.6771 2.70933 52.7198 3.008L52.9118 3.392ZM49.8398 4.096C49.8824 4.096 49.9358 4.08533 49.9998 4.064C50.0851 4.04267 50.1491 4.032 50.1918 4.032C50.1278 3.98933 50.0531 3.92533 49.9678 3.84L49.8398 4.096ZM56.9108 20.864C56.9748 20.928 57.0174 20.96 57.0388 20.96C57.2948 21.0453 57.4974 21.12 57.6468 21.184C57.7748 21.2267 57.9028 21.2587 58.0308 21.28C58.1588 21.3013 58.2974 21.3013 58.4468 21.28C58.5961 21.2373 58.7028 21.2053 58.7668 21.184C58.8308 21.1627 58.9588 21.12 59.1508 21.056C59.3428 20.9707 59.4601 20.9173 59.5028 20.896C59.7588 20.8107 60.1214 20.6827 60.5908 20.512C60.6761 20.4907 60.8148 20.48 61.0068 20.48C60.9854 20.544 60.9748 20.608 60.9748 20.672C60.9748 20.6933 60.9961 20.7253 61.0388 20.768C60.9961 20.896 60.9641 20.992 60.9427 21.056C61.0068 21.12 61.0814 21.2053 61.1667 21.312C61.2521 21.3973 61.3161 21.4613 61.3588 21.504C61.4868 21.6747 61.5081 21.8347 61.4228 21.984C61.4014 22.0267 61.3908 22.0907 61.3908 22.176C61.3481 22.5173 61.1774 22.7627 60.8788 22.912C60.3028 23.1467 59.8228 23.2747 59.4388 23.296C59.1188 23.3387 58.9054 23.4027 58.7988 23.488C58.7134 23.5307 58.5534 23.552 58.3188 23.552C58.2548 23.552 58.1694 23.552 58.0628 23.552C57.9774 23.5307 57.8921 23.52 57.8068 23.52C57.7214 23.4987 57.6361 23.4773 57.5508 23.456C56.7401 23.2853 56.1961 23.0933 55.9188 22.88L55.6628 22.752C55.5988 22.7093 55.5028 22.656 55.3748 22.592C55.3534 22.5493 55.3108 22.496 55.2468 22.432C55.1828 22.368 55.1401 22.3147 55.1188 22.272C55.0974 22.272 55.0654 22.2507 55.0228 22.208C55.0014 22.1653 54.9801 22.1333 54.9588 22.112C54.7241 21.856 54.4788 21.504 54.2228 21.056C54.1588 20.9493 54.0414 20.5653 53.8708 19.904C53.7428 19.5627 53.6788 19.0507 53.6788 18.368C53.6788 18.1973 53.6894 17.9413 53.7108 17.6C53.7321 17.2373 53.7534 16.9707 53.7747 16.8C53.7747 16.736 53.7641 16.6507 53.7428 16.544C53.7428 16.4373 53.7428 16.3627 53.7428 16.32C53.7428 16.128 53.7428 15.8613 53.7428 15.52C53.7641 15.1573 53.7747 14.8907 53.7747 14.72C53.7747 14.4213 53.7747 13.9733 53.7747 13.376C53.7961 12.7573 53.8174 12.2987 53.8388 12C53.8601 11.552 53.8921 10.9013 53.9348 10.048L54.1268 7.552C54.1694 6.82667 54.2121 6.28267 54.2548 5.92C54.3828 4.85333 54.4894 4.01067 54.5748 3.392C54.5748 3.30667 54.5854 3.17867 54.6068 3.008C54.6494 2.83733 54.6814 2.69867 54.7028 2.592C54.7668 2.25067 55.0014 2.05866 55.4068 2.016C55.4708 1.99467 55.5668 1.984 55.6948 1.984C55.8441 1.984 55.9508 1.97333 56.0148 1.952C56.0788 1.952 56.1641 1.94133 56.2708 1.92C56.3988 1.89867 56.5054 1.888 56.5908 1.888C56.6974 1.86667 56.7934 1.856 56.8788 1.856C57.1561 1.83467 57.5721 1.824 58.1268 1.824C58.1481 1.824 58.2014 1.824 58.2868 1.824C58.3721 1.80267 58.4254 1.792 58.4468 1.792H59.2468C59.3748 1.792 59.5668 1.81333 59.8228 1.856C60.0788 1.89867 60.2708 1.93067 60.3988 1.952L60.7828 2.048C60.8894 2.09067 60.9427 2.13333 60.9427 2.176C60.9854 2.28267 61.1348 2.35733 61.3908 2.4C61.4334 2.4 61.4761 2.41067 61.5188 2.432C61.5828 2.45333 61.6361 2.47467 61.6788 2.496C61.7428 2.496 61.8068 2.496 61.8708 2.496C61.8708 2.51733 61.8601 2.56 61.8388 2.624C61.8388 2.66667 61.8281 2.69867 61.8068 2.72C61.7854 2.72 61.7748 2.70933 61.7748 2.688L61.4868 2.976L61.5188 3.008C61.3908 3.05067 61.2948 3.072 61.2308 3.072C61.1668 3.072 61.1241 3.06133 61.1028 3.04V3.104C60.9321 3.14667 60.8148 3.168 60.7508 3.168C60.6654 3.168 60.3028 3.22133 59.6628 3.328C59.5134 3.37067 59.3321 3.41333 59.1188 3.456C59.0974 3.456 59.0654 3.456 59.0228 3.456L58.9588 3.424C58.8734 3.46667 58.6708 3.488 58.3508 3.488C58.0308 3.488 57.8494 3.488 57.8068 3.488C57.5508 3.53067 57.2094 3.59466 56.7828 3.68C56.6121 3.68 56.5481 3.76533 56.5908 3.936C56.6121 4.064 56.5694 4.46933 56.4628 5.152C56.4414 5.216 56.4308 5.312 56.4308 5.44C56.4308 5.568 56.4201 5.664 56.3988 5.728C56.3774 5.792 56.3668 5.888 56.3668 6.016C56.3668 6.12267 56.3561 6.208 56.3348 6.272C56.3348 6.31467 56.3454 6.368 56.3668 6.432C56.3881 6.47467 56.3988 6.50667 56.3988 6.528C56.4201 6.67733 56.4308 6.89067 56.4308 7.168C56.4734 7.59467 56.4948 7.92533 56.4948 8.16C56.4948 8.224 56.4841 8.30933 56.4628 8.416C56.4414 8.52267 56.4308 8.59733 56.4308 8.64C56.4308 8.72533 56.4308 8.84267 56.4308 8.992C56.4521 9.14133 56.4628 9.248 56.4628 9.312V9.504V10.88C56.4628 10.9227 56.4521 10.9867 56.4308 11.072C56.4308 11.1573 56.4308 11.2107 56.4308 11.232C56.4094 11.36 56.3454 11.392 56.2388 11.328L56.0468 11.232C56.0681 11.4027 56.2174 11.5307 56.4948 11.616C56.5374 11.6373 56.6014 11.648 56.6868 11.648C56.7934 11.6267 57.0174 11.5947 57.3588 11.552C57.7001 11.488 57.9668 11.4453 58.1588 11.424C58.3934 11.4027 58.7028 11.4133 59.0868 11.456C59.5988 11.4987 59.9934 11.5413 60.2708 11.584C60.3774 11.6053 60.5268 11.6373 60.7188 11.68C60.9321 11.7227 61.0814 11.7547 61.1667 11.776C61.2308 11.9253 61.1881 12.064 61.0388 12.192C60.9748 12.256 60.9001 12.3733 60.8148 12.544L60.6228 12.736L60.6548 12.8V12.864V12.896C60.6334 12.9173 60.5481 13.0027 60.3988 13.152C60.2494 13.28 60.1108 13.3653 59.9828 13.408C59.8761 13.4293 59.7161 13.44 59.5028 13.44C59.3108 13.44 59.1614 13.4613 59.0548 13.504C58.6494 13.6107 57.9668 13.6213 57.0068 13.536H56.4628C56.4201 13.5573 56.3454 13.6213 56.2388 13.728C56.2601 13.7707 56.2708 13.8133 56.2708 13.856H56.2388C56.2388 13.9413 56.2388 14.0693 56.2388 14.24C56.2601 14.3893 56.2708 14.5067 56.2708 14.592L56.3028 14.624C56.3028 14.6453 56.3028 14.6667 56.3028 14.688H56.2708C56.3134 15.9253 56.3454 16.8747 56.3668 17.536C56.4521 17.6 56.4734 17.792 56.4308 18.112L56.4628 18.144C56.4841 18.1653 56.4948 18.1867 56.4948 18.208V19.104H56.5588C56.5588 19.1467 56.5801 19.2107 56.6228 19.296C56.6654 19.7227 56.7081 20.0427 56.7508 20.256C56.7721 20.4053 56.8254 20.576 56.9108 20.768V20.864ZM55.8868 20.352C55.8441 20.352 55.7908 20.3733 55.7268 20.416C55.6628 20.4587 55.6201 20.48 55.5988 20.48L55.7588 20.64L55.7908 20.608C55.8761 20.6507 55.9508 20.6827 56.0148 20.704C56.0148 20.6613 56.0254 20.6293 56.0468 20.608L55.9508 20.576C55.9294 20.5547 55.9081 20.5227 55.8868 20.48L55.8548 20.448C55.8548 20.4053 55.8654 20.3733 55.8868 20.352ZM56.4948 20.896C56.5161 20.8747 56.5588 20.864 56.6228 20.864C56.6868 20.864 56.7401 20.8533 56.7828 20.832V20.736C56.7614 20.7147 56.7294 20.6933 56.6868 20.672C56.6441 20.6293 56.6121 20.5973 56.5908 20.576C56.5481 20.704 56.5161 20.8107 56.4948 20.896ZM55.5028 11.392L55.5348 11.36C55.4494 11.232 55.3854 11.1253 55.3428 11.04C55.3214 11.0827 55.3108 11.1253 55.3108 11.168C55.3534 11.232 55.4174 11.3067 55.5028 11.392ZM73.156 22.816C73.22 22.9227 73.2307 23.136 73.188 23.456C73.1667 23.5413 73.156 23.68 73.156 23.872H73.092C73.0493 23.8933 73.0173 23.904 72.996 23.904C72.9107 23.8827 72.7827 23.8613 72.612 23.84C72.4413 23.7973 72.3133 23.7653 72.228 23.744C71.588 23.552 71.012 23.1253 70.5 22.464C70.3293 22.2507 70.0947 21.9413 69.796 21.536C69.5187 21.1093 69.348 20.8533 69.284 20.768C68.964 20.3413 68.4947 19.6053 67.876 18.56C67.748 18.3253 67.5347 17.9947 67.236 17.568C66.9373 17.12 66.7667 16.8533 66.724 16.768C66.6387 16.6187 66.5107 16.4053 66.34 16.128C66.1907 15.8507 66.0733 15.648 65.988 15.52C65.988 15.4987 65.956 15.4773 65.892 15.456C65.8493 15.4133 65.8173 15.3707 65.796 15.328C65.732 15.456 65.7 15.5627 65.7 15.648C65.6787 16.0533 65.6467 16.6827 65.604 17.536C65.5613 17.9627 65.5507 18.2933 65.572 18.528C65.572 18.72 65.5827 19.0293 65.604 19.456C65.6253 19.8613 65.636 20.1707 65.636 20.384C65.5933 21.3227 65.5507 22.0053 65.508 22.432C65.508 22.496 65.4867 22.5707 65.444 22.656C65.4227 22.72 65.3907 22.8267 65.348 22.976C65.3267 23.104 65.3053 23.2 65.284 23.264C65.2627 23.2427 65.2307 23.2107 65.188 23.168C65.1667 23.104 65.156 23.0613 65.156 23.04C65.028 23.0613 64.9427 23.1467 64.9 23.296C64.8573 23.4453 64.8147 23.5413 64.772 23.584C64.452 23.584 64.26 23.5733 64.196 23.552C64.0467 23.5307 63.9293 23.4347 63.844 23.264C63.6947 23.008 63.62 22.6027 63.62 22.048C63.62 21.7067 63.5987 21.216 63.556 20.576C63.556 20.064 63.5347 19.2747 63.492 18.208C63.492 18.144 63.5027 17.984 63.524 17.728C63.5453 17.472 63.5453 17.2693 63.524 17.12C63.524 16.992 63.5133 16.8 63.492 16.544C63.4707 16.2667 63.46 16.064 63.46 15.936C63.46 15.5947 63.4813 15.0613 63.524 14.336C63.524 14.1867 63.5133 13.9627 63.492 13.664C63.4707 13.3653 63.46 13.1307 63.46 12.96L63.556 11.52C63.556 11.4133 63.556 11.264 63.556 11.072C63.5773 10.8587 63.588 10.6987 63.588 10.592C63.588 10.2293 63.5987 9.68533 63.62 8.96C63.6413 8.21333 63.652 7.65867 63.652 7.296C63.652 6.42133 63.6627 5.76 63.684 5.312C63.684 5.16267 63.7053 4.93867 63.748 4.64C63.7907 4.32 63.8227 4.07467 63.844 3.904C63.844 3.75467 63.8547 3.53067 63.876 3.232C63.8973 2.912 63.9187 2.67733 63.94 2.528C63.94 2.44267 63.9613 2.31467 64.004 2.144C64.708 2.29333 65.2093 2.528 65.508 2.848C65.5293 2.82667 65.5613 2.816 65.604 2.816C65.668 2.816 65.7107 2.80533 65.732 2.784C66.3507 2.464 66.9907 2.368 67.652 2.496C67.9507 2.56 68.3133 2.64533 68.74 2.752C69.2947 2.944 69.732 3.22133 70.052 3.584C70.0733 3.648 70.1053 3.744 70.148 3.872C70.212 4 70.2547 4.08533 70.276 4.128C70.2973 4.23466 70.3507 4.32 70.436 4.384C70.7133 4.55467 70.8307 4.78933 70.788 5.088C70.788 5.152 70.7987 5.248 70.82 5.376C70.8413 5.504 70.852 5.6 70.852 5.664C70.852 6.45333 70.82 6.944 70.756 7.136C70.7347 7.2 70.724 7.28533 70.724 7.392C70.724 7.47733 70.724 7.552 70.724 7.616C70.7027 7.68 70.6493 7.81867 70.564 8.032C70.5 8.224 70.4467 8.384 70.404 8.512C70.3187 8.896 70.244 9.184 70.18 9.376C70.116 9.568 70.0307 9.77067 69.924 9.984L69.732 10.368C69.6893 10.4533 69.5507 10.6667 69.316 11.008C69.2733 11.072 69.2093 11.1893 69.124 11.36C69.06 11.5307 69.0067 11.648 68.964 11.712C68.964 11.7333 68.9533 11.7653 68.932 11.808C68.9107 11.8293 68.8893 11.8507 68.868 11.872L68.708 12.032L68.676 12.064C68.676 12.0853 68.6653 12.1067 68.644 12.128C68.644 12.1493 68.6333 12.16 68.612 12.16C68.3133 12.352 68.0467 12.5333 67.812 12.704C67.748 12.7467 67.5667 12.9173 67.268 13.216C67.2467 13.2373 67.1933 13.2907 67.108 13.376C67.0227 13.44 66.9587 13.4933 66.916 13.536C66.9587 13.5573 67.0013 13.5893 67.044 13.632L67.364 13.92C67.556 14.112 67.6947 14.2613 67.78 14.368C67.8867 14.496 68.0147 14.6773 68.164 14.912C68.3133 15.1467 68.4093 15.296 68.452 15.36C69.0067 16.192 69.316 16.6613 69.38 16.768C69.4013 16.8107 69.4227 16.864 69.444 16.928C69.4653 16.9707 69.4867 17.024 69.508 17.088C69.5293 17.152 69.5507 17.2053 69.572 17.248C69.636 17.3333 69.7213 17.4507 69.828 17.6C69.956 17.7493 70.0413 17.8667 70.084 17.952C70.2547 18.1653 70.3293 18.3253 70.308 18.432C70.2867 18.5173 70.3507 18.656 70.5 18.848C70.9053 19.552 71.1827 20.0107 71.332 20.224C71.4387 20.3733 71.5987 20.5867 71.812 20.864C72.0253 21.12 72.164 21.2907 72.228 21.376C72.2707 21.4613 72.3453 21.6 72.452 21.792C72.5587 21.9627 72.644 22.0907 72.708 22.176C72.7293 22.2187 72.8787 22.432 73.156 22.816ZM65.796 11.808C66.244 11.232 66.7027 10.6133 67.172 9.952C67.3 9.76 67.492 9.46133 67.748 9.056C68.0253 8.65067 68.2387 8.352 68.388 8.16C68.6653 7.75467 68.836 7.30667 68.9 6.816C68.9213 6.70933 68.9427 6.53867 68.964 6.304C68.9853 6.048 68.996 5.90933 68.996 5.888C69.0387 5.504 69.0173 5.22667 68.932 5.056C68.8467 4.77867 68.7507 4.58667 68.644 4.48C68.2387 4.07467 67.7587 3.95733 67.204 4.128C67.0973 4.17067 66.8947 4.21333 66.596 4.256C66.2973 4.34133 66.0733 4.416 65.924 4.48C65.796 4.52267 65.7107 4.69333 65.668 4.992C65.668 5.07733 65.6467 5.248 65.604 5.504C65.5613 5.73867 65.54 5.92 65.54 6.048C65.54 6.19733 65.54 6.432 65.54 6.752C65.5613 7.05067 65.5613 7.28533 65.54 7.456C65.54 7.56267 65.5293 7.76533 65.508 8.064C65.4867 8.36267 65.4867 8.59733 65.508 8.768C65.508 8.85333 65.4973 9.152 65.476 9.664C65.4547 10.1547 65.4547 10.4427 65.476 10.528C65.4973 10.6773 65.508 10.8907 65.508 11.168C65.5293 11.4453 65.54 11.6587 65.54 11.808C65.54 11.8293 65.572 11.8933 65.636 12C65.6573 11.9787 65.6787 11.9467 65.7 11.904C65.7427 11.8613 65.7747 11.8293 65.796 11.808ZM76.9508 23.552C76.9294 23.552 76.8868 23.5627 76.8228 23.584C76.7801 23.6053 76.7481 23.616 76.7268 23.616C76.7268 23.5947 76.7374 23.5733 76.7588 23.552C76.2468 23.424 75.8734 23.328 75.6388 23.264C75.1054 23.1147 74.8281 22.8267 74.8068 22.4C74.8068 22.2507 74.7961 22.0373 74.7747 21.76C74.7534 21.4613 74.7321 21.2373 74.7108 21.088C74.7108 21.024 74.7214 20.9173 74.7428 20.768C74.7641 20.5973 74.7747 20.4693 74.7747 20.384C74.7747 20.32 74.7534 20.2027 74.7108 20.032V18.368C74.7108 18.112 74.7001 17.728 74.6788 17.216C74.6788 16.704 74.6788 16.32 74.6788 16.064C74.6788 15.936 74.6788 15.744 74.6788 15.488C74.7001 15.232 74.7108 15.04 74.7108 14.912V13.92C74.7534 13.3227 74.7747 12.8853 74.7747 12.608C74.7961 12.3093 74.8068 11.8507 74.8068 11.232C74.8068 10.976 74.7854 10.5707 74.7428 10.016V8.512L74.8708 8.448V8.256C74.8494 8.256 74.8174 8.26667 74.7747 8.288C74.7108 5.792 74.7001 4.36267 74.7428 4C74.7001 3.06133 74.6788 2.35733 74.6788 1.888C75.0414 1.80267 75.3401 1.824 75.5748 1.952C75.6601 1.99467 75.7774 2.05867 75.9268 2.144C76.0974 2.22933 76.2254 2.29333 76.3108 2.336C76.5454 2.44267 76.6414 2.624 76.5988 2.88V3.456C76.5988 3.648 76.6094 3.78667 76.6308 3.872C76.6308 3.936 76.6414 4.02133 76.6628 4.128C76.6841 4.23466 76.6948 4.30933 76.6948 4.352C76.7374 4.77867 76.7588 5.10933 76.7588 5.344C76.7588 5.45067 76.7481 5.61067 76.7268 5.824C76.7054 6.03733 76.6948 6.18667 76.6948 6.272C76.6948 6.50667 76.7161 6.816 76.7588 7.2C76.8441 7.73333 76.8974 8.16 76.9188 8.48C76.9188 8.56533 76.9081 8.68267 76.8868 8.832C76.8868 8.98133 76.8868 9.088 76.8868 9.152C76.8868 9.19467 76.8868 9.29067 76.8868 9.44C76.9081 9.568 76.9294 9.664 76.9508 9.728C76.9934 9.83467 77.0148 9.952 77.0148 10.08C77.0361 10.1867 77.0468 10.3147 77.0468 10.464C77.0468 10.592 77.0468 10.6987 77.0468 10.784C77.0681 10.8693 77.0894 10.9973 77.1108 11.168C77.1534 11.3387 77.1748 11.456 77.1748 11.52C77.1534 11.5413 77.1321 11.552 77.1108 11.552C77.1748 11.872 77.2068 12.0427 77.2068 12.064C77.2281 12.3627 77.2601 12.7893 77.3028 13.344V14.144V15.264V16.032C77.3028 16.2453 77.2814 16.5867 77.2388 17.056V18.56C77.2388 18.5813 77.2494 18.6027 77.2708 18.624C77.2494 18.688 77.2388 18.7733 77.2388 18.88V19.968C77.2388 20.1387 77.2388 20.384 77.2388 20.704C77.2601 21.024 77.2708 21.2587 77.2708 21.408C77.2708 21.7493 77.2281 21.9733 77.1428 22.08C77.1001 22.144 77.0788 22.2827 77.0788 22.496C77.0574 22.5813 77.0468 22.6987 77.0468 22.848C77.0468 22.9333 77.0361 23.0613 77.0148 23.232C76.9934 23.3813 76.9721 23.488 76.9508 23.552ZM75.9908 22.4C75.9054 22.3147 75.8414 22.2613 75.7988 22.24C75.7774 22.2613 75.7561 22.304 75.7348 22.368C75.7134 22.4107 75.7028 22.4427 75.7028 22.464H75.8307V22.688C75.8521 22.688 75.8841 22.6773 75.9268 22.656H75.9908L76.0868 22.848L76.1508 22.88C76.1934 22.9013 76.2148 22.9227 76.2148 22.944L76.2468 22.912C76.2681 22.8907 76.2894 22.8693 76.3108 22.848C76.2681 22.72 76.2361 22.6133 76.2148 22.528C76.2361 22.4853 76.2468 22.4533 76.2468 22.432C76.2254 22.4107 76.2148 22.4 76.2148 22.4C76.2148 22.3573 76.2041 22.336 76.1828 22.336L75.9588 22.56C75.9588 22.5387 75.9481 22.528 75.9268 22.528C75.9268 22.528 75.9268 22.5173 75.9268 22.496C75.9481 22.4747 75.9588 22.464 75.9588 22.464C75.9588 22.4213 75.9694 22.4 75.9908 22.4ZM75.2868 12.48C75.2441 12.48 75.1908 12.4907 75.1268 12.512C75.0628 12.5333 75.0094 12.5547 74.9668 12.576C74.9881 12.5973 75.0201 12.6293 75.0628 12.672C75.1054 12.6933 75.1374 12.7147 75.1588 12.736C75.1801 12.7573 75.2014 12.768 75.2228 12.768H75.3508C75.3934 12.8107 75.4361 12.8427 75.4788 12.864C75.4361 12.608 75.3934 12.416 75.3508 12.288C75.3081 12.3733 75.2868 12.4373 75.2868 12.48ZM75.9588 6.336C75.9588 6.25067 75.9481 6.19733 75.9268 6.176C75.9054 6.15467 75.8628 6.144 75.7988 6.144C75.7561 6.144 75.7134 6.13333 75.6708 6.112C75.6708 6.13333 75.6601 6.16533 75.6388 6.208C75.6388 6.25067 75.6388 6.28267 75.6388 6.304C75.6814 6.32533 75.7134 6.34667 75.7348 6.368V6.464L75.8307 6.4C75.8734 6.37867 75.9161 6.35733 75.9588 6.336ZM75.3188 9.024H75.2548C75.2761 9.06667 75.2868 9.14133 75.2868 9.248C75.3081 9.33333 75.3188 9.39733 75.3188 9.44C75.3401 9.41867 75.3934 9.38667 75.4788 9.344L75.3188 9.024ZM75.5748 18.336C75.5748 18.3147 75.5854 18.304 75.6068 18.304C75.6068 18.2827 75.6068 18.2613 75.6068 18.24C75.6281 18.1973 75.6388 18.1653 75.6388 18.144L75.5108 18.016C75.4894 18.016 75.4681 18.0267 75.4468 18.048C75.4468 18.0907 75.4681 18.144 75.5108 18.208C75.5534 18.272 75.5748 18.3147 75.5748 18.336ZM75.1908 17.856C75.2121 17.856 75.2334 17.856 75.2548 17.856L75.3188 17.824C75.2761 17.696 75.2441 17.6107 75.2228 17.568C75.1801 17.6533 75.1374 17.7173 75.0948 17.76C75.1161 17.76 75.1481 17.792 75.1908 17.856ZM75.7348 7.328H75.6388C75.6388 7.34933 75.6281 7.392 75.6068 7.456C75.6068 7.52 75.6068 7.56267 75.6068 7.584C75.6921 7.584 75.7348 7.56267 75.7348 7.52V7.328ZM74.9988 13.504C74.9988 13.5253 74.9774 13.536 74.9348 13.536C74.9348 13.6213 74.9454 13.6747 74.9668 13.696C74.9668 13.7173 75.0094 13.728 75.0948 13.728C75.0948 13.7067 75.1054 13.696 75.1268 13.696C75.0841 13.6107 75.0414 13.5467 74.9988 13.504ZM89.994 8.352C89.994 8.65067 89.9833 8.87467 89.962 9.024C89.9193 9.62133 89.898 10.0587 89.898 10.336C89.898 10.4427 89.9087 10.592 89.93 10.784C89.9513 10.9547 89.962 11.0827 89.962 11.168C89.962 11.296 89.9513 11.4773 89.93 11.712C89.9087 11.9253 89.898 12.0853 89.898 12.192C89.898 12.384 89.8873 12.672 89.866 13.056C89.8447 13.44 89.834 13.728 89.834 13.92C89.8127 14.176 89.7807 14.5813 89.738 15.136C89.7167 15.3707 89.706 15.712 89.706 16.16C89.6633 17.184 89.6313 17.9413 89.61 18.432C89.5673 19.1573 89.5033 19.6907 89.418 20.032C89.418 20.0747 89.3967 20.2027 89.354 20.416C89.3327 20.6293 89.3113 20.7787 89.29 20.864C89.2687 20.9493 89.2153 21.0667 89.13 21.216C89.066 21.344 88.97 21.4613 88.842 21.568C88.7993 21.5893 88.746 21.696 88.682 21.888C88.6607 21.9947 88.618 22.1653 88.554 22.4C88.5113 22.6347 88.4687 22.8053 88.426 22.912C88.0847 23.3387 87.818 23.6587 87.626 23.872L87.498 24C86.9647 24.2987 86.474 24.448 86.026 24.448C85.898 24.4693 85.7167 24.48 85.482 24.48C84.97 24.544 84.3407 24.4053 83.594 24.064C82.9327 23.7227 82.2713 23.2107 81.61 22.528C81.1193 22.0373 80.7353 21.3867 80.458 20.576C80.33 20.256 80.2233 19.9147 80.138 19.552C80.0527 19.1893 79.9673 18.7627 79.882 18.272C79.818 17.76 79.7647 17.408 79.722 17.216C79.658 16.96 79.6153 16.6933 79.594 16.416C79.5727 16.1173 79.562 15.7973 79.562 15.456C79.562 15.1147 79.5513 14.848 79.53 14.656C79.4233 13.3973 79.3913 12.5547 79.434 12.128V10.528C79.434 10.3787 79.4233 10.1653 79.402 9.888C79.402 9.61067 79.402 9.39733 79.402 9.248C79.3807 9.03467 79.3593 8.74667 79.338 8.384C79.3167 8 79.2953 7.65867 79.274 7.36C79.2527 7.04 79.2313 6.74133 79.21 6.464C79.2527 6.48533 79.2847 6.50667 79.306 6.528C79.3273 6.528 79.3487 6.53867 79.37 6.56C79.2847 6.41067 79.242 5.99467 79.242 5.312C79.2633 5.312 79.274 5.32267 79.274 5.344L79.338 5.376V5.216C79.274 5.152 79.242 4.94933 79.242 4.608C79.1993 4.26667 79.1993 3.936 79.242 3.616C79.242 3.36 79.274 3.136 79.338 2.944C79.402 2.85866 79.5407 2.67733 79.754 2.4C80.0527 2.31467 80.3513 2.32533 80.65 2.432C80.97 2.53867 81.1727 2.70933 81.258 2.944L81.226 3.104C81.2687 4.29867 81.29 5.088 81.29 5.472C81.4607 6.28267 81.5247 6.816 81.482 7.072C81.4607 7.136 81.482 7.36 81.546 7.744C81.5673 7.808 81.578 7.91467 81.578 8.064C81.578 8.08533 81.5887 8.256 81.61 8.576C81.6527 8.896 81.674 9.13067 81.674 9.28C81.674 9.408 81.6633 9.664 81.642 10.048C81.6207 10.4107 81.6207 10.688 81.642 10.88C81.642 10.9227 81.6313 11.136 81.61 11.52C81.61 11.8827 81.642 12.0853 81.706 12.128C81.7273 12.1707 81.706 12.3307 81.642 12.608C81.642 12.736 81.6527 12.928 81.674 13.184C81.7167 13.44 81.7487 13.6427 81.77 13.792C81.77 13.9413 81.7913 14.1547 81.834 14.432C81.8767 14.7093 81.898 14.9227 81.898 15.072C81.9193 15.264 81.9407 15.552 81.962 15.936C81.9833 16.32 82.0047 16.608 82.026 16.8C82.026 16.8853 82.0367 16.9813 82.058 17.088C82.0793 17.1947 82.1007 17.3227 82.122 17.472C82.1433 17.6 82.1647 17.7173 82.186 17.824C82.2287 18.0587 82.314 18.4747 82.442 19.072C82.442 19.0933 82.4527 19.1467 82.474 19.232C82.4953 19.3173 82.506 19.3813 82.506 19.424C82.506 19.616 82.602 19.9467 82.794 20.416C82.8153 20.4587 82.8367 20.5227 82.858 20.608C82.8793 20.6933 82.9007 20.7573 82.922 20.8C82.986 20.928 83.0713 21.0453 83.178 21.152C83.2847 21.2373 83.3807 21.312 83.466 21.376C83.5513 21.44 83.6687 21.5147 83.818 21.6C83.9887 21.6853 84.106 21.7493 84.17 21.792C84.2767 21.8347 84.3513 21.8453 84.394 21.824C84.8207 21.7173 85.162 21.536 85.418 21.28C85.7167 20.96 85.9833 20.576 86.218 20.128C86.346 19.9147 86.474 19.6267 86.602 19.264L86.794 18.304V18.176C86.7727 18.0053 86.7833 17.7707 86.826 17.472C86.89 17.1733 86.922 16.992 86.922 16.928V16.672C86.922 16.5867 86.922 16.4693 86.922 16.32C86.9433 16.1493 86.954 16.0213 86.954 15.936C86.954 15.7867 86.9753 15.5627 87.018 15.264C87.0607 14.9653 87.082 14.7413 87.082 14.592C87.1673 13.9093 87.2207 13.3973 87.242 13.056C87.2847 12.4373 87.3273 11.5307 87.37 10.336C87.3913 10.144 87.4127 9.86667 87.434 9.504C87.4767 9.12 87.498 8.84267 87.498 8.672V7.808C87.5193 7.57333 87.5407 7.22133 87.562 6.752C87.5833 6.26133 87.594 5.888 87.594 5.632V4.128C87.594 3.95733 87.6047 3.70133 87.626 3.36C87.6473 3.01867 87.658 2.76267 87.658 2.592C87.658 2.50667 87.6793 2.42133 87.722 2.336C88.0633 2.22933 88.3513 2.29333 88.586 2.528C88.8207 2.80533 89.0553 2.90133 89.29 2.816C89.674 3.34933 89.866 3.85067 89.866 4.32C89.8873 4.576 89.898 4.96 89.898 5.472C89.898 5.984 89.898 6.37867 89.898 6.656C89.898 6.82667 89.898 7.008 89.898 7.2C89.9193 7.37067 89.9407 7.57333 89.962 7.808C89.9833 8.04267 89.994 8.224 89.994 8.352ZM87.626 14.176C87.7967 14.24 87.882 14.208 87.882 14.08C87.8607 14.0587 87.85 14.0373 87.85 14.016C87.722 14.1013 87.6473 14.1547 87.626 14.176ZM91.9928 0.959999C92.0568 0.959999 92.2274 0.981332 92.5048 1.024C92.7821 1.06667 93.0168 1.10933 93.2088 1.152C93.3154 1.10933 93.5181 1.216 93.8168 1.472C93.8594 1.49333 93.9021 1.54667 93.9448 1.632C93.9874 1.71733 94.0088 1.77067 94.0088 1.792C94.0728 1.87733 94.1901 2.00533 94.3608 2.176C94.3821 2.176 94.3928 2.16533 94.3928 2.144C94.4141 2.18667 94.6488 2.624 95.0968 3.456C95.0968 3.47733 95.1181 3.552 95.1608 3.68C95.2034 3.808 95.2461 3.904 95.2888 3.968C95.3101 4.01067 95.3421 4.096 95.3848 4.224C95.4488 4.33067 95.4914 4.416 95.5128 4.48C95.5128 4.50133 95.5234 4.544 95.5448 4.608C95.5661 4.65067 95.5874 4.68267 95.6088 4.704C95.6301 4.74667 95.6514 4.8 95.6727 4.864C95.7154 4.90667 95.7474 4.96 95.7688 5.024C95.7901 5.088 95.8114 5.13067 95.8328 5.152C95.8754 5.25867 95.9394 5.41867 96.0248 5.632C96.1314 5.824 96.2061 5.97333 96.2488 6.08C96.2914 6.16533 96.3448 6.29333 96.4088 6.464C96.4728 6.63467 96.5261 6.76267 96.5688 6.848C96.6114 6.93333 96.6541 6.99733 96.6968 7.04C96.7181 7.104 96.8034 7.30667 96.9528 7.648C97.1021 7.968 97.2194 8.23467 97.3048 8.448C97.4541 8.68267 97.6141 9.056 97.7848 9.568C97.9554 10.08 98.0834 10.4427 98.1688 10.656C98.1901 10.6773 98.2221 10.688 98.2648 10.688C98.3074 10.4533 98.3928 10.1013 98.5208 9.632C98.5421 9.48267 98.5954 9.25867 98.6808 8.96C98.7234 8.78933 98.7981 8.53333 98.9048 8.192C99.0114 7.85067 99.0861 7.59467 99.1288 7.424C99.2781 6.99733 99.3634 6.72 99.3848 6.592C99.5341 6.10133 99.6194 5.80267 99.6408 5.696C99.6621 5.632 99.7368 5.376 99.8648 4.928C99.9928 4.48 100.078 4.13867 100.121 3.904C100.206 3.56267 100.249 3.296 100.249 3.104C100.249 2.912 100.334 2.64533 100.505 2.304C100.569 2.176 100.675 1.87733 100.825 1.408C100.995 1.024 101.102 0.810666 101.145 0.768C101.209 0.789333 101.283 0.821332 101.369 0.863998C101.39 0.842665 101.411 0.810666 101.433 0.768C101.475 0.725332 101.507 0.693332 101.529 0.671999H101.561C101.625 0.693332 101.71 0.735999 101.817 0.799999C101.945 0.842665 102.03 0.874665 102.073 0.895998C102.094 0.917332 102.137 0.949333 102.201 0.991999C102.265 1.01333 102.318 1.03467 102.361 1.056C102.553 1.14133 102.702 1.312 102.809 1.568C102.83 1.61067 102.873 1.67466 102.937 1.76C103.001 1.84533 103.043 1.90933 103.065 1.952C103.193 2.336 103.246 2.64533 103.225 2.88C103.225 2.90133 103.225 2.93333 103.225 2.976C103.246 3.01867 103.267 3.072 103.289 3.136C103.31 3.17867 103.321 3.21067 103.321 3.232L103.417 4.384C103.417 4.42667 103.417 4.50133 103.417 4.608C103.438 4.69333 103.449 4.75733 103.449 4.8C103.47 5.12 103.481 5.58933 103.481 6.208C103.523 6.76267 103.555 7.18933 103.577 7.488V8.48C103.577 8.56533 103.598 8.71467 103.641 8.928V9.12C103.705 9.29067 103.737 9.54667 103.737 9.888V10.496V11.776C103.737 12.0747 103.747 12.3093 103.769 12.48V13.024C103.769 13.0453 103.769 13.0773 103.769 13.12C103.79 13.1627 103.801 13.1947 103.801 13.216V13.44V14.464H103.865V14.88V15.424V15.744C103.886 15.8507 103.897 16.0107 103.897 16.224C103.897 16.288 103.897 16.4053 103.897 16.576C103.918 16.7253 103.929 16.8427 103.929 16.928V17.728V18.592C103.929 18.6773 103.929 18.8053 103.929 18.976C103.95 19.1467 103.961 19.264 103.961 19.328C103.961 19.392 103.961 19.4667 103.961 19.552C103.982 19.6373 103.993 19.7013 103.993 19.744C104.014 19.9147 104.035 20.1493 104.057 20.448C104.099 20.7467 104.121 20.9707 104.121 21.12C104.163 21.632 104.185 22.016 104.185 22.272V23.2C104.185 23.328 104.163 23.52 104.121 23.776C104.099 23.904 104.046 24.1173 103.961 24.416C103.897 24.544 103.79 24.608 103.641 24.608C103.577 24.5867 103.491 24.576 103.385 24.576C103.299 24.576 103.235 24.5653 103.193 24.544C103.022 24.544 102.894 24.4267 102.809 24.192C102.745 24.064 102.649 23.8933 102.521 23.68C102.286 23.36 102.169 23.0933 102.169 22.88C102.169 22.56 102.147 22.1013 102.105 21.504C102.083 21.376 102.051 21.1947 102.009 20.96C101.987 20.7253 101.977 20.544 101.977 20.416C101.977 20.3307 101.977 20.192 101.977 20C101.998 19.7867 102.009 19.6267 102.009 19.52C102.009 19.4347 101.998 19.3067 101.977 19.136C101.955 18.944 101.945 18.7947 101.945 18.688C101.945 18.56 101.955 18.3787 101.977 18.144C101.998 17.888 102.009 17.696 102.009 17.568C102.009 17.4827 101.998 17.344 101.977 17.152C101.955 16.9387 101.945 16.7787 101.945 16.672V16.064V14.88C101.923 14.7307 101.913 14.5067 101.913 14.208C101.913 13.888 101.913 13.6533 101.913 13.504C101.913 13.0133 101.881 12.512 101.817 12C101.817 11.936 101.806 11.84 101.785 11.712C101.763 11.5627 101.753 11.4453 101.753 11.36V10.752C101.753 10.688 101.742 10.592 101.721 10.464C101.721 10.3147 101.721 10.1973 101.721 10.112C101.721 10.048 101.721 9.952 101.721 9.824C101.742 9.67467 101.753 9.568 101.753 9.504C101.753 9.39733 101.742 9.25867 101.721 9.088C101.721 8.896 101.721 8.75733 101.721 8.672C101.721 8.58667 101.721 8.46933 101.721 8.32C101.742 8.17067 101.753 8.064 101.753 8V6.048C101.753 5.74933 101.774 5.32267 101.817 4.768C101.817 4.68267 101.795 4.61867 101.753 4.576C101.753 4.59733 101.742 4.608 101.721 4.608C101.721 4.608 101.721 4.61867 101.721 4.64C101.678 4.74667 101.625 4.90667 101.561 5.12C101.518 5.312 101.486 5.45067 101.465 5.536C101.401 5.856 101.358 6.048 101.337 6.112L101.145 6.88C101.145 6.90133 101.134 6.944 101.113 7.008C101.113 7.072 101.113 7.12533 101.113 7.168C101.113 7.21067 101.081 7.328 101.017 7.52C100.974 7.69067 100.942 7.81867 100.921 7.904C100.899 7.98933 100.867 8.11733 100.825 8.288C100.803 8.43733 100.782 8.55467 100.761 8.64V8.736C100.739 8.82133 100.707 8.94933 100.665 9.12C100.643 9.29067 100.622 9.41867 100.601 9.504C100.537 9.71733 100.494 9.856 100.473 9.92C100.387 10.3893 100.313 10.7307 100.249 10.944L100.057 11.424C100.014 11.5947 99.9714 11.808 99.9288 12.064C99.8861 12.3627 99.8434 12.608 99.8008 12.8L99.7048 13.088L99.5128 13.664C99.4274 13.9627 99.3528 14.1867 99.2888 14.336C99.2034 14.5493 99.1074 14.6987 99.0008 14.784C98.9794 14.8053 98.9368 14.8587 98.8728 14.944C98.8088 15.0293 98.7448 15.0933 98.6808 15.136C98.6381 15.1573 98.5741 15.168 98.4888 15.168C98.3394 15.168 98.2114 15.1147 98.1048 15.008C97.9554 14.88 97.8274 14.7307 97.7208 14.56C97.4648 14.0907 97.2728 13.7493 97.1448 13.536C96.9101 12.9813 96.7714 12.6827 96.7288 12.64C96.6434 12.512 96.5581 12.3733 96.4728 12.224C96.4088 12.0533 96.3341 11.872 96.2488 11.68C96.1634 11.4667 96.0994 11.3067 96.0568 11.2C96.0141 11.1147 95.9288 10.9547 95.8008 10.72C95.6941 10.464 95.6088 10.2613 95.5448 10.112C95.4594 9.87733 95.3314 9.504 95.1608 8.992C95.1181 8.88533 95.0434 8.72533 94.9368 8.512C94.8514 8.27733 94.7874 8.096 94.7448 7.968C94.6808 7.776 94.5421 7.34933 94.3288 6.688C94.3074 6.624 94.2648 6.528 94.2008 6.4C94.1581 6.25067 94.1261 6.144 94.1048 6.08C94.0834 6.016 94.0408 5.92 93.9768 5.792C93.9341 5.664 93.9021 5.568 93.8808 5.504V5.376C93.8594 5.312 93.8168 5.216 93.7528 5.088C93.7101 4.93867 93.6674 4.832 93.6248 4.768H93.5608V5.024C93.5821 5.10933 93.6034 5.216 93.6248 5.344C93.6674 5.472 93.6888 5.568 93.6888 5.632C93.7101 5.80267 93.7208 6.05867 93.7208 6.4C93.7208 6.74133 93.7314 6.99733 93.7528 7.168C93.7528 7.232 93.7528 7.33867 93.7528 7.488C93.7741 7.616 93.7848 7.712 93.7848 7.776C93.8274 8.16 93.8488 8.43733 93.8488 8.608C93.8488 8.672 93.8381 8.768 93.8168 8.896C93.8168 9.024 93.8168 9.10933 93.8168 9.152C93.8168 9.23733 93.8168 9.344 93.8168 9.472C93.8381 9.6 93.8488 9.70667 93.8488 9.792C93.8488 9.81333 93.8381 9.83467 93.8168 9.856H93.8488C93.8061 10.0267 93.7848 10.144 93.7848 10.208C93.7848 10.2293 93.8061 10.3253 93.8488 10.496L93.8168 10.528C93.8381 10.6347 93.8594 10.7947 93.8808 11.008C93.9234 11.2 93.9554 11.3493 93.9768 11.456L93.9448 11.488V12.448C93.9234 12.704 93.9128 13.088 93.9128 13.6H93.9768C93.9554 13.6213 93.9448 13.6533 93.9448 13.696H93.9768C93.9768 13.9307 93.9874 14.2827 94.0088 14.752C94.0514 15.2213 94.0834 15.5733 94.1048 15.808C94.1474 15.9147 94.1688 16.16 94.1688 16.544C94.1474 16.6507 94.1368 16.8107 94.1368 17.024C94.1581 17.152 94.1794 17.3547 94.2008 17.632C94.2221 17.888 94.2434 18.08 94.2648 18.208C94.2861 18.3147 94.2968 18.4747 94.2968 18.688C94.2968 18.9013 94.2968 19.0613 94.2968 19.168C94.2968 19.2533 94.2968 19.3813 94.2968 19.552C94.3181 19.7013 94.3288 19.8187 94.3288 19.904C94.3714 20.2027 94.3714 20.512 94.3288 20.832V21.664C94.3288 21.7067 94.3181 21.7813 94.2968 21.888C94.2754 21.9947 94.2754 22.08 94.2968 22.144C94.3181 22.2933 94.3288 22.5067 94.3288 22.784C94.3288 23.0613 94.3288 23.2747 94.3288 23.424C94.3501 23.552 94.2968 23.648 94.1688 23.712C94.1688 23.7333 94.1581 23.744 94.1368 23.744C94.1154 23.744 94.0941 23.7547 94.0728 23.776C94.2648 23.8827 94.3394 24.0107 94.2968 24.16C94.1474 24.2453 93.9448 24.3733 93.6888 24.544C93.6674 24.544 93.6141 24.544 93.5288 24.544C93.4434 24.5653 93.3901 24.576 93.3688 24.576C93.3474 24.576 93.2941 24.5867 93.2088 24.608C93.1234 24.6293 93.0701 24.6507 93.0488 24.672C93.0274 24.6507 93.0168 24.6293 93.0168 24.608C93.0168 24.5867 93.0061 24.5653 92.9848 24.544C92.9208 24.4373 92.8674 24.384 92.8248 24.384C92.6541 24.2987 92.5474 24.1387 92.5048 23.904C92.5048 23.7973 92.4941 23.6373 92.4728 23.424C92.4728 23.2107 92.4728 23.0507 92.4728 22.944V22.688V22.24L92.3768 21.28C92.3768 20.3627 92.3661 19.808 92.3448 19.616C92.3234 19.1253 92.3234 18.6453 92.3448 18.176C92.3448 17.8987 92.3234 17.696 92.2808 17.568C92.2168 17.248 92.1848 16.768 92.1848 16.128C92.1848 15.3173 92.1741 14.6987 92.1528 14.272C92.1528 14.1227 92.1421 13.8987 92.1208 13.6C92.0994 13.3013 92.0888 13.0773 92.0888 12.928C92.0674 12.5867 92.0568 12.0747 92.0568 11.392C92.0994 10.8373 92.1208 10.432 92.1208 10.176C92.1208 10.048 92.1101 9.86667 92.0888 9.632C92.0674 9.39733 92.0568 9.216 92.0568 9.088C92.0568 8.896 92.0461 8.608 92.0247 8.224C92.0034 7.84 91.9928 7.552 91.9928 7.36C91.9928 7.31733 91.9821 7.232 91.9608 7.104C91.9608 6.976 91.9608 6.88 91.9608 6.816C91.9608 6.73067 91.9608 6.60267 91.9608 6.432C91.9821 6.26133 91.9928 6.144 91.9928 6.08C91.9928 5.84533 91.9714 5.49333 91.9288 5.024C91.9288 4.96 91.9394 4.85333 91.9608 4.704C92.0034 4.53333 92.0141 4.40533 91.9928 4.32C91.9714 4.17067 91.9714 3.968 91.9928 3.712C92.0141 3.456 92.0247 3.28533 92.0247 3.2C92.0461 3.09333 92.0461 2.96533 92.0247 2.816C92.0034 2.64533 91.9928 2.528 91.9928 2.464C91.9928 2.35733 91.9821 2.19733 91.9608 1.984C91.9394 1.77067 91.9288 1.61067 91.9288 1.504C91.9288 1.39733 91.9501 1.216 91.9928 0.959999ZM93.7528 3.84C93.7741 3.84 93.7848 3.84 93.7848 3.84L93.8488 3.808C93.8488 3.78667 93.8381 3.75467 93.8168 3.712C93.7954 3.66933 93.7848 3.63733 93.7848 3.616H93.7528V4H93.7848V3.872L93.7528 3.84Z" fill="white"/>
</svg>
