<svg width="128" height="24" viewBox="0 0 128 24" fill="none" xmlns="http://www.w3.org/2000/svg">
<path d="M13.984 20.728H14.4C14.4 18.8507 14.4427 16.4827 14.528 13.624C14.6133 10.744 14.6667 8.632 14.688 7.288C14.4107 7.97067 13.7707 9.56 12.768 12.056C11.7867 14.552 11.0293 16.4293 10.496 17.688C10.4107 17.9227 10.176 18.04 9.792 18.04C9.51467 18.04 9.32267 17.9013 9.216 17.624L4.928 7.384C4.94933 9.00533 4.98133 11.256 5.024 14.136C5.06667 17.016 5.088 19.2133 5.088 20.728H6.112C6.47467 20.7707 6.67733 20.9413 6.72 21.24V21.848C6.72 22.36 6.63467 22.6907 6.464 22.84C6.29333 22.968 5.94133 23.032 5.408 23.032H4.32L2.304 23.064H2.08C1.65333 23.064 1.39733 23 1.312 22.872C1.22667 22.7227 1.184 22.4133 1.184 21.944C1.184 21.624 1.19467 21.4 1.216 21.272C1.23733 21.144 1.32267 21.0267 1.472 20.92C1.64267 20.792 1.89867 20.728 2.24 20.728H2.592C2.57067 19.3627 2.53867 17.2187 2.496 14.296C2.45333 11.3733 2.432 9.25067 2.432 7.928C2.432 7.82133 2.432 7.66133 2.432 7.448C2.45333 7.23467 2.464 7.07467 2.464 6.968C2.42133 6.37067 2.4 5.90133 2.4 5.56L2.336 3.64C2.336 3.53333 2.31467 3.33067 2.272 3.032H1.568C1.16267 3.032 0.906667 2.968 0.8 2.84C0.714667 2.712 0.672 2.44533 0.672 2.04C0.672 2.01867 0.672 1.96533 0.672 1.88C0.672 1.79467 0.672 1.73067 0.672 1.688C0.672 1.624 0.672 1.54933 0.672 1.464C0.693333 1.35733 0.725333 1.28267 0.768 1.24C0.832 1.176 0.896 1.12267 0.96 1.08C1.04533 1.016 1.152 0.973333 1.28 0.952C1.408 0.909332 1.55733 0.887999 1.728 0.887999H4.032C4.33067 0.887999 4.56533 1.09067 4.736 1.496C5.20533 2.62667 6.12267 4.80267 7.488 8.024C8.85333 11.224 9.62133 13.0267 9.792 13.432L14.88 1.496C14.9653 1.28267 15.0507 1.13333 15.136 1.048C15.2213 0.962665 15.2853 0.919998 15.328 0.919998C15.3707 0.898665 15.4667 0.887999 15.616 0.887999H18.368C18.7733 0.930666 18.976 1.112 18.976 1.432C18.976 2.11467 18.912 2.552 18.784 2.744C18.656 2.91467 18.2827 3 17.664 3L17.248 3.032V3.64C17.248 4.152 17.2267 4.888 17.184 5.848C17.1627 6.808 17.152 7.50133 17.152 7.928V15.864C17.1093 16.568 17.088 17.5387 17.088 18.776V20.728H17.856C18.2613 20.7707 18.464 20.952 18.464 21.272C18.464 21.656 18.4533 21.944 18.432 22.136C18.432 22.328 18.3787 22.52 18.272 22.712C18.1653 22.8827 18.0053 22.968 17.792 22.968C17.6853 22.968 17.5467 22.9787 17.376 23C17.2053 23 17.1093 23 17.088 23H17.152C17.1947 23.0213 17.2267 23.032 17.248 23.032H13.824C13.3973 23.032 13.1413 22.968 13.056 22.84C12.9707 22.6907 12.928 22.392 12.928 21.944C12.928 21.9227 12.928 21.8587 12.928 21.752C12.928 21.6453 12.928 21.5707 12.928 21.528C12.928 21.464 12.928 21.3893 12.928 21.304C12.9493 21.1973 12.9813 21.1227 13.024 21.08C13.088 21.016 13.152 20.9627 13.216 20.92C13.3013 20.856 13.408 20.8133 13.536 20.792C13.664 20.7493 13.8133 20.728 13.984 20.728ZM20.713 0.727999H24.585C24.9903 0.770666 25.193 0.952 25.193 1.272C25.193 2.01867 25.129 2.49867 25.001 2.712C24.873 2.904 24.4997 3 23.881 3H23.753L26.761 11.256H26.825C27.2303 10.296 27.7957 8.77067 28.521 6.68C29.2463 4.568 29.6623 3.384 29.769 3.128H29.321C28.8943 3.128 28.6383 3.064 28.553 2.936C28.4677 2.78667 28.425 2.488 28.425 2.04C28.425 2.01867 28.425 1.95467 28.425 1.848C28.425 1.74133 28.425 1.66667 28.425 1.624C28.425 1.56 28.425 1.48533 28.425 1.4C28.4463 1.29333 28.4783 1.21867 28.521 1.176C28.585 1.112 28.649 1.05866 28.713 1.016C28.7983 0.951998 28.905 0.909332 29.033 0.887999C29.161 0.845332 29.3103 0.823999 29.481 0.823999H33.353C33.7583 0.866666 33.961 1.048 33.961 1.368C33.961 1.77333 33.9503 2.06133 33.929 2.232C33.929 2.38133 33.8863 2.54133 33.801 2.712C33.7157 2.88267 33.5877 2.98933 33.417 3.032C33.2677 3.07467 33.033 3.096 32.713 3.096C32.2223 4.29067 31.4223 6.17867 30.313 8.76C29.2037 11.3413 28.4143 13.1973 27.945 14.328L27.849 19C27.849 19.192 27.8277 19.7573 27.785 20.696H28.809C29.2143 20.7387 29.417 20.92 29.417 21.24C29.417 21.9867 29.353 22.4667 29.225 22.68C29.097 22.872 28.7237 22.968 28.105 22.968H27.369C27.3263 23.0107 26.985 23.032 26.345 23.032C26.281 23.032 26.1957 23.0213 26.089 23C26.0037 23 25.9397 23 25.897 23H24.777C24.3503 23 24.0943 22.936 24.009 22.808C23.9237 22.6587 23.881 22.36 23.881 21.912C23.881 21.8907 23.881 21.8267 23.881 21.72C23.881 21.6133 23.881 21.5387 23.881 21.496C23.881 21.432 23.881 21.3573 23.881 21.272C23.9023 21.1653 23.9343 21.0907 23.977 21.048C24.041 20.984 24.105 20.9307 24.169 20.888C24.2543 20.824 24.361 20.7813 24.489 20.76C24.617 20.7173 24.7663 20.696 24.937 20.696H25.385V19.992C25.385 19.352 25.3957 18.424 25.417 17.208C25.4383 15.992 25.449 15.0533 25.449 14.392L20.777 3.032H20.553C20.1263 3.032 19.8703 2.968 19.785 2.84C19.6997 2.712 19.657 2.41333 19.657 1.944C19.657 1.92267 19.657 1.85867 19.657 1.752C19.657 1.64533 19.657 1.57067 19.657 1.528C19.657 1.464 19.657 1.38933 19.657 1.304C19.6783 1.19733 19.7103 1.12267 19.753 1.08C19.817 1.016 19.881 0.962666 19.945 0.919998C20.0303 0.855999 20.137 0.813333 20.265 0.792C20.393 0.749332 20.5423 0.727999 20.713 0.727999ZM43.5688 1.112V4.024C43.5261 4.42933 43.3448 4.632 43.0248 4.632C42.7261 4.632 42.4914 4.632 42.3208 4.632C42.1714 4.61067 41.9901 4.58933 41.7768 4.568C41.5634 4.52533 41.4034 4.45067 41.2968 4.344C41.2114 4.23733 41.1688 4.10933 41.1688 3.96C41.1688 3.87467 41.1581 3.74667 41.1368 3.576C41.1154 3.40533 41.1048 3.30933 41.1048 3.288V3.416V2.328C38.6514 2.69067 37.4248 4.00267 37.4248 6.264C37.4248 7.01067 37.5634 7.61867 37.8408 8.088C38.1181 8.55733 38.6088 9.12267 39.3128 9.784C39.3981 9.848 39.6541 10.0827 40.0808 10.488C40.5074 10.8933 40.7848 11.16 40.9128 11.288C41.0408 11.416 41.2968 11.672 41.6808 12.056C42.0648 12.44 42.3314 12.7387 42.4808 12.952C42.6301 13.144 42.8434 13.432 43.1208 13.816C43.4194 14.1787 43.6328 14.5093 43.7608 14.808C43.8888 15.0853 44.0274 15.416 44.1768 15.8C44.3474 16.184 44.4648 16.568 44.5288 16.952C44.5928 17.3147 44.6248 17.6987 44.6248 18.104C44.6248 19.1067 44.4328 19.9707 44.0488 20.696C43.6861 21.4 43.1954 21.9333 42.5768 22.296C41.9581 22.6587 41.3181 22.9147 40.6568 23.064C40.0168 23.2347 39.3341 23.32 38.6088 23.32C37.2008 23.32 36.1768 23.2133 35.5368 23C34.9181 22.808 34.6088 22.4347 34.6088 21.88C34.6088 21.4747 34.6728 21.208 34.8008 21.08C34.9288 20.952 35.1314 20.888 35.4088 20.888C35.7501 20.888 36.3154 20.9093 37.1048 20.952C37.9154 20.9733 38.4914 20.984 38.8328 20.984C39.8994 20.984 40.6674 20.7493 41.1368 20.28C41.6061 19.7893 41.8408 19.0213 41.8408 17.976C41.8408 16.9947 41.5954 16.088 41.1048 15.256C40.6141 14.4027 40.0168 13.656 39.3128 13.016C38.6088 12.376 37.9048 11.736 37.2008 11.096C36.5181 10.456 35.9314 9.72 35.4408 8.888C34.9501 8.03467 34.7048 7.128 34.7048 6.168C34.7048 3.992 35.4088 2.43467 36.8168 1.496C38.2248 0.535999 40.0381 0.0559998 42.2568 0.0559998C42.2781 0.0559998 42.3528 0.0559998 42.4808 0.0559998C42.6301 0.0346654 42.7368 0.0346654 42.8008 0.0559998C42.8648 0.0559998 42.9501 0.0773328 43.0568 0.119999C43.1848 0.141332 43.2701 0.194665 43.3128 0.279999C43.3768 0.343999 43.4301 0.450666 43.4728 0.599998C43.5368 0.727999 43.5688 0.898666 43.5688 1.112ZM51.074 20.696H51.522L51.554 16.92C51.554 16.408 51.5433 16.024 51.522 15.768L51.586 8.792V6.936C51.586 6.44533 51.5753 6.072 51.554 5.816L51.49 5.016C51.49 4.78133 51.5113 4.536 51.554 4.28C51.554 4.216 51.5327 4.07733 51.49 3.864C51.4687 3.65067 51.458 3.49067 51.458 3.384C51.3513 3.384 51.202 3.39467 51.01 3.416C50.8393 3.416 50.722 3.416 50.658 3.416C50.4233 3.416 50.05 3.416 49.538 3.416C49.0473 3.39467 48.674 3.384 48.418 3.384V4.888C48.3753 5.29333 48.194 5.496 47.874 5.496C47.0847 5.496 46.5727 5.432 46.338 5.304C46.1033 5.176 45.986 4.80267 45.986 4.184V4.12C45.9647 4.12 45.954 4.184 45.954 4.312V3C45.9327 2.89333 45.922 2.69066 45.922 2.392C45.922 1.60266 45.986 1.176 46.114 1.112C46.1353 1.09067 46.146 1.06933 46.146 1.048C46.1673 0.962665 46.7113 0.919998 47.778 0.919998C47.9273 0.919998 48.642 0.941332 49.922 0.983999C51.202 1.02667 52.29 1.048 53.186 1.048C53.698 1.048 54.4127 1.03733 55.33 1.016C56.2687 0.994666 57.3353 0.983999 58.53 0.983999C58.6153 0.983999 58.6793 0.994666 58.722 1.016C58.786 1.016 58.8393 1.03733 58.882 1.08C58.9247 1.10133 58.9567 1.13333 58.978 1.176C59.0207 1.19733 59.0527 1.24 59.074 1.304C59.0953 1.34667 59.106 1.38933 59.106 1.432C59.1273 1.47467 59.138 1.53867 59.138 1.624C59.138 1.70933 59.138 1.77333 59.138 1.816C59.138 1.85867 59.138 1.93333 59.138 2.04C59.138 2.14667 59.138 2.232 59.138 2.296C59.138 2.488 59.1273 2.62667 59.106 2.712V4.888C59.0633 5.29333 58.882 5.496 58.562 5.496C58.2633 5.496 58.0287 5.496 57.858 5.496C57.7087 5.47467 57.5273 5.45333 57.314 5.432C57.1007 5.38933 56.9407 5.31467 56.834 5.208C56.7487 5.10133 56.706 4.97333 56.706 4.824C56.706 4.73867 56.6953 4.61067 56.674 4.44C56.6527 4.26933 56.642 4.17333 56.642 4.152V4.28V3.32H56.482C56.1833 3.32 55.874 3.30933 55.554 3.288C55.234 3.26667 55.0527 3.256 55.01 3.256L53.986 3.32C53.986 4.62133 54.0287 6.21067 54.114 8.088L54.018 15.896C54.018 16.2587 54.018 16.792 54.018 17.496C54.018 18.2 54.0073 18.7227 53.986 19.064C53.986 19.256 53.986 19.5333 53.986 19.896C54.0073 20.2587 54.018 20.5253 54.018 20.696H54.946C55.3513 20.7387 55.554 20.92 55.554 21.24C55.554 21.9867 55.49 22.4667 55.362 22.68C55.234 22.872 54.8607 22.968 54.242 22.968L51.138 23H50.914C50.4873 23 50.2313 22.936 50.146 22.808C50.0607 22.6587 50.018 22.36 50.018 21.912C50.018 21.8907 50.018 21.8267 50.018 21.72C50.018 21.6133 50.018 21.5387 50.018 21.496C50.018 21.432 50.018 21.3573 50.018 21.272C50.0393 21.1653 50.0713 21.0907 50.114 21.048C50.178 20.984 50.242 20.9307 50.306 20.888C50.3913 20.824 50.498 20.7813 50.626 20.76C50.754 20.7173 50.9033 20.696 51.074 20.696ZM61.5405 0.887999H65.4125C65.4338 0.887999 65.4658 0.898665 65.5085 0.919998C65.5512 0.919998 65.5832 0.919998 65.6045 0.919998H67.0765C67.1405 0.919998 67.2792 0.930665 67.4925 0.952C67.7272 0.952 67.9192 0.952 68.0685 0.952C68.3458 0.952 68.7405 0.952 69.2525 0.952C69.7858 0.930665 70.1058 0.919998 70.2125 0.919998C70.5325 0.919998 70.7672 0.973331 70.9165 1.08C71.0658 1.16533 71.1512 1.272 71.1725 1.4C71.1938 1.528 71.2045 1.76267 71.2045 2.104C71.2045 2.296 71.1832 2.43467 71.1405 2.52V4.92C71.0978 5.32533 70.9165 5.528 70.5965 5.528C70.2978 5.528 70.0632 5.528 69.8925 5.528C69.7432 5.50667 69.5618 5.48533 69.3485 5.464C69.1352 5.42133 68.9752 5.34667 68.8685 5.24C68.7832 5.13333 68.7405 5.00533 68.7405 4.856C68.7405 4.77067 68.7298 4.64267 68.7085 4.472C68.6872 4.30133 68.6765 4.20533 68.6765 4.184V4.312V3.128H68.4845C66.5858 3.128 65.2738 3.11733 64.5485 3.096L64.4845 9.336C64.4845 10.3387 64.5165 10.84 64.5805 10.84H68.7085C69.1565 10.84 69.4338 10.8933 69.5405 11C69.6685 11.0853 69.7325 11.32 69.7325 11.704C69.7325 12.152 69.6258 12.4613 69.4125 12.632C69.2205 12.7813 68.8898 12.856 68.4205 12.856C68.3138 12.856 68.1645 12.856 67.9725 12.856C67.7805 12.8347 67.6312 12.824 67.5245 12.824L64.5165 12.92C64.5165 13.1333 64.5058 13.4533 64.4845 13.88C64.4845 14.2853 64.4845 14.584 64.4845 14.776V17.72C64.4845 17.9333 64.4738 18.4027 64.4525 19.128C64.4312 19.832 64.4205 20.3547 64.4205 20.696H65.4125C65.6258 20.76 65.7432 20.792 65.7645 20.792L68.9965 20.664V19.256C68.9965 18.8293 69.0605 18.5733 69.1885 18.488C69.3378 18.4027 69.6578 18.36 70.1485 18.36H70.4045C70.5752 18.36 70.6818 18.36 70.7245 18.36C70.7672 18.36 70.8525 18.3813 70.9805 18.424C71.1085 18.4667 71.1938 18.52 71.2365 18.584C71.2792 18.648 71.3218 18.7547 71.3645 18.904C71.4285 19.0533 71.4605 19.224 71.4605 19.416V22.328C71.4605 22.7333 71.2792 22.936 70.9165 22.936H70.8525C70.7245 22.9573 70.4472 22.968 70.0205 22.968C69.9565 22.968 69.8818 22.968 69.7965 22.968C69.7112 22.9467 69.6472 22.936 69.6045 22.936C69.4978 22.936 69.3272 22.9467 69.0925 22.968C68.8792 22.968 68.7085 22.968 68.5805 22.968C68.3245 22.968 67.9618 22.968 67.4925 22.968C67.0232 22.9467 66.6818 22.936 66.4685 22.936C65.7645 22.936 65.2632 22.9467 64.9645 22.968H64.6445C64.6445 22.9893 64.6978 23 64.8045 23H61.3805C60.9538 23 60.6978 22.936 60.6125 22.808C60.5272 22.6587 60.4845 22.36 60.4845 21.912C60.4845 21.8907 60.4845 21.8267 60.4845 21.72C60.4845 21.6133 60.4845 21.5387 60.4845 21.496C60.4845 21.432 60.4845 21.3573 60.4845 21.272C60.5058 21.1653 60.5378 21.0907 60.5805 21.048C60.6445 20.984 60.7085 20.9307 60.7725 20.888C60.8578 20.824 60.9645 20.7813 61.0925 20.76C61.2205 20.7173 61.3698 20.696 61.5405 20.696H61.9245V20.344C61.9245 20.1733 61.9245 19.9173 61.9245 19.576C61.9458 19.2347 61.9565 18.9787 61.9565 18.808L62.0205 15.8V15.224C62.0205 14.904 62.0098 14.4667 61.9885 13.912C61.9885 13.336 61.9885 12.9093 61.9885 12.632C61.9885 12.504 61.9885 12.3227 61.9885 12.088C62.0098 11.8533 62.0205 11.6933 62.0205 11.608V3.032H61.3805C60.9752 3.032 60.7192 2.968 60.6125 2.84C60.5272 2.712 60.4845 2.44533 60.4845 2.04C60.4845 2.01867 60.4845 1.96533 60.4845 1.88C60.4845 1.79467 60.4845 1.73067 60.4845 1.688C60.4845 1.624 60.4845 1.54933 60.4845 1.464C60.5058 1.35733 60.5378 1.28267 60.5805 1.24C60.6445 1.176 60.7085 1.12267 60.7725 1.08C60.8578 1.016 60.9645 0.973333 61.0925 0.952C61.2205 0.909332 61.3698 0.887999 61.5405 0.887999ZM74.51 0.695999H77.038C79.3207 0.695999 81.166 1.32533 82.574 2.584C83.982 3.84267 84.686 5.53867 84.686 7.672C84.686 9.272 84.334 10.5413 83.63 11.48C82.926 12.4187 82.062 12.984 81.038 13.176C81.9127 13.4747 82.6913 14.0507 83.374 14.904C84.0567 15.736 84.398 16.7493 84.398 17.944C84.398 18.3067 84.398 18.5733 84.398 18.744C84.4193 18.9147 84.4407 19.192 84.462 19.576C84.5047 19.9387 84.5687 20.2373 84.654 20.472C84.7393 20.6853 84.8567 20.92 85.006 21.176C85.1553 21.4107 85.358 21.592 85.614 21.72C85.8913 21.8267 86.2007 21.88 86.542 21.88H86.734C87.0967 21.88 87.278 21.9973 87.278 22.232V23C87.278 23.3413 86.9793 23.512 86.382 23.512C84.9953 23.512 83.9713 23.1493 83.31 22.424C82.6487 21.6987 82.2327 20.536 82.062 18.936C81.8913 17.4213 81.422 16.248 80.654 15.416C79.9073 14.584 79.086 14.0827 78.19 13.912H77.422V20.792H78.35C78.7553 20.8347 78.958 21.016 78.958 21.336C78.958 22.0613 78.894 22.5307 78.766 22.744C78.638 22.9573 78.2647 23.064 77.646 23.064L74.542 23.096H74.318C73.8913 23.096 73.6353 23.032 73.55 22.904C73.4647 22.7547 73.422 22.456 73.422 22.008C73.422 21.9867 73.422 21.9227 73.422 21.816C73.422 21.7093 73.422 21.6347 73.422 21.592C73.422 21.528 73.422 21.4533 73.422 21.368C73.4433 21.2613 73.4753 21.1867 73.518 21.144C73.582 21.08 73.646 21.0267 73.71 20.984C73.7953 20.92 73.902 20.8773 74.03 20.856C74.158 20.8133 74.3073 20.792 74.478 20.792H74.958V3H74.35C73.9233 3 73.6673 2.936 73.582 2.808C73.4967 2.65867 73.454 2.36 73.454 1.912C73.454 1.89067 73.454 1.82667 73.454 1.72C73.454 1.61333 73.454 1.53867 73.454 1.496C73.454 1.432 73.454 1.35733 73.454 1.272C73.4753 1.16533 73.5073 1.09067 73.55 1.048C73.614 0.983999 73.678 0.930666 73.742 0.887999C73.8273 0.823999 73.934 0.781333 74.062 0.759998C74.19 0.717332 74.3393 0.695999 74.51 0.695999ZM77.198 2.872V12.088H77.646C80.59 12.088 82.062 10.584 82.062 7.576C82.062 6.04 81.5393 4.84533 80.494 3.992C79.4487 3.11733 78.4673 2.68 77.55 2.68C77.3793 2.68 77.262 2.744 77.198 2.872ZM88.353 0.887999H92.225C92.6303 0.930666 92.833 1.112 92.833 1.432C92.833 2.09333 92.7583 2.53067 92.609 2.744C92.4597 2.95733 92.1183 3.05333 91.585 3.032H91.425C91.4037 3.62933 91.393 4.504 91.393 5.656L91.297 10.456C91.2543 12.248 91.233 14.2107 91.233 16.344C91.233 18.4773 91.2223 19.992 91.201 20.888H92.225C92.6303 20.9307 92.833 21.112 92.833 21.432C92.833 22.136 92.769 22.552 92.641 22.68C92.513 22.808 92.1183 22.9147 91.457 23C91.4997 23.0213 91.553 23.032 91.617 23.032H88.193C87.7877 23.032 87.5317 22.968 87.425 22.84C87.3397 22.712 87.297 22.4453 87.297 22.04C87.297 22.0187 87.297 21.9653 87.297 21.88C87.297 21.7947 87.297 21.7307 87.297 21.688C87.297 21.624 87.297 21.5493 87.297 21.464C87.3183 21.3573 87.3503 21.2827 87.393 21.24C87.457 21.176 87.521 21.1227 87.585 21.08C87.6703 21.016 87.777 20.9733 87.905 20.952C88.033 20.9093 88.1823 20.888 88.353 20.888H88.737C88.8437 15.7253 88.897 11.1067 88.897 7.032C88.897 6.88267 88.8863 6.63733 88.865 6.296C88.865 5.95467 88.865 5.70933 88.865 5.56L88.833 4.024C88.833 4.00267 88.8223 3.96 88.801 3.896C88.801 3.832 88.801 3.77867 88.801 3.736C88.801 3.608 88.8223 3.37333 88.865 3.032H88.193C87.7877 3.032 87.5317 2.968 87.425 2.84C87.3397 2.712 87.297 2.44533 87.297 2.04C87.297 2.01867 87.297 1.96533 87.297 1.88C87.297 1.79467 87.297 1.73067 87.297 1.688C87.297 1.624 87.297 1.54933 87.297 1.464C87.3183 1.35733 87.3503 1.28267 87.393 1.24C87.457 1.176 87.521 1.12267 87.585 1.08C87.6703 1.016 87.777 0.973333 87.905 0.952C88.033 0.909332 88.1823 0.887999 88.353 0.887999ZM95.1968 0.887999H99.0688C99.4741 0.930666 99.6768 1.112 99.6768 1.432C99.6768 2.15733 99.6128 2.62667 99.4848 2.84C99.3568 3.05333 98.9834 3.16 98.3648 3.16H98.1727V15.96C98.1727 17.5173 98.3968 18.8187 98.8448 19.864C99.3141 20.9093 100.05 21.432 101.053 21.432C101.629 21.432 102.119 21.3147 102.525 21.08C102.951 20.8453 103.261 20.5893 103.453 20.312C103.645 20.0133 103.794 19.5973 103.901 19.064C104.007 18.5307 104.061 18.1147 104.061 17.816C104.082 17.496 104.093 17.048 104.093 16.472C104.093 16.344 104.093 16.248 104.093 16.184V12.44C104.093 10.1573 104.114 8.41867 104.157 7.224V3.16H103.645C103.218 3.16 102.962 3.096 102.877 2.968C102.791 2.84 102.749 2.54133 102.749 2.072C102.749 2.05067 102.749 1.98667 102.749 1.88C102.749 1.77333 102.749 1.69867 102.749 1.656C102.749 1.592 102.749 1.51733 102.749 1.432C102.77 1.32533 102.802 1.25067 102.845 1.208C102.909 1.144 102.973 1.09067 103.037 1.048C103.122 0.983999 103.229 0.941332 103.357 0.919998C103.485 0.877332 103.634 0.855999 103.805 0.855999H107.677C108.082 0.898665 108.285 1.08 108.285 1.4C108.285 2.14667 108.221 2.62667 108.093 2.84C107.965 3.032 107.591 3.128 106.973 3.128H106.781V5.496C106.781 6.584 106.749 8.20533 106.685 10.36C106.621 12.5147 106.589 14.136 106.589 15.224C106.589 15.3947 106.589 15.6613 106.589 16.024C106.61 16.3867 106.621 16.6747 106.621 16.888C106.621 18.7867 106.194 20.3867 105.341 21.688C104.487 22.968 103.165 23.6293 101.373 23.672C100.349 23.672 99.4634 23.4907 98.7168 23.128C97.9914 22.7653 97.4261 22.328 97.0208 21.816C96.6368 21.2827 96.3274 20.6107 96.0928 19.8C95.8794 18.9893 95.7408 18.2747 95.6768 17.656C95.6341 17.016 95.6128 16.28 95.6128 15.448C95.6128 15.1707 95.6021 14.4133 95.5807 13.176C95.5594 11.9173 95.5488 10.904 95.5488 10.136V3.192H95.0368C94.6101 3.192 94.3541 3.128 94.2688 3C94.1834 2.85067 94.1408 2.552 94.1408 2.104C94.1408 2.08267 94.1408 2.01867 94.1408 1.912C94.1408 1.80533 94.1408 1.73067 94.1408 1.688C94.1408 1.624 94.1408 1.54933 94.1408 1.464C94.1621 1.35733 94.1941 1.28267 94.2368 1.24C94.3008 1.176 94.3648 1.12267 94.4288 1.08C94.5141 1.016 94.6208 0.973333 94.7488 0.952C94.8768 0.909332 95.0261 0.887999 95.1968 0.887999ZM122.922 20.728H123.338C123.338 18.8507 123.38 16.4827 123.466 13.624C123.551 10.744 123.604 8.632 123.626 7.288C123.348 7.97067 122.708 9.56 121.706 12.056C120.724 14.552 119.967 16.4293 119.434 17.688C119.348 17.9227 119.114 18.04 118.73 18.04C118.452 18.04 118.26 17.9013 118.154 17.624L113.866 7.384C113.887 9.00533 113.919 11.256 113.962 14.136C114.004 17.016 114.026 19.2133 114.026 20.728H115.05C115.412 20.7707 115.615 20.9413 115.658 21.24V21.848C115.658 22.36 115.572 22.6907 115.402 22.84C115.231 22.968 114.879 23.032 114.346 23.032H113.258L111.242 23.064H111.018C110.591 23.064 110.335 23 110.25 22.872C110.164 22.7227 110.122 22.4133 110.122 21.944C110.122 21.624 110.132 21.4 110.154 21.272C110.175 21.144 110.26 21.0267 110.41 20.92C110.58 20.792 110.836 20.728 111.178 20.728H111.53C111.508 19.3627 111.476 17.2187 111.434 14.296C111.391 11.3733 111.37 9.25067 111.37 7.928C111.37 7.82133 111.37 7.66133 111.37 7.448C111.391 7.23467 111.402 7.07467 111.402 6.968C111.359 6.37067 111.338 5.90133 111.338 5.56L111.274 3.64C111.274 3.53333 111.252 3.33067 111.21 3.032H110.506C110.1 3.032 109.844 2.968 109.738 2.84C109.652 2.712 109.61 2.44533 109.61 2.04C109.61 2.01867 109.61 1.96533 109.61 1.88C109.61 1.79467 109.61 1.73067 109.61 1.688C109.61 1.624 109.61 1.54933 109.61 1.464C109.631 1.35733 109.663 1.28267 109.706 1.24C109.77 1.176 109.834 1.12267 109.898 1.08C109.983 1.016 110.09 0.973333 110.218 0.952C110.346 0.909332 110.495 0.887999 110.666 0.887999H112.97C113.268 0.887999 113.503 1.09067 113.674 1.496C114.143 2.62667 115.06 4.80267 116.426 8.024C117.791 11.224 118.559 13.0267 118.73 13.432L123.818 1.496C123.903 1.28267 123.988 1.13333 124.074 1.048C124.159 0.962665 124.223 0.919998 124.266 0.919998C124.308 0.898665 124.404 0.887999 124.554 0.887999H127.306C127.711 0.930666 127.914 1.112 127.914 1.432C127.914 2.11467 127.85 2.552 127.722 2.744C127.594 2.91467 127.22 3 126.602 3L126.186 3.032V3.64C126.186 4.152 126.164 4.888 126.122 5.848C126.1 6.808 126.09 7.50133 126.09 7.928V15.864C126.047 16.568 126.026 17.5387 126.026 18.776V20.728H126.794C127.199 20.7707 127.402 20.952 127.402 21.272C127.402 21.656 127.391 21.944 127.37 22.136C127.37 22.328 127.316 22.52 127.21 22.712C127.103 22.8827 126.943 22.968 126.73 22.968C126.623 22.968 126.484 22.9787 126.314 23C126.143 23 126.047 23 126.026 23H126.09C126.132 23.0213 126.164 23.032 126.186 23.032H122.762C122.335 23.032 122.079 22.968 121.994 22.84C121.908 22.6907 121.866 22.392 121.866 21.944C121.866 21.9227 121.866 21.8587 121.866 21.752C121.866 21.6453 121.866 21.5707 121.866 21.528C121.866 21.464 121.866 21.3893 121.866 21.304C121.887 21.1973 121.919 21.1227 121.962 21.08C122.026 21.016 122.09 20.9627 122.154 20.92C122.239 20.856 122.346 20.8133 122.474 20.792C122.602 20.7493 122.751 20.728 122.922 20.728Z" fill="white"/>
</svg>
