<svg width="40" height="40" viewBox="0 0 40 40" fill="none" xmlns="http://www.w3.org/2000/svg">
<g clip-path="url(#clip0_66_180)">
<path d="M28.9474 2.10547H11.0526C6.11113 2.10547 2.10526 6.11134 2.10526 11.0528V28.9476C2.10526 33.8891 6.11113 37.8949 11.0526 37.8949H28.9474C33.8889 37.8949 37.8947 33.8891 37.8947 28.9476V11.0528C37.8947 6.11134 33.8889 2.10547 28.9474 2.10547Z" stroke="white" stroke-width="3.4" stroke-linecap="round" stroke-linejoin="round"/>
<path d="M27.8348 19.3258C28.0617 20.8553 27.8004 22.4174 27.0882 23.7899C26.3761 25.1624 25.2493 26.2754 23.8681 26.9706C22.4869 27.6658 20.9217 27.9078 19.3951 27.6621C17.8685 27.4165 16.4582 26.6957 15.3648 25.6023C14.2714 24.5089 13.5506 23.0986 13.305 21.572C13.0593 20.0454 13.3013 18.4802 13.9965 17.099C14.6917 15.7178 15.8047 14.591 17.1772 13.8789C18.5497 13.1667 20.1118 12.9054 21.6413 13.1323C23.2015 13.3636 24.6459 14.0906 25.7612 15.2059C26.8765 16.3212 27.6035 17.7656 27.8348 19.3258Z" stroke="white" stroke-width="3.4919" stroke-linecap="round" stroke-linejoin="round"/>
<path d="M30.5916 10.3755H30.6095" stroke="white" stroke-width="3.4919" stroke-linecap="round" stroke-linejoin="round"/>
</g>
<defs>
<clipPath id="clip0_66_180">
<rect width="40" height="40" fill="white"/>
</clipPath>
</defs>
</svg>
