<svg width="50" height="50" viewBox="0 0 50 50" fill="none" xmlns="http://www.w3.org/2000/svg">
<circle cx="25" cy="24.9999" r="25" fill="#E85D04"/>
<path d="M25 31.0832C25.7824 31.0832 26.4167 30.4489 26.4167 29.6665C26.4167 28.8841 25.7824 28.2499 25 28.2499C24.2176 28.2499 23.5833 28.8841 23.5833 29.6665C23.5833 30.4489 24.2176 31.0832 25 31.0832Z" stroke="white" stroke-width="2.66667" stroke-linecap="round" stroke-linejoin="round"/>
<path d="M34.9167 21.1665H15.0833C13.5185 21.1665 12.25 22.435 12.25 23.9998V35.3332C12.25 36.898 13.5185 38.1665 15.0833 38.1665H34.9167C36.4815 38.1665 37.75 36.898 37.75 35.3332V23.9998C37.75 22.435 36.4815 21.1665 34.9167 21.1665Z" stroke="white" stroke-width="2.66667" stroke-linecap="round" stroke-linejoin="round"/>
<path d="M17.9167 21.1666V16.9166C17.9167 15.038 18.6629 13.2363 19.9913 11.9079C21.3197 10.5795 23.1214 9.83325 25 9.83325C26.8786 9.83325 28.6803 10.5795 30.0087 11.9079C31.337 13.2363 32.0833 15.038 32.0833 16.9166V21.1666" stroke="white" stroke-width="2.66667" stroke-linecap="round" stroke-linejoin="round"/>
</svg>
