<svg width="48" height="48" viewBox="0 0 48 48" fill="none" xmlns="http://www.w3.org/2000/svg">
<path d="M22.908 34.0421C23.004 34.1241 23.108 34.2061 23.21 34.2861C21.1828 35.6318 18.8032 36.3485 16.37 36.3461C14.7482 36.3474 13.142 36.029 11.6432 35.4091C10.1445 34.7891 8.78275 33.8799 7.63574 32.7332C6.48872 31.5866 5.579 30.2251 4.95858 28.7266C4.33816 27.2281 4.01923 25.622 4.02002 24.0001C4.01981 21.7663 4.62544 19.5743 5.77241 17.6575C6.91938 15.7407 8.56475 14.1709 10.5333 13.1152C12.5018 12.0595 14.7199 11.5575 16.9511 11.6626C19.1824 11.7677 21.3434 12.476 23.204 13.7121C23.104 13.7981 23.004 13.8761 22.928 13.9641C21.4864 15.2089 20.3297 16.7496 19.5366 18.4814C18.7436 20.2131 18.3327 22.0954 18.332 24.0001C18.332 27.8501 19.998 31.5101 22.908 34.0421ZM31.63 11.6521C29.199 11.6474 26.8212 12.3643 24.798 13.7121C24.896 13.7981 24.996 13.8761 25.072 13.9641C27.996 16.4901 29.67 20.1521 29.67 24.0001C29.67 27.8481 28 31.5061 25.094 34.0421C24.996 34.1241 24.892 34.2061 24.792 34.2861C26.8175 35.6322 29.196 36.349 31.628 36.3461C33.2627 36.367 34.8852 36.0632 36.4015 35.4521C37.9178 34.8411 39.2977 33.935 40.4611 32.7865C41.6245 31.6381 42.5482 30.27 43.1788 28.7617C43.8093 27.2534 44.134 25.6349 44.1342 24.0001C44.1343 22.3653 43.8098 20.7468 43.1795 19.2384C42.5492 17.73 41.6257 16.3618 40.4625 15.2131C39.2993 14.0644 37.9196 13.1581 36.4034 12.5468C34.8872 11.9356 33.2647 11.6314 31.63 11.6521ZM24 14.3001C22.5296 15.453 21.3411 16.9257 20.5247 18.6064C19.7083 20.2871 19.2854 22.1316 19.288 24.0001C19.2842 25.8696 19.7065 27.7155 20.523 29.3973C21.3395 31.0792 22.5286 32.5528 24 33.7061C25.471 32.5522 26.66 31.0786 27.4767 29.3969C28.2935 27.7152 28.7166 25.8696 28.714 24.0001C28.7167 22.1314 28.2936 20.2866 27.4768 18.6059C26.66 16.9251 25.471 15.4526 24 14.3001Z" fill="white" fill-opacity="0.5"/>
</svg>
