<svg width="30" height="30" viewBox="0 0 30 30" fill="none" xmlns="http://www.w3.org/2000/svg">
<path d="M24.2988 9.81256C24.2376 10.2151 24.3726 10.6226 24.6601 10.9101L26.6201 12.8701C27.2076 13.4576 27.5026 14.2288 27.5026 15.0001C27.5026 15.7713 27.2088 16.5413 26.6201 17.1301L24.6063 19.1438C24.471 19.279 24.3058 19.3806 24.1242 19.4406C23.9425 19.5005 23.7493 19.517 23.5601 19.4888C22.9726 19.4013 22.5576 18.8888 22.3501 18.3326C22.168 17.841 21.8653 17.4032 21.4697 17.0593C21.0742 16.7154 20.5985 16.4764 20.0864 16.3644C19.5744 16.2524 19.0424 16.271 18.5394 16.4184C18.0364 16.5657 17.5785 16.8372 17.2079 17.2079C16.8372 17.5785 16.5657 18.0364 16.4184 18.5394C16.271 19.0424 16.2524 19.5744 16.3644 20.0864C16.4764 20.5985 16.7154 21.0742 17.0593 21.4697C17.4032 21.8653 17.841 22.168 18.3326 22.3501C18.8901 22.5576 19.4013 22.9713 19.4888 23.5601C19.5171 23.7493 19.5006 23.9425 19.4407 24.1242C19.3808 24.3059 19.2791 24.471 19.1438 24.6063L17.1313 26.6188C16.8518 26.8993 16.5196 27.1217 16.1539 27.2734C15.7881 27.425 15.396 27.5029 15.0001 27.5026C14.6044 27.5031 14.2125 27.4254 13.847 27.2739C13.4814 27.1225 13.1494 26.9003 12.8701 26.6201L10.9101 24.6601C10.7684 24.5181 10.5954 24.4114 10.405 24.3485C10.2147 24.2855 10.0122 24.2681 9.81381 24.2976C9.19756 24.3901 8.76381 24.9276 8.53881 25.5076C8.35022 25.9916 8.04392 26.4211 7.64762 26.757C7.25132 27.0929 6.77752 27.3247 6.26909 27.4315C5.76067 27.5382 5.23365 27.5165 4.73571 27.3683C4.23777 27.2202 3.78463 26.9502 3.41728 26.5828C3.04993 26.2155 2.77996 25.7623 2.63179 25.2644C2.48362 24.7665 2.46192 24.2395 2.56867 23.731C2.67542 23.2226 2.90723 22.7488 3.24315 22.3525C3.57907 21.9562 4.00849 21.6499 4.49256 21.4613C5.07256 21.2363 5.61006 20.8026 5.70131 20.1863C5.73096 19.9881 5.71372 19.7856 5.65098 19.5952C5.58825 19.4049 5.48176 19.2318 5.34006 19.0901L3.38006 17.1301C3.09987 16.8507 2.87766 16.5187 2.72621 16.1531C2.57476 15.7876 2.49706 15.3957 2.49756 15.0001C2.49756 14.2288 2.79256 13.4576 3.38006 12.8701L5.28756 10.9626C5.58756 10.6626 6.01381 10.5213 6.43381 10.5838C7.07756 10.6801 7.53006 11.2438 7.77506 11.8463C7.96968 12.3235 8.2793 12.7451 8.67633 13.0737C9.07336 13.4023 9.54549 13.6275 10.0507 13.7294C10.5558 13.8313 11.0784 13.8067 11.5717 13.6578C12.0651 13.5089 12.5139 13.2403 12.8784 12.8759C13.2428 12.5114 13.5114 12.0626 13.6603 11.5692C13.8092 11.0759 13.8338 10.5533 13.7319 10.0482C13.63 9.54299 13.4048 9.07086 13.0762 8.67383C12.7476 8.2768 12.326 7.96718 11.8488 7.77256C11.2463 7.52756 10.6826 7.07506 10.5863 6.43131C10.5238 6.01131 10.6638 5.58631 10.9651 5.28506L12.8713 3.37881C13.1506 3.099 13.4825 2.87711 13.8478 2.72588C14.2131 2.57465 14.6047 2.49706 15.0001 2.49756C15.7713 2.49756 16.5426 2.79256 17.1301 3.38006L19.0901 5.34006C19.3776 5.62756 19.7851 5.76256 20.1863 5.70256C20.8026 5.61006 21.2363 5.07256 21.4613 4.49256C21.6499 4.00849 21.9562 3.57907 22.3525 3.24315C22.7488 2.90723 23.2226 2.67542 23.731 2.56867C24.2395 2.46192 24.7665 2.48362 25.2644 2.63179C25.7623 2.77996 26.2155 3.04993 26.5828 3.41728C26.9502 3.78463 27.2202 4.23777 27.3683 4.73571C27.5165 5.23365 27.5382 5.76067 27.4315 6.26909C27.3247 6.77752 27.0929 7.25132 26.757 7.64762C26.4211 8.04392 25.9916 8.35022 25.5076 8.53881C24.9276 8.76381 24.3901 9.19631 24.2988 9.81256Z" stroke="white" stroke-width="2.5" stroke-linecap="round" stroke-linejoin="round"/>
</svg>
