<svg width="40" height="40" viewBox="0 0 40 40" fill="none" xmlns="http://www.w3.org/2000/svg">
<path d="M37.0387 1.25371C36.5447 1.28997 36.0598 1.4069 35.603 1.59993H35.5968C35.1583 1.77537 33.0732 2.66032 29.9032 4.00171L18.5437 8.82857C10.3926 12.2907 2.37998 15.7001 2.37998 15.7001L2.47538 15.6629C2.47538 15.6629 1.92295 15.8461 1.34589 16.2451C0.989394 16.474 0.682625 16.7734 0.444149 17.1254C0.161007 17.5446 -0.0667377 18.1858 0.0178971 18.8487C0.15639 19.9696 0.876556 20.6419 1.3936 21.0129C1.91679 21.3887 2.41537 21.5641 2.41537 21.5641H2.42768L9.94172 24.118C10.2787 25.2095 12.2315 31.6867 12.7008 33.1787C12.9778 34.0698 13.2471 34.6272 13.5841 35.0526C13.7472 35.2699 13.938 35.4516 14.1673 35.5975C14.2865 35.6675 14.4136 35.7227 14.5458 35.7621L14.4689 35.7435C14.492 35.7497 14.5105 35.7683 14.5274 35.7745C14.5889 35.7916 14.6305 35.7978 14.709 35.8102C15.8985 36.1735 16.8541 35.4283 16.8541 35.4283L16.9079 35.3848L21.3443 31.3094L28.7799 37.0647L28.9492 37.1377C30.4987 37.8239 32.0683 37.442 32.8978 36.7682C33.7333 36.0897 34.058 35.2218 34.058 35.2218L34.1119 35.0821L39.8578 5.38348C40.0209 4.65068 40.0625 3.96445 39.8824 3.29841C39.6967 2.62434 39.2681 2.04459 38.6806 1.6729C38.1873 1.37033 37.6153 1.22429 37.0387 1.25371ZM36.8833 4.43643C36.8771 4.53424 36.8956 4.52337 36.8525 4.71123V4.7283L31.1604 34.118C31.1358 34.1599 31.0943 34.2515 30.9804 34.3431C30.8604 34.4393 30.765 34.4999 30.2648 34.2996L21.1705 27.265L15.6769 32.317L16.831 24.8803L31.6898 10.9074C32.3022 10.333 32.0976 10.2119 32.0976 10.2119C32.1407 9.50703 31.1727 10.0054 31.1727 10.0054L12.4361 21.7162L12.43 21.6852L3.44946 18.6344V18.6282L3.42637 18.6236C3.44212 18.6183 3.45753 18.6121 3.47254 18.6049L3.52178 18.5801L3.56948 18.563C3.56948 18.563 11.5882 15.1536 19.7394 11.6915C23.8203 9.95727 27.932 8.21066 31.0943 6.86305C32.9697 6.0666 34.8471 5.2748 36.7263 4.48766C36.8525 4.43798 36.7925 4.43643 36.8833 4.43643Z" fill="white"/>
</svg>
