<svg width="48" height="48" viewBox="0 0 48 48" fill="none" xmlns="http://www.w3.org/2000/svg">
<path d="M44.442 31.5362L43.994 29.2862H38.966L38.166 31.5202L34.136 31.5282C36.726 25.3022 38.65 20.6922 39.904 17.6942C40.232 16.9102 40.814 16.5102 41.672 16.5162C42.328 16.5222 43.398 16.5222 44.884 16.5182L48 31.5302L44.442 31.5362ZM40.098 26.2042H43.338L42.128 20.5642L40.098 26.2042ZM14.12 16.5142L18.172 16.5182L11.908 31.5382L7.806 31.5342C6.7745 27.5669 5.75583 23.5962 4.75 19.6222C4.55 18.8302 4.154 18.2762 3.392 18.0142C2.26667 17.6371 1.13588 17.2763 0 16.9322L0 16.5182H6.474C7.594 16.5182 8.248 17.0602 8.458 18.1722C8.67 19.2862 9.202 22.1242 10.058 26.6802L14.12 16.5142ZM23.74 16.5182L20.538 31.5362L16.68 31.5302L19.88 16.5142L23.74 16.5182ZM31.56 16.2402C32.714 16.2402 34.168 16.6002 35.004 16.9322L34.328 20.0442C33.572 19.7402 32.328 19.3302 31.282 19.3442C29.762 19.3702 28.822 20.0082 28.822 20.6202C28.822 21.6162 30.454 22.1182 32.134 23.2062C34.05 24.4462 34.304 25.5602 34.28 26.7722C34.254 29.2822 32.134 31.7602 27.662 31.7602C25.622 31.7302 24.886 31.5602 23.222 30.9682L23.926 27.7202C25.62 28.4282 26.338 28.6542 27.786 28.6542C29.112 28.6542 30.25 28.1182 30.26 27.1842C30.268 26.5202 29.86 26.1902 28.372 25.3702C26.884 24.5482 24.796 23.4122 24.824 21.1262C24.858 18.2022 27.628 16.2402 31.56 16.2402Z" fill="white" fill-opacity="0.5"/>
</svg>
