<svg width="48" height="40" viewBox="0 0 48 40" fill="none" xmlns="http://www.w3.org/2000/svg">
<path d="M3.12899 31.0012C1.62367 23.8973 1.62367 16.5567 3.12899 9.45278C3.32678 8.73136 3.70894 8.07384 4.23789 7.5449C4.76684 7.01595 5.42435 6.63379 6.14577 6.436C17.7032 4.52133 29.4968 4.52133 41.0542 6.436C41.7756 6.63379 42.4332 7.01595 42.9621 7.5449C43.4911 8.07384 43.8732 8.73136 44.071 9.45278C45.5763 16.5567 45.5763 23.8973 44.071 31.0012C43.8732 31.7226 43.4911 32.3801 42.9621 32.9091C42.4332 33.438 41.7756 33.8202 41.0542 34.018C29.4969 35.933 17.7031 35.933 6.14577 34.018C5.42435 33.8202 4.76684 33.438 4.23789 32.9091C3.70894 32.3801 3.32678 31.7226 3.12899 31.0012Z" stroke="white" stroke-width="2.58581" stroke-linecap="round" stroke-linejoin="round"/>
<path d="M19.2904 26.6922L30.0646 20.2277L19.2904 13.7632V26.6922Z" stroke="white" stroke-width="2.58581" stroke-linecap="round" stroke-linejoin="round"/>
</svg>
